<svg width="438" height="476" viewBox="0 0 438 476" fill="none" xmlns="http://www.w3.org/2000/svg">
<g filter="url(#filter0_d_140_412)">
<rect width="386" height="423" transform="translate(23 5)" fill="#F7F1E3"/>
<g clip-path="url(#clip0_140_412)">
<path d="M63.2756 45.6328L54.9084 54L63.2756 62.3672L60.6871 64.9375L49.7496 54L60.6871 43.0625L63.2756 45.6328Z" fill="#737373"/>
<path d="M142.291 63H139.587V44.436H147.803V46.75H142.291V52.912H147.465V55.226H142.291V63ZM155.629 48.726C156.652 48.726 157.518 48.9947 158.229 49.532C158.94 50.0693 159.477 50.806 159.841 51.742C160.205 52.678 160.387 53.7613 160.387 54.992V56.552H153.211C153.263 59.6027 154.312 61.128 156.357 61.128C157.536 61.128 158.688 60.7987 159.815 60.14V62.35C159.26 62.662 158.68 62.8873 158.073 63.026C157.484 63.182 156.825 63.26 156.097 63.26C154.26 63.26 152.89 62.61 151.989 61.31C151.088 59.9927 150.637 58.2507 150.637 56.084C150.637 53.7093 151.07 51.8893 151.937 50.624C152.804 49.3587 154.034 48.726 155.629 48.726ZM155.681 50.754C154.19 50.754 153.376 52.0453 153.237 54.628H157.943C157.943 53.536 157.752 52.6173 157.371 51.872C157.007 51.1267 156.444 50.754 155.681 50.754ZM166.707 43.24V48.466C166.707 48.83 166.698 49.22 166.681 49.636C166.663 50.0347 166.637 50.4247 166.603 50.806H166.733C167.097 50.1473 167.547 49.636 168.085 49.272C168.622 48.908 169.255 48.726 169.983 48.726C171.352 48.726 172.418 49.35 173.181 50.598C173.961 51.8287 174.351 53.6227 174.351 55.98C174.351 58.32 173.961 60.1227 173.181 61.388C172.418 62.636 171.361 63.26 170.009 63.26C169.263 63.26 168.631 63.0953 168.111 62.766C167.591 62.4367 167.131 61.9513 166.733 61.31H166.577L166.161 63H164.133V43.24H166.707ZM169.281 50.91C168.293 50.91 167.617 51.3433 167.253 52.21C166.889 53.0767 166.707 54.2553 166.707 55.746V56.188C166.707 57.8347 166.906 59.0653 167.305 59.88C167.721 60.6947 168.397 61.102 169.333 61.102C170.91 61.102 171.699 59.3773 171.699 55.928C171.699 52.5827 170.893 50.91 169.281 50.91ZM183.712 48.7C184.145 48.7 184.561 48.7607 184.96 48.882L184.648 51.482C184.336 51.3607 183.954 51.3 183.504 51.3C182.706 51.3 182.039 51.7073 181.502 52.522C180.982 53.3193 180.722 54.3767 180.722 55.694V63H178.122V48.96H180.124L180.488 51.378H180.618C180.947 50.6153 181.372 49.9827 181.892 49.48C182.412 48.96 183.018 48.7 183.712 48.7ZM197.567 48.96V63H195.513L195.201 61.154H195.045C194.698 61.8473 194.239 62.376 193.667 62.74C193.095 63.0867 192.445 63.26 191.717 63.26C190.417 63.26 189.446 62.818 188.805 61.934C188.181 61.0327 187.869 59.7673 187.869 58.138V48.96H190.469V57.618C190.469 59.8887 191.084 61.024 192.315 61.024C193.338 61.024 194.031 60.6253 194.395 59.828C194.776 59.0307 194.967 57.8433 194.967 56.266V48.96H197.567ZM206.459 48.7C207.863 48.7 208.894 49.116 209.553 49.948C210.229 50.7627 210.567 51.9673 210.567 53.562V63H208.669L208.227 61.076H208.175C207.724 61.804 207.23 62.35 206.693 62.714C206.156 63.078 205.454 63.26 204.587 63.26C203.478 63.26 202.628 62.8613 202.039 62.064C201.467 61.2493 201.181 60.2353 201.181 59.022C201.181 57.6007 201.606 56.5173 202.455 55.772C203.322 55.0093 204.57 54.5933 206.199 54.524L207.993 54.446V53.64C207.993 52.652 207.828 51.9327 207.499 51.482C207.187 51.014 206.71 50.78 206.069 50.78C205.601 50.78 205.116 50.8667 204.613 51.04C204.128 51.196 203.625 51.4213 203.105 51.716L202.325 49.818C202.897 49.4713 203.53 49.2027 204.223 49.012C204.934 48.804 205.679 48.7 206.459 48.7ZM207.993 56.188L206.693 56.266C205.688 56.318 204.96 56.5693 204.509 57.02C204.058 57.4707 203.833 58.1207 203.833 58.97C203.833 59.7327 203.98 60.296 204.275 60.66C204.587 61.024 205.003 61.206 205.523 61.206C206.251 61.206 206.84 60.8853 207.291 60.244C207.759 59.6027 207.993 58.7013 207.993 57.54V56.188ZM220.525 48.7C220.958 48.7 221.374 48.7607 221.773 48.882L221.461 51.482C221.149 51.3607 220.768 51.3 220.317 51.3C219.52 51.3 218.852 51.7073 218.315 52.522C217.795 53.3193 217.535 54.3767 217.535 55.694V63H214.935V48.96H216.937L217.301 51.378H217.431C217.76 50.6153 218.185 49.9827 218.705 49.48C219.225 48.96 219.832 48.7 220.525 48.7ZM223.148 48.96H225.878L227.88 56.682C228.036 57.202 228.166 57.7307 228.27 58.268C228.374 58.788 228.461 59.308 228.53 59.828H228.634C228.704 59.3773 228.79 58.892 228.894 58.372C228.998 57.8347 229.128 57.2713 229.284 56.682L231.234 48.96H233.964L229.44 64.898C229.007 66.3713 228.452 67.4633 227.776 68.174C227.118 68.8847 226.234 69.24 225.124 69.24C224.847 69.24 224.587 69.2227 224.344 69.188C224.102 69.1533 223.859 69.1013 223.616 69.032V66.822C223.79 66.874 223.972 66.9173 224.162 66.952C224.353 66.9867 224.552 67.004 224.76 67.004C225.332 67.004 225.783 66.8047 226.112 66.406C226.442 66.0073 226.719 65.3487 226.944 64.43L227.334 62.922L223.148 48.96ZM252.325 63H242.341V61.05L246.137 55.902C246.899 54.8793 247.506 54.004 247.957 53.276C248.407 52.5307 248.728 51.846 248.919 51.222C249.127 50.5807 249.231 49.8873 249.231 49.142C249.231 48.31 249.023 47.66 248.607 47.192C248.208 46.7067 247.645 46.464 246.917 46.464C246.327 46.464 245.79 46.594 245.305 46.854C244.819 47.0967 244.308 47.4867 243.771 48.024L242.393 46.256C243.086 45.5627 243.797 45.0427 244.525 44.696C245.27 44.3493 246.137 44.176 247.125 44.176C248.598 44.176 249.759 44.618 250.609 45.502C251.458 46.386 251.883 47.5473 251.883 48.986C251.883 49.9393 251.753 50.8233 251.493 51.638C251.233 52.4353 250.843 53.2413 250.323 54.056C249.803 54.8707 249.161 55.7807 248.399 56.786L245.539 60.556V60.66H252.325V63ZM265.987 53.718C265.987 55.694 265.822 57.3927 265.493 58.814C265.181 60.2353 264.652 61.336 263.907 62.116C263.179 62.8787 262.208 63.26 260.995 63.26C259.903 63.26 258.984 62.9393 258.239 62.298C257.511 61.6567 256.956 60.6427 256.575 59.256C256.211 57.852 256.029 56.006 256.029 53.718C256.029 50.5633 256.427 48.1887 257.225 46.594C258.022 44.982 259.279 44.176 260.995 44.176C262.676 44.176 263.924 44.982 264.739 46.594C265.571 48.206 265.987 50.5807 265.987 53.718ZM258.681 53.718C258.681 56.162 258.854 57.982 259.201 59.178C259.547 60.3567 260.145 60.946 260.995 60.946C261.844 60.946 262.442 60.348 262.789 59.152C263.153 57.956 263.335 56.1447 263.335 53.718C263.335 51.3087 263.153 49.4973 262.789 48.284C262.442 47.0707 261.844 46.464 260.995 46.464C260.145 46.464 259.547 47.0707 259.201 48.284C258.854 49.48 258.681 51.2913 258.681 53.718ZM279.389 63H269.405V61.05L273.201 55.902C273.964 54.8793 274.57 54.004 275.021 53.276C275.472 52.5307 275.792 51.846 275.983 51.222C276.191 50.5807 276.295 49.8873 276.295 49.142C276.295 48.31 276.087 47.66 275.671 47.192C275.272 46.7067 274.709 46.464 273.981 46.464C273.392 46.464 272.854 46.594 272.369 46.854C271.884 47.0967 271.372 47.4867 270.835 48.024L269.457 46.256C270.15 45.5627 270.861 45.0427 271.589 44.696C272.334 44.3493 273.201 44.176 274.189 44.176C275.662 44.176 276.824 44.618 277.673 45.502C278.522 46.386 278.947 47.5473 278.947 48.986C278.947 49.9393 278.817 50.8233 278.557 51.638C278.297 52.4353 277.907 53.2413 277.387 54.056C276.867 54.8707 276.226 55.7807 275.463 56.786L272.603 60.556V60.66H279.389V63ZM292.531 48.752C292.531 49.8787 292.245 50.832 291.673 51.612C291.118 52.3747 290.33 52.9207 289.307 53.25V53.328C290.486 53.5533 291.378 54.056 291.985 54.836C292.592 55.5987 292.895 56.5867 292.895 57.8C292.895 59.4293 292.41 60.7467 291.439 61.752C290.468 62.7573 289.047 63.26 287.175 63.26C286.36 63.26 285.624 63.1907 284.965 63.052C284.306 62.9307 283.656 62.714 283.015 62.402V59.906C283.622 60.27 284.263 60.5473 284.939 60.738C285.632 60.9287 286.291 61.024 286.915 61.024C288.042 61.024 288.856 60.7207 289.359 60.114C289.879 59.5073 290.139 58.7013 290.139 57.696C290.139 56.656 289.818 55.876 289.177 55.356C288.553 54.8187 287.582 54.55 286.265 54.55H285.173V52.314H286.317C287.496 52.314 288.38 52.0193 288.969 51.43C289.576 50.8233 289.879 50.026 289.879 49.038C289.879 48.206 289.671 47.5647 289.255 47.114C288.839 46.646 288.241 46.412 287.461 46.412C286.802 46.412 286.213 46.5333 285.693 46.776C285.19 47.0187 284.688 47.3567 284.185 47.79L282.989 45.944C283.665 45.3547 284.384 44.9127 285.147 44.618C285.927 44.3233 286.802 44.176 287.773 44.176C289.281 44.176 290.451 44.592 291.283 45.424C292.115 46.2387 292.531 47.348 292.531 48.752Z" fill="black"/>
<path d="M366.938 62.3672L375.305 54L366.938 45.6328L369.526 43.0625L380.464 54L369.526 64.9375L366.938 62.3672Z" fill="#737373"/>
</g>
<path d="M56.2072 106.965C56.2072 107.502 56.0989 107.97 55.8822 108.369C55.6742 108.768 55.3752 109.08 54.9852 109.305C54.5952 109.522 54.1359 109.63 53.6072 109.63C52.7839 109.63 52.0992 109.491 51.5532 109.214V108.083C51.8479 108.248 52.1772 108.378 52.5412 108.473C52.9052 108.56 53.2519 108.603 53.5812 108.603C54.0666 108.603 54.4392 108.46 54.6992 108.174C54.9592 107.879 55.0892 107.511 55.0892 107.069C55.0892 106.774 55.0372 106.523 54.9332 106.315C54.8379 106.107 54.6732 105.916 54.4392 105.743C54.2139 105.57 53.9019 105.388 53.5032 105.197C53.1132 104.998 52.7752 104.785 52.4892 104.56C52.2119 104.326 51.9996 104.049 51.8522 103.728C51.7049 103.399 51.6312 102.991 51.6312 102.506C51.6312 102.021 51.7352 101.6 51.9432 101.245C52.1512 100.881 52.4416 100.599 52.8142 100.4C53.1869 100.192 53.6159 100.088 54.1012 100.088C54.4826 100.088 54.8422 100.136 55.1802 100.231C55.5269 100.318 55.8346 100.426 56.1032 100.556L55.7522 101.557C55.4836 101.418 55.2106 101.31 54.9332 101.232C54.6559 101.154 54.3786 101.115 54.1012 101.115C53.6679 101.115 53.3342 101.245 53.1002 101.505C52.8749 101.756 52.7622 102.081 52.7622 102.48C52.7622 102.792 52.8099 103.052 52.9052 103.26C53.0006 103.468 53.1566 103.654 53.3732 103.819C53.5986 103.984 53.9019 104.161 54.2832 104.352C54.9246 104.664 55.4056 105.019 55.7262 105.418C56.0469 105.817 56.2072 106.332 56.2072 106.965ZM62.415 109.5L61.661 106.614H59.152L58.411 109.5H57.228L59.776 100.205H61.024L63.598 109.5H62.415ZM61.414 105.587L60.66 102.61C60.6167 102.411 60.569 102.185 60.517 101.934C60.465 101.674 60.426 101.449 60.4 101.258C60.3654 101.483 60.322 101.713 60.27 101.947C60.218 102.181 60.1704 102.402 60.127 102.61L59.386 105.587H61.414ZM70.9851 109.5H69.6461L66.1231 101.895H66.0711C66.0971 102.233 66.1187 102.58 66.1361 102.935C66.1534 103.29 66.1621 103.633 66.1621 103.962V109.5H65.1091V100.218H66.4481L69.9581 107.732H70.0101C69.9927 107.403 69.9754 107.056 69.9581 106.692C69.9407 106.319 69.9321 105.981 69.9321 105.678V100.218H70.9851V109.5Z" fill="#737373"/>
<path d="M103.917 109.5L101.59 101.609H101.538C101.564 101.99 101.582 102.359 101.59 102.714C101.608 103.069 101.616 103.377 101.616 103.637V109.5H100.563V100.218H102.162L104.411 107.81H104.437L106.699 100.218H108.298V109.5H107.206V103.637C107.206 103.368 107.211 103.061 107.219 102.714C107.237 102.367 107.254 101.999 107.271 101.609H107.219L104.879 109.5H103.917ZM116.893 104.846C116.893 105.756 116.78 106.575 116.555 107.303C116.329 108.022 115.978 108.59 115.502 109.006C115.025 109.422 114.418 109.63 113.682 109.63C112.919 109.63 112.299 109.418 111.823 108.993C111.346 108.568 110.999 107.996 110.783 107.277C110.566 106.549 110.458 105.734 110.458 104.833C110.458 103.299 110.722 102.125 111.251 101.31C111.788 100.495 112.598 100.088 113.682 100.088C114.427 100.088 115.034 100.296 115.502 100.712C115.978 101.119 116.329 101.683 116.555 102.402C116.78 103.121 116.893 103.936 116.893 104.846ZM111.628 104.846C111.628 106.068 111.797 107.004 112.135 107.654C112.473 108.304 112.984 108.629 113.669 108.629C114.353 108.629 114.865 108.308 115.203 107.667C115.541 107.026 115.71 106.085 115.71 104.846C115.71 103.615 115.541 102.684 115.203 102.051C114.873 101.41 114.366 101.089 113.682 101.089C112.988 101.089 112.473 101.41 112.135 102.051C111.797 102.692 111.628 103.624 111.628 104.846ZM124.923 109.5H123.584L120.061 101.895H120.009C120.035 102.233 120.056 102.58 120.074 102.935C120.091 103.29 120.1 103.633 120.1 103.962V109.5H119.047V100.218H120.386L123.896 107.732H123.948C123.93 107.403 123.913 107.056 123.896 106.692C123.878 106.319 123.87 105.981 123.87 105.678V100.218H124.923V109.5Z" fill="#737373"/>
<path d="M158.071 109.5H156.953V101.219H154.925V100.218H160.086V101.219H158.071V109.5ZM167.158 100.218V106.484C167.158 107.507 166.928 108.287 166.469 108.824C166.009 109.361 165.325 109.63 164.415 109.63C163.522 109.63 162.842 109.366 162.374 108.837C161.906 108.3 161.672 107.515 161.672 106.484V100.218H162.79V106.497C162.79 107.225 162.928 107.762 163.206 108.109C163.483 108.456 163.89 108.629 164.428 108.629C165.494 108.629 166.027 107.914 166.027 106.484V100.218H167.158ZM173.598 109.5H169.594V100.218H173.598V101.206H170.725V104.157H173.416V105.145H170.725V108.499H173.598V109.5Z" fill="#737373"/>
<path d="M213.88 100.218L211.904 109.5H210.63L209.356 103.533C209.295 103.308 209.239 103.035 209.187 102.714C209.135 102.393 209.087 102.06 209.044 101.713C209.009 101.938 208.966 102.22 208.914 102.558C208.87 102.887 208.814 103.212 208.745 103.533L207.471 109.5H206.223L204.234 100.218H205.365L206.522 105.899C206.6 106.341 206.673 106.761 206.743 107.16C206.812 107.559 206.86 107.905 206.886 108.2C206.938 107.836 206.998 107.455 207.068 107.056C207.137 106.649 207.211 106.263 207.289 105.899L208.511 100.218H209.59L210.812 105.899C210.89 106.263 210.963 106.636 211.033 107.017C211.102 107.398 211.158 107.793 211.202 108.2C211.254 107.81 211.31 107.42 211.371 107.03C211.431 106.631 211.501 106.254 211.579 105.899L212.736 100.218H213.88ZM219.469 109.5H215.465V100.218H219.469V101.206H216.596V104.157H219.287V105.145H216.596V108.499H219.469V109.5ZM227.199 104.755C227.199 106.315 226.887 107.498 226.263 108.304C225.648 109.101 224.76 109.5 223.598 109.5H221.583V100.218H223.728C224.829 100.218 225.683 100.604 226.289 101.375C226.896 102.146 227.199 103.273 227.199 104.755ZM226.029 104.794C226.029 103.589 225.826 102.692 225.418 102.103C225.02 101.505 224.435 101.206 223.663 101.206H222.714V108.512H223.533C224.383 108.512 225.011 108.2 225.418 107.576C225.826 106.952 226.029 106.025 226.029 104.794Z" fill="#737373"/>
<path d="M260.144 109.5H259.026V101.219H256.998V100.218H262.159V101.219H260.144V109.5ZM269.283 109.5H268.165V105.158H264.941V109.5H263.81V100.218H264.941V104.157H268.165V100.218H269.283V109.5ZM277.203 100.218V106.484C277.203 107.507 276.973 108.287 276.514 108.824C276.055 109.361 275.37 109.63 274.46 109.63C273.567 109.63 272.887 109.366 272.419 108.837C271.951 108.3 271.717 107.515 271.717 106.484V100.218H272.835V106.497C272.835 107.225 272.974 107.762 273.251 108.109C273.528 108.456 273.936 108.629 274.473 108.629C275.539 108.629 276.072 107.914 276.072 106.484V100.218H277.203Z" fill="#737373"/>
<path d="M312.868 109.5H311.737V100.218H315.741V101.206H312.868V104.547H315.559V105.548H312.868V109.5ZM319.422 100.218C320.393 100.218 321.108 100.439 321.567 100.881C322.035 101.314 322.269 101.969 322.269 102.844C322.269 103.494 322.139 104.023 321.879 104.43C321.619 104.829 321.255 105.132 320.787 105.34L322.789 109.5H321.528L319.786 105.626H318.681V109.5H317.55V100.218H319.422ZM319.396 101.219H318.681V104.69H319.5C320.584 104.69 321.125 104.092 321.125 102.896C321.125 102.298 320.987 101.869 320.709 101.609C320.432 101.349 319.994 101.219 319.396 101.219ZM326.796 109.5H323.91V108.863L324.794 108.629V101.089L323.91 100.855V100.218H326.796V100.855L325.912 101.089V108.629L326.796 108.863V109.5Z" fill="#737373"/>
<path d="M366.616 106.965C366.616 107.502 366.508 107.97 366.291 108.369C366.083 108.768 365.784 109.08 365.394 109.305C365.004 109.522 364.545 109.63 364.016 109.63C363.193 109.63 362.508 109.491 361.962 109.214V108.083C362.257 108.248 362.586 108.378 362.95 108.473C363.314 108.56 363.661 108.603 363.99 108.603C364.476 108.603 364.848 108.46 365.108 108.174C365.368 107.879 365.498 107.511 365.498 107.069C365.498 106.774 365.446 106.523 365.342 106.315C365.247 106.107 365.082 105.916 364.848 105.743C364.623 105.57 364.311 105.388 363.912 105.197C363.522 104.998 363.184 104.785 362.898 104.56C362.621 104.326 362.409 104.049 362.261 103.728C362.114 103.399 362.04 102.991 362.04 102.506C362.04 102.021 362.144 101.6 362.352 101.245C362.56 100.881 362.851 100.599 363.223 100.4C363.596 100.192 364.025 100.088 364.51 100.088C364.892 100.088 365.251 100.136 365.589 100.231C365.936 100.318 366.244 100.426 366.512 100.556L366.161 101.557C365.893 101.418 365.62 101.31 365.342 101.232C365.065 101.154 364.788 101.115 364.51 101.115C364.077 101.115 363.743 101.245 363.509 101.505C363.284 101.756 363.171 102.081 363.171 102.48C363.171 102.792 363.219 103.052 363.314 103.26C363.41 103.468 363.566 103.654 363.782 103.819C364.008 103.984 364.311 104.161 364.692 104.352C365.334 104.664 365.815 105.019 366.135 105.418C366.456 105.817 366.616 106.332 366.616 106.965ZM372.824 109.5L372.07 106.614H369.561L368.82 109.5H367.637L370.185 100.205H371.433L374.007 109.5H372.824ZM371.823 105.587L371.069 102.61C371.026 102.411 370.978 102.185 370.926 101.934C370.874 101.674 370.835 101.449 370.809 101.258C370.775 101.483 370.731 101.713 370.679 101.947C370.627 102.181 370.58 102.402 370.536 102.61L369.795 105.587H371.823ZM377.4 109.5H376.282V101.219H374.254V100.218H379.415V101.219H377.4V109.5Z" fill="#737373"/>
<path d="M63.8928 164.5H61.2308V154.776C61.2308 154.292 61.2382 153.801 61.2528 153.302C61.2675 152.803 61.2822 152.327 61.2968 151.872C61.1942 152.004 61.0622 152.165 60.9008 152.356C60.7542 152.532 60.5782 152.723 60.3728 152.928L58.9648 154.314L57.4688 152.752L61.5608 148.792H63.8928V164.5Z" fill="#3E3E3E"/>
<path d="M117.219 164.5H108.507V162.586L111.675 158.34C112.335 157.475 112.848 156.741 113.215 156.14C113.582 155.539 113.838 154.989 113.985 154.49C114.146 153.991 114.227 153.463 114.227 152.906C114.227 152.261 114.073 151.755 113.765 151.388C113.457 151.021 113.024 150.838 112.467 150.838C112.012 150.838 111.58 150.948 111.169 151.168C110.773 151.388 110.333 151.747 109.849 152.246L108.507 150.508C109.108 149.863 109.732 149.379 110.377 149.056C111.037 148.733 111.822 148.572 112.731 148.572C114.007 148.572 115.019 148.961 115.767 149.738C116.515 150.501 116.889 151.498 116.889 152.73C116.889 153.507 116.779 154.226 116.559 154.886C116.339 155.546 116.002 156.221 115.547 156.91C115.107 157.599 114.557 158.377 113.897 159.242L111.741 162.102V162.212H117.219V164.5Z" fill="#3E3E3E"/>
<path d="M168.433 152.466C168.433 153.39 168.184 154.182 167.685 154.842C167.201 155.487 166.534 155.957 165.683 156.25V156.316C166.68 156.507 167.443 156.925 167.971 157.57C168.499 158.215 168.763 159.051 168.763 160.078C168.763 161.457 168.33 162.579 167.465 163.444C166.6 164.295 165.353 164.72 163.725 164.72C163.006 164.72 162.361 164.661 161.789 164.544C161.217 164.427 160.645 164.236 160.073 163.972V161.552C160.616 161.86 161.173 162.095 161.745 162.256C162.317 162.417 162.867 162.498 163.395 162.498C164.29 162.498 164.942 162.271 165.353 161.816C165.764 161.361 165.969 160.738 165.969 159.946C165.969 159.125 165.72 158.516 165.221 158.12C164.737 157.709 163.938 157.504 162.823 157.504H161.943V155.326H162.867C163.85 155.326 164.583 155.099 165.067 154.644C165.551 154.189 165.793 153.573 165.793 152.796C165.793 152.165 165.632 151.674 165.309 151.322C164.986 150.97 164.51 150.794 163.879 150.794C163.351 150.794 162.874 150.897 162.449 151.102C162.024 151.307 161.606 151.579 161.195 151.916L160.073 150.068C160.66 149.555 161.283 149.181 161.943 148.946C162.618 148.697 163.395 148.572 164.275 148.572C165.58 148.572 166.6 148.917 167.333 149.606C168.066 150.281 168.433 151.234 168.433 152.466Z" fill="#3E3E3E"/>
<path d="M220.901 161.2H219.251V164.5H216.633V161.2H211.155V159.154L216.633 148.726H219.251V159.044H220.901V161.2ZM216.633 159.044V154.82C216.633 154.571 216.633 154.263 216.633 153.896C216.648 153.529 216.662 153.177 216.677 152.84C216.692 152.503 216.706 152.253 216.721 152.092H216.633C216.53 152.415 216.413 152.723 216.281 153.016C216.164 153.309 216.039 153.588 215.907 153.852L213.421 159.044H216.633Z" fill="#3E3E3E"/>
<path d="M267.759 154.6C268.551 154.6 269.248 154.798 269.849 155.194C270.45 155.59 270.92 156.147 271.257 156.866C271.594 157.57 271.763 158.399 271.763 159.352C271.763 161.009 271.33 162.322 270.465 163.29C269.614 164.243 268.36 164.72 266.703 164.72C265.339 164.72 264.232 164.471 263.381 163.972V161.53C263.836 161.823 264.342 162.058 264.899 162.234C265.471 162.41 266.014 162.498 266.527 162.498C267.348 162.498 267.972 162.227 268.397 161.684C268.822 161.127 269.035 160.401 269.035 159.506C269.035 157.702 268.199 156.8 266.527 156.8C266.204 156.8 265.867 156.837 265.515 156.91C265.178 156.969 264.855 157.049 264.547 157.152L263.579 156.448L264.041 148.792H270.883V151.102H266.307L266.065 154.798C266.344 154.739 266.615 154.695 266.879 154.666C267.158 154.622 267.451 154.6 267.759 154.6Z" fill="#3E3E3E"/>
<path d="M314.639 157.834C314.639 156.543 314.734 155.341 314.925 154.226C315.116 153.111 315.431 152.129 315.871 151.278C316.326 150.427 316.949 149.767 317.741 149.298C318.533 148.814 319.523 148.572 320.711 148.572C321.019 148.572 321.334 148.594 321.657 148.638C321.994 148.667 322.302 148.711 322.581 148.77V150.992C322.332 150.919 322.06 150.867 321.767 150.838C321.474 150.794 321.173 150.772 320.865 150.772C319.589 150.772 318.665 151.241 318.093 152.18C317.521 153.104 317.198 154.439 317.125 156.184H317.235C317.484 155.627 317.829 155.187 318.269 154.864C318.709 154.541 319.244 154.38 319.875 154.38C321.004 154.38 321.877 154.842 322.493 155.766C323.124 156.675 323.439 157.878 323.439 159.374C323.439 160.43 323.27 161.361 322.933 162.168C322.596 162.975 322.112 163.605 321.481 164.06C320.85 164.5 320.08 164.72 319.171 164.72C317.792 164.72 316.692 164.133 315.871 162.96C315.05 161.772 314.639 160.063 314.639 157.834ZM319.127 162.476C319.64 162.476 320.044 162.227 320.337 161.728C320.645 161.229 320.799 160.459 320.799 159.418C320.799 158.494 320.66 157.79 320.381 157.306C320.117 156.807 319.706 156.558 319.149 156.558C318.577 156.558 318.13 156.8 317.807 157.284C317.484 157.768 317.323 158.325 317.323 158.956C317.323 159.513 317.389 160.063 317.521 160.606C317.653 161.149 317.851 161.596 318.115 161.948C318.379 162.3 318.716 162.476 319.127 162.476Z" fill="#3E3E3E"/>
<path d="M367.371 164.5L372.189 151.102H366.029V148.792H374.917V150.596L370.165 164.5H367.371Z" fill="#3E3E3E"/>
<path d="M61.5168 203.572C62.7782 203.572 63.7682 203.902 64.4868 204.562C65.2202 205.222 65.5868 206.139 65.5868 207.312C65.5868 208.192 65.3815 208.955 64.9708 209.6C64.5748 210.245 63.9882 210.795 63.2108 211.25C64.0468 211.807 64.7142 212.416 65.2128 213.076C65.7262 213.721 65.9828 214.513 65.9828 215.452C65.9828 216.743 65.5868 217.777 64.7948 218.554C64.0028 219.331 62.9175 219.72 61.5388 219.72C60.0722 219.72 58.9502 219.346 58.1728 218.598C57.4102 217.85 57.0288 216.823 57.0288 215.518C57.0288 214.579 57.2488 213.773 57.6888 213.098C58.1288 212.409 58.7595 211.807 59.5808 211.294C58.8768 210.766 58.3415 210.179 57.9748 209.534C57.6082 208.889 57.4248 208.148 57.4248 207.312C57.4248 206.139 57.7988 205.222 58.5468 204.562C59.3095 203.902 60.2995 203.572 61.5168 203.572ZM61.4948 205.64C61.0402 205.64 60.6735 205.809 60.3948 206.146C60.1162 206.469 59.9768 206.923 59.9768 207.51C59.9768 208.082 60.1088 208.566 60.3728 208.962C60.6515 209.343 61.0328 209.703 61.5168 210.04C62.0302 209.688 62.4188 209.314 62.6828 208.918C62.9468 208.522 63.0788 208.053 63.0788 207.51C63.0788 206.923 62.9322 206.469 62.6388 206.146C62.3455 205.809 61.9642 205.64 61.4948 205.64ZM59.5588 215.474C59.5588 216.105 59.7202 216.625 60.0428 217.036C60.3802 217.447 60.8642 217.652 61.4948 217.652C62.1402 217.652 62.6242 217.454 62.9468 217.058C63.2695 216.647 63.4308 216.105 63.4308 215.43C63.4308 214.902 63.2842 214.425 62.9908 214C62.6975 213.56 62.2648 213.135 61.6928 212.724L61.3628 212.482C60.7468 212.893 60.2922 213.333 59.9988 213.802C59.7055 214.271 59.5588 214.829 59.5588 215.474Z" fill="#3E3E3E"/>
<path d="M117.351 210.392C117.351 211.727 117.248 212.959 117.043 214.088C116.838 215.217 116.5 216.207 116.031 217.058C115.576 217.894 114.953 218.547 114.161 219.016C113.384 219.485 112.416 219.72 111.257 219.72C110.949 219.72 110.619 219.698 110.267 219.654C109.915 219.625 109.607 219.581 109.343 219.522V217.278C109.886 217.454 110.458 217.542 111.059 217.542C111.998 217.542 112.731 217.307 113.259 216.838C113.802 216.354 114.19 215.709 114.425 214.902C114.674 214.081 114.821 213.157 114.865 212.13H114.755C114.491 212.687 114.146 213.127 113.721 213.45C113.296 213.773 112.753 213.934 112.093 213.934C110.949 213.934 110.069 213.479 109.453 212.57C108.852 211.646 108.551 210.436 108.551 208.94C108.551 207.869 108.72 206.938 109.057 206.146C109.394 205.339 109.878 204.709 110.509 204.254C111.154 203.799 111.939 203.572 112.863 203.572C114.227 203.572 115.312 204.159 116.119 205.332C116.94 206.491 117.351 208.177 117.351 210.392ZM112.885 205.816C112.372 205.816 111.961 206.073 111.653 206.586C111.345 207.085 111.191 207.855 111.191 208.896C111.191 209.82 111.323 210.524 111.587 211.008C111.866 211.492 112.284 211.734 112.841 211.734C113.252 211.734 113.589 211.609 113.853 211.36C114.117 211.111 114.315 210.803 114.447 210.436C114.594 210.055 114.667 209.666 114.667 209.27C114.667 208.933 114.638 208.566 114.579 208.17C114.52 207.774 114.425 207.4 114.293 207.048C114.161 206.681 113.978 206.388 113.743 206.168C113.523 205.933 113.237 205.816 112.885 205.816Z" fill="#3E3E3E"/>
<path d="M161.608 219.5H158.946V209.776C158.946 209.292 158.953 208.801 158.968 208.302C158.982 207.803 158.997 207.327 159.012 206.872C158.909 207.004 158.777 207.165 158.616 207.356C158.469 207.532 158.293 207.723 158.088 207.928L156.68 209.314L155.184 207.752L159.276 203.792H161.608V219.5ZM174.158 211.646C174.158 213.289 174.019 214.719 173.74 215.936C173.461 217.139 172.999 218.07 172.354 218.73C171.723 219.39 170.865 219.72 169.78 219.72C168.328 219.72 167.235 219.082 166.502 217.806C165.783 216.53 165.424 214.477 165.424 211.646C165.424 208.962 165.769 206.945 166.458 205.596C167.162 204.247 168.269 203.572 169.78 203.572C171.261 203.572 172.361 204.254 173.08 205.618C173.799 206.982 174.158 208.991 174.158 211.646ZM168.086 211.646C168.086 213.611 168.203 215.071 168.438 216.024C168.687 216.977 169.135 217.454 169.78 217.454C170.425 217.454 170.873 216.977 171.122 216.024C171.371 215.071 171.496 213.611 171.496 211.646C171.496 209.71 171.371 208.258 171.122 207.29C170.873 206.322 170.425 205.838 169.78 205.838C169.149 205.838 168.709 206.322 168.46 207.29C168.211 208.243 168.086 209.695 168.086 211.646Z" fill="#3E3E3E"/>
<path d="M213.108 219.5H210.446V209.776C210.446 209.292 210.453 208.801 210.468 208.302C210.482 207.803 210.497 207.327 210.512 206.872C210.409 207.004 210.277 207.165 210.116 207.356C209.969 207.532 209.793 207.723 209.588 207.928L208.18 209.314L206.684 207.752L210.776 203.792H213.108V219.5ZM223.678 219.5H221.016V209.776C221.016 209.292 221.023 208.801 221.038 208.302C221.053 207.803 221.067 207.327 221.082 206.872C220.979 207.004 220.847 207.165 220.686 207.356C220.539 207.532 220.363 207.723 220.158 207.928L218.75 209.314L217.254 207.752L221.346 203.792H223.678V219.5Z" fill="#3E3E3E"/>
<path d="M264.608 219.5H261.946V209.776C261.946 209.292 261.953 208.801 261.968 208.302C261.982 207.803 261.997 207.327 262.012 206.872C261.909 207.004 261.777 207.165 261.616 207.356C261.469 207.532 261.293 207.723 261.088 207.928L259.68 209.314L258.184 207.752L262.276 203.792H264.608V219.5ZM277.004 219.5H268.292V217.586L271.46 213.34C272.12 212.475 272.633 211.741 273 211.14C273.367 210.539 273.623 209.989 273.77 209.49C273.931 208.991 274.012 208.463 274.012 207.906C274.012 207.261 273.858 206.755 273.55 206.388C273.242 206.021 272.809 205.838 272.252 205.838C271.797 205.838 271.365 205.948 270.954 206.168C270.558 206.388 270.118 206.747 269.634 207.246L268.292 205.508C268.893 204.863 269.517 204.379 270.162 204.056C270.822 203.733 271.607 203.572 272.516 203.572C273.792 203.572 274.804 203.961 275.552 204.738C276.3 205.501 276.674 206.498 276.674 207.73C276.674 208.507 276.564 209.226 276.344 209.886C276.124 210.546 275.787 211.221 275.332 211.91C274.892 212.599 274.342 213.377 273.682 214.242L271.526 217.102V217.212H277.004V219.5Z" fill="#3E3E3E"/>
<path d="M316.108 219.5H313.446V209.776C313.446 209.292 313.453 208.801 313.468 208.302C313.482 207.803 313.497 207.327 313.512 206.872C313.409 207.004 313.277 207.165 313.116 207.356C312.969 207.532 312.793 207.723 312.588 207.928L311.18 209.314L309.684 207.752L313.776 203.792H316.108V219.5ZM328.218 207.466C328.218 208.39 327.969 209.182 327.47 209.842C326.986 210.487 326.319 210.957 325.468 211.25V211.316C326.465 211.507 327.228 211.925 327.756 212.57C328.284 213.215 328.548 214.051 328.548 215.078C328.548 216.457 328.115 217.579 327.25 218.444C326.385 219.295 325.138 219.72 323.51 219.72C322.791 219.72 322.146 219.661 321.574 219.544C321.002 219.427 320.43 219.236 319.858 218.972V216.552C320.401 216.86 320.958 217.095 321.53 217.256C322.102 217.417 322.652 217.498 323.18 217.498C324.075 217.498 324.727 217.271 325.138 216.816C325.549 216.361 325.754 215.738 325.754 214.946C325.754 214.125 325.505 213.516 325.006 213.12C324.522 212.709 323.723 212.504 322.608 212.504H321.728V210.326H322.652C323.635 210.326 324.368 210.099 324.852 209.644C325.336 209.189 325.578 208.573 325.578 207.796C325.578 207.165 325.417 206.674 325.094 206.322C324.771 205.97 324.295 205.794 323.664 205.794C323.136 205.794 322.659 205.897 322.234 206.102C321.809 206.307 321.391 206.579 320.98 206.916L319.858 205.068C320.445 204.555 321.068 204.181 321.728 203.946C322.403 203.697 323.18 203.572 324.06 203.572C325.365 203.572 326.385 203.917 327.118 204.606C327.851 205.281 328.218 206.234 328.218 207.466Z" fill="#3E3E3E"/>
<path d="M367.608 219.5H364.946V209.776C364.946 209.292 364.953 208.801 364.968 208.302C364.982 207.803 364.997 207.327 365.012 206.872C364.909 207.004 364.777 207.165 364.616 207.356C364.469 207.532 364.293 207.723 364.088 207.928L362.68 209.314L361.184 207.752L365.276 203.792H367.608V219.5ZM380.686 216.2H379.036V219.5H376.418V216.2H370.94V214.154L376.418 203.726H379.036V214.044H380.686V216.2ZM376.418 214.044V209.82C376.418 209.571 376.418 209.263 376.418 208.896C376.433 208.529 376.447 208.177 376.462 207.84C376.477 207.503 376.491 207.253 376.506 207.092H376.418C376.315 207.415 376.198 207.723 376.066 208.016C375.949 208.309 375.824 208.588 375.692 208.852L373.206 214.044H376.418Z" fill="#3E3E3E"/>
<path d="M58.6077 274.5H55.9457V264.776C55.9457 264.292 55.953 263.801 55.9677 263.302C55.9824 262.803 55.997 262.327 56.0117 261.872C55.909 262.004 55.777 262.165 55.6157 262.356C55.469 262.532 55.293 262.723 55.0877 262.928L53.6797 264.314L52.1837 262.752L56.2757 258.792H58.6077V274.5ZM67.044 264.6C67.836 264.6 68.5327 264.798 69.134 265.194C69.7353 265.59 70.2047 266.147 70.542 266.866C70.8793 267.57 71.048 268.399 71.048 269.352C71.048 271.009 70.6153 272.322 69.75 273.29C68.8993 274.243 67.6453 274.72 65.988 274.72C64.624 274.72 63.5167 274.471 62.666 273.972V271.53C63.1207 271.823 63.6267 272.058 64.184 272.234C64.756 272.41 65.2987 272.498 65.812 272.498C66.6333 272.498 67.2567 272.227 67.682 271.684C68.1073 271.127 68.32 270.401 68.32 269.506C68.32 267.702 67.484 266.8 65.812 266.8C65.4893 266.8 65.152 266.837 64.8 266.91C64.4627 266.969 64.14 267.049 63.832 267.152L62.864 266.448L63.326 258.792H70.168V261.102H65.592L65.35 264.798C65.6287 264.739 65.9 264.695 66.164 264.666C66.4427 264.622 66.736 264.6 67.044 264.6Z" fill="#3E3E3E"/>
<path d="M110.108 274.5H107.446V264.776C107.446 264.292 107.453 263.801 107.468 263.302C107.482 262.803 107.497 262.327 107.512 261.872C107.409 262.004 107.277 262.165 107.116 262.356C106.969 262.532 106.793 262.723 106.588 262.928L105.18 264.314L103.684 262.752L107.776 258.792H110.108V274.5ZM113.924 267.834C113.924 266.543 114.019 265.341 114.21 264.226C114.401 263.111 114.716 262.129 115.156 261.278C115.611 260.427 116.234 259.767 117.026 259.298C117.818 258.814 118.808 258.572 119.996 258.572C120.304 258.572 120.619 258.594 120.942 258.638C121.279 258.667 121.587 258.711 121.866 258.77V260.992C121.617 260.919 121.345 260.867 121.052 260.838C120.759 260.794 120.458 260.772 120.15 260.772C118.874 260.772 117.95 261.241 117.378 262.18C116.806 263.104 116.483 264.439 116.41 266.184H116.52C116.769 265.627 117.114 265.187 117.554 264.864C117.994 264.541 118.529 264.38 119.16 264.38C120.289 264.38 121.162 264.842 121.778 265.766C122.409 266.675 122.724 267.878 122.724 269.374C122.724 270.43 122.555 271.361 122.218 272.168C121.881 272.975 121.397 273.605 120.766 274.06C120.135 274.5 119.365 274.72 118.456 274.72C117.077 274.72 115.977 274.133 115.156 272.96C114.335 271.772 113.924 270.063 113.924 267.834ZM118.412 272.476C118.925 272.476 119.329 272.227 119.622 271.728C119.93 271.229 120.084 270.459 120.084 269.418C120.084 268.494 119.945 267.79 119.666 267.306C119.402 266.807 118.991 266.558 118.434 266.558C117.862 266.558 117.415 266.8 117.092 267.284C116.769 267.768 116.608 268.325 116.608 268.956C116.608 269.513 116.674 270.063 116.806 270.606C116.938 271.149 117.136 271.596 117.4 271.948C117.664 272.3 118.001 272.476 118.412 272.476Z" fill="#3E3E3E"/>
<path d="M161.608 274.5H158.946V264.776C158.946 264.292 158.953 263.801 158.968 263.302C158.982 262.803 158.997 262.327 159.012 261.872C158.909 262.004 158.777 262.165 158.616 262.356C158.469 262.532 158.293 262.723 158.088 262.928L156.68 264.314L155.184 262.752L159.276 258.792H161.608V274.5ZM166.656 274.5L171.474 261.102H165.314V258.792H174.202V260.596L169.45 274.5H166.656Z" fill="#3E3E3E"/>
<path d="M213.108 274.5H210.446V264.776C210.446 264.292 210.453 263.801 210.468 263.302C210.482 262.803 210.497 262.327 210.512 261.872C210.409 262.004 210.277 262.165 210.116 262.356C209.969 262.532 209.793 262.723 209.588 262.928L208.18 264.314L206.684 262.752L210.776 258.792H213.108V274.5ZM221.302 258.572C222.563 258.572 223.553 258.902 224.272 259.562C225.005 260.222 225.372 261.139 225.372 262.312C225.372 263.192 225.167 263.955 224.756 264.6C224.36 265.245 223.773 265.795 222.996 266.25C223.832 266.807 224.499 267.416 224.998 268.076C225.511 268.721 225.768 269.513 225.768 270.452C225.768 271.743 225.372 272.777 224.58 273.554C223.788 274.331 222.703 274.72 221.324 274.72C219.857 274.72 218.735 274.346 217.958 273.598C217.195 272.85 216.814 271.823 216.814 270.518C216.814 269.579 217.034 268.773 217.474 268.098C217.914 267.409 218.545 266.807 219.366 266.294C218.662 265.766 218.127 265.179 217.76 264.534C217.393 263.889 217.21 263.148 217.21 262.312C217.21 261.139 217.584 260.222 218.332 259.562C219.095 258.902 220.085 258.572 221.302 258.572ZM221.28 260.64C220.825 260.64 220.459 260.809 220.18 261.146C219.901 261.469 219.762 261.923 219.762 262.51C219.762 263.082 219.894 263.566 220.158 263.962C220.437 264.343 220.818 264.703 221.302 265.04C221.815 264.688 222.204 264.314 222.468 263.918C222.732 263.522 222.864 263.053 222.864 262.51C222.864 261.923 222.717 261.469 222.424 261.146C222.131 260.809 221.749 260.64 221.28 260.64ZM219.344 270.474C219.344 271.105 219.505 271.625 219.828 272.036C220.165 272.447 220.649 272.652 221.28 272.652C221.925 272.652 222.409 272.454 222.732 272.058C223.055 271.647 223.216 271.105 223.216 270.43C223.216 269.902 223.069 269.425 222.776 269C222.483 268.56 222.05 268.135 221.478 267.724L221.148 267.482C220.532 267.893 220.077 268.333 219.784 268.802C219.491 269.271 219.344 269.829 219.344 270.474Z" fill="#3E3E3E"/>
<rect width="41" height="41" transform="translate(247 247)" fill="#26265A"/>
<path d="M264.608 274.5H261.946V264.776C261.946 264.292 261.953 263.801 261.968 263.302C261.982 262.803 261.997 262.327 262.012 261.872C261.909 262.004 261.777 262.165 261.616 262.356C261.469 262.532 261.293 262.723 261.088 262.928L259.68 264.314L258.184 262.752L262.276 258.792H264.608V274.5ZM277.136 265.392C277.136 266.727 277.033 267.959 276.828 269.088C276.623 270.217 276.285 271.207 275.816 272.058C275.361 272.894 274.738 273.547 273.946 274.016C273.169 274.485 272.201 274.72 271.042 274.72C270.734 274.72 270.404 274.698 270.052 274.654C269.7 274.625 269.392 274.581 269.128 274.522V272.278C269.671 272.454 270.243 272.542 270.844 272.542C271.783 272.542 272.516 272.307 273.044 271.838C273.587 271.354 273.975 270.709 274.21 269.902C274.459 269.081 274.606 268.157 274.65 267.13H274.54C274.276 267.687 273.931 268.127 273.506 268.45C273.081 268.773 272.538 268.934 271.878 268.934C270.734 268.934 269.854 268.479 269.238 267.57C268.637 266.646 268.336 265.436 268.336 263.94C268.336 262.869 268.505 261.938 268.842 261.146C269.179 260.339 269.663 259.709 270.294 259.254C270.939 258.799 271.724 258.572 272.648 258.572C274.012 258.572 275.097 259.159 275.904 260.332C276.725 261.491 277.136 263.177 277.136 265.392ZM272.67 260.816C272.157 260.816 271.746 261.073 271.438 261.586C271.13 262.085 270.976 262.855 270.976 263.896C270.976 264.82 271.108 265.524 271.372 266.008C271.651 266.492 272.069 266.734 272.626 266.734C273.037 266.734 273.374 266.609 273.638 266.36C273.902 266.111 274.1 265.803 274.232 265.436C274.379 265.055 274.452 264.666 274.452 264.27C274.452 263.933 274.423 263.566 274.364 263.17C274.305 262.774 274.21 262.4 274.078 262.048C273.946 261.681 273.763 261.388 273.528 261.168C273.308 260.933 273.022 260.816 272.67 260.816Z" fill="#F7F1E3"/>
<path d="M317.934 274.5H309.222V272.586L312.39 268.34C313.05 267.475 313.563 266.741 313.93 266.14C314.296 265.539 314.553 264.989 314.7 264.49C314.861 263.991 314.942 263.463 314.942 262.906C314.942 262.261 314.788 261.755 314.48 261.388C314.172 261.021 313.739 260.838 313.182 260.838C312.727 260.838 312.294 260.948 311.884 261.168C311.488 261.388 311.048 261.747 310.564 262.246L309.222 260.508C309.823 259.863 310.446 259.379 311.092 259.056C311.752 258.733 312.536 258.572 313.446 258.572C314.722 258.572 315.734 258.961 316.482 259.738C317.23 260.501 317.604 261.498 317.604 262.73C317.604 263.507 317.494 264.226 317.274 264.886C317.054 265.546 316.716 266.221 316.262 266.91C315.822 267.599 315.272 268.377 314.612 269.242L312.456 272.102V272.212H317.934V274.5ZM328.658 266.646C328.658 268.289 328.519 269.719 328.24 270.936C327.961 272.139 327.499 273.07 326.854 273.73C326.223 274.39 325.365 274.72 324.28 274.72C322.828 274.72 321.735 274.082 321.002 272.806C320.283 271.53 319.924 269.477 319.924 266.646C319.924 263.962 320.269 261.945 320.958 260.596C321.662 259.247 322.769 258.572 324.28 258.572C325.761 258.572 326.861 259.254 327.58 260.618C328.299 261.982 328.658 263.991 328.658 266.646ZM322.586 266.646C322.586 268.611 322.703 270.071 322.938 271.024C323.187 271.977 323.635 272.454 324.28 272.454C324.925 272.454 325.373 271.977 325.622 271.024C325.871 270.071 325.996 268.611 325.996 266.646C325.996 264.71 325.871 263.258 325.622 262.29C325.373 261.322 324.925 260.838 324.28 260.838C323.649 260.838 323.209 261.322 322.96 262.29C322.711 263.243 322.586 264.695 322.586 266.646Z" fill="#3E3E3E"/>
<path d="M369.434 274.5H360.722V272.586L363.89 268.34C364.55 267.475 365.063 266.741 365.43 266.14C365.796 265.539 366.053 264.989 366.2 264.49C366.361 263.991 366.442 263.463 366.442 262.906C366.442 262.261 366.288 261.755 365.98 261.388C365.672 261.021 365.239 260.838 364.682 260.838C364.227 260.838 363.794 260.948 363.384 261.168C362.988 261.388 362.548 261.747 362.064 262.246L360.722 260.508C361.323 259.863 361.946 259.379 362.592 259.056C363.252 258.733 364.036 258.572 364.946 258.572C366.222 258.572 367.234 258.961 367.982 259.738C368.73 260.501 369.104 261.498 369.104 262.73C369.104 263.507 368.994 264.226 368.774 264.886C368.554 265.546 368.216 266.221 367.762 266.91C367.322 267.599 366.772 268.377 366.112 269.242L363.956 272.102V272.212H369.434V274.5ZM378.178 274.5H375.516V264.776C375.516 264.292 375.523 263.801 375.538 263.302C375.553 262.803 375.567 262.327 375.582 261.872C375.479 262.004 375.347 262.165 375.186 262.356C375.039 262.532 374.863 262.723 374.658 262.928L373.25 264.314L371.754 262.752L375.846 258.792H378.178V274.5Z" fill="#3E3E3E"/>
<path d="M60.4337 329.5H51.7217V327.586L54.8897 323.34C55.5497 322.475 56.063 321.741 56.4297 321.14C56.7964 320.539 57.053 319.989 57.1997 319.49C57.361 318.991 57.4417 318.463 57.4417 317.906C57.4417 317.261 57.2877 316.755 56.9797 316.388C56.6717 316.021 56.239 315.838 55.6817 315.838C55.227 315.838 54.7944 315.948 54.3837 316.168C53.9877 316.388 53.5477 316.747 53.0637 317.246L51.7217 315.508C52.323 314.863 52.9464 314.379 53.5917 314.056C54.2517 313.733 55.0364 313.572 55.9457 313.572C57.2217 313.572 58.2337 313.961 58.9817 314.738C59.7297 315.501 60.1037 316.498 60.1037 317.73C60.1037 318.507 59.9937 319.226 59.7737 319.886C59.5537 320.546 59.2164 321.221 58.7617 321.91C58.3217 322.599 57.7717 323.377 57.1117 324.242L54.9557 327.102V327.212H60.4337V329.5ZM71.004 329.5H62.292V327.586L65.46 323.34C66.12 322.475 66.6333 321.741 67 321.14C67.3667 320.539 67.6233 319.989 67.77 319.49C67.9313 318.991 68.012 318.463 68.012 317.906C68.012 317.261 67.858 316.755 67.55 316.388C67.242 316.021 66.8093 315.838 66.252 315.838C65.7973 315.838 65.3647 315.948 64.954 316.168C64.558 316.388 64.118 316.747 63.634 317.246L62.292 315.508C62.8933 314.863 63.5167 314.379 64.162 314.056C64.822 313.733 65.6067 313.572 66.516 313.572C67.792 313.572 68.804 313.961 69.552 314.738C70.3 315.501 70.674 316.498 70.674 317.73C70.674 318.507 70.564 319.226 70.344 319.886C70.124 320.546 69.7867 321.221 69.332 321.91C68.892 322.599 68.342 323.377 67.682 324.242L65.526 327.102V327.212H71.004V329.5Z" fill="#3E3E3E"/>
<path d="M111.934 329.5H103.222V327.586L106.39 323.34C107.05 322.475 107.563 321.741 107.93 321.14C108.296 320.539 108.553 319.989 108.7 319.49C108.861 318.991 108.942 318.463 108.942 317.906C108.942 317.261 108.788 316.755 108.48 316.388C108.172 316.021 107.739 315.838 107.182 315.838C106.727 315.838 106.294 315.948 105.884 316.168C105.488 316.388 105.048 316.747 104.564 317.246L103.222 315.508C103.823 314.863 104.446 314.379 105.092 314.056C105.752 313.733 106.536 313.572 107.446 313.572C108.722 313.572 109.734 313.961 110.482 314.738C111.23 315.501 111.604 316.498 111.604 317.73C111.604 318.507 111.494 319.226 111.274 319.886C111.054 320.546 110.716 321.221 110.262 321.91C109.822 322.599 109.272 323.377 108.612 324.242L106.456 327.102V327.212H111.934V329.5ZM122.218 317.466C122.218 318.39 121.969 319.182 121.47 319.842C120.986 320.487 120.319 320.957 119.468 321.25V321.316C120.465 321.507 121.228 321.925 121.756 322.57C122.284 323.215 122.548 324.051 122.548 325.078C122.548 326.457 122.115 327.579 121.25 328.444C120.385 329.295 119.138 329.72 117.51 329.72C116.791 329.72 116.146 329.661 115.574 329.544C115.002 329.427 114.43 329.236 113.858 328.972V326.552C114.401 326.86 114.958 327.095 115.53 327.256C116.102 327.417 116.652 327.498 117.18 327.498C118.075 327.498 118.727 327.271 119.138 326.816C119.549 326.361 119.754 325.738 119.754 324.946C119.754 324.125 119.505 323.516 119.006 323.12C118.522 322.709 117.723 322.504 116.608 322.504H115.728V320.326H116.652C117.635 320.326 118.368 320.099 118.852 319.644C119.336 319.189 119.578 318.573 119.578 317.796C119.578 317.165 119.417 316.674 119.094 316.322C118.771 315.97 118.295 315.794 117.664 315.794C117.136 315.794 116.659 315.897 116.234 316.102C115.809 316.307 115.391 316.579 114.98 316.916L113.858 315.068C114.445 314.555 115.068 314.181 115.728 313.946C116.403 313.697 117.18 313.572 118.06 313.572C119.365 313.572 120.385 313.917 121.118 314.606C121.851 315.281 122.218 316.234 122.218 317.466Z" fill="#3E3E3E"/>
<path d="M163.434 329.5H154.722V327.586L157.89 323.34C158.55 322.475 159.063 321.741 159.43 321.14C159.796 320.539 160.053 319.989 160.2 319.49C160.361 318.991 160.442 318.463 160.442 317.906C160.442 317.261 160.288 316.755 159.98 316.388C159.672 316.021 159.239 315.838 158.682 315.838C158.227 315.838 157.794 315.948 157.384 316.168C156.988 316.388 156.548 316.747 156.064 317.246L154.722 315.508C155.323 314.863 155.946 314.379 156.592 314.056C157.252 313.733 158.036 313.572 158.946 313.572C160.222 313.572 161.234 313.961 161.982 314.738C162.73 315.501 163.104 316.498 163.104 317.73C163.104 318.507 162.994 319.226 162.774 319.886C162.554 320.546 162.216 321.221 161.762 321.91C161.322 322.599 160.772 323.377 160.112 324.242L157.956 327.102V327.212H163.434V329.5ZM174.686 326.2H173.036V329.5H170.418V326.2H164.94V324.154L170.418 313.726H173.036V324.044H174.686V326.2ZM170.418 324.044V319.82C170.418 319.571 170.418 319.263 170.418 318.896C170.433 318.529 170.447 318.177 170.462 317.84C170.477 317.503 170.491 317.253 170.506 317.092H170.418C170.315 317.415 170.198 317.723 170.066 318.016C169.949 318.309 169.824 318.588 169.692 318.852L167.206 324.044H170.418Z" fill="#3E3E3E"/>
<path d="M214.934 329.5H206.222V327.586L209.39 323.34C210.05 322.475 210.563 321.741 210.93 321.14C211.296 320.539 211.553 319.989 211.7 319.49C211.861 318.991 211.942 318.463 211.942 317.906C211.942 317.261 211.788 316.755 211.48 316.388C211.172 316.021 210.739 315.838 210.182 315.838C209.727 315.838 209.294 315.948 208.884 316.168C208.488 316.388 208.048 316.747 207.564 317.246L206.222 315.508C206.823 314.863 207.446 314.379 208.092 314.056C208.752 313.733 209.536 313.572 210.446 313.572C211.722 313.572 212.734 313.961 213.482 314.738C214.23 315.501 214.604 316.498 214.604 317.73C214.604 318.507 214.494 319.226 214.274 319.886C214.054 320.546 213.716 321.221 213.262 321.91C212.822 322.599 212.272 323.377 211.612 324.242L209.456 327.102V327.212H214.934V329.5ZM221.544 319.6C222.336 319.6 223.033 319.798 223.634 320.194C224.235 320.59 224.705 321.147 225.042 321.866C225.379 322.57 225.548 323.399 225.548 324.352C225.548 326.009 225.115 327.322 224.25 328.29C223.399 329.243 222.145 329.72 220.488 329.72C219.124 329.72 218.017 329.471 217.166 328.972V326.53C217.621 326.823 218.127 327.058 218.684 327.234C219.256 327.41 219.799 327.498 220.312 327.498C221.133 327.498 221.757 327.227 222.182 326.684C222.607 326.127 222.82 325.401 222.82 324.506C222.82 322.702 221.984 321.8 220.312 321.8C219.989 321.8 219.652 321.837 219.3 321.91C218.963 321.969 218.64 322.049 218.332 322.152L217.364 321.448L217.826 313.792H224.668V316.102H220.092L219.85 319.798C220.129 319.739 220.4 319.695 220.664 319.666C220.943 319.622 221.236 319.6 221.544 319.6Z" fill="#3E3E3E"/>
<path d="M266.434 329.5H257.722V327.586L260.89 323.34C261.55 322.475 262.063 321.741 262.43 321.14C262.796 320.539 263.053 319.989 263.2 319.49C263.361 318.991 263.442 318.463 263.442 317.906C263.442 317.261 263.288 316.755 262.98 316.388C262.672 316.021 262.239 315.838 261.682 315.838C261.227 315.838 260.794 315.948 260.384 316.168C259.988 316.388 259.548 316.747 259.064 317.246L257.722 315.508C258.323 314.863 258.946 314.379 259.592 314.056C260.252 313.733 261.036 313.572 261.946 313.572C263.222 313.572 264.234 313.961 264.982 314.738C265.73 315.501 266.104 316.498 266.104 317.73C266.104 318.507 265.994 319.226 265.774 319.886C265.554 320.546 265.216 321.221 264.762 321.91C264.322 322.599 263.772 323.377 263.112 324.242L260.956 327.102V327.212H266.434V329.5ZM268.424 322.834C268.424 321.543 268.519 320.341 268.71 319.226C268.901 318.111 269.216 317.129 269.656 316.278C270.111 315.427 270.734 314.767 271.526 314.298C272.318 313.814 273.308 313.572 274.496 313.572C274.804 313.572 275.119 313.594 275.442 313.638C275.779 313.667 276.087 313.711 276.366 313.77V315.992C276.117 315.919 275.845 315.867 275.552 315.838C275.259 315.794 274.958 315.772 274.65 315.772C273.374 315.772 272.45 316.241 271.878 317.18C271.306 318.104 270.983 319.439 270.91 321.184H271.02C271.269 320.627 271.614 320.187 272.054 319.864C272.494 319.541 273.029 319.38 273.66 319.38C274.789 319.38 275.662 319.842 276.278 320.766C276.909 321.675 277.224 322.878 277.224 324.374C277.224 325.43 277.055 326.361 276.718 327.168C276.381 327.975 275.897 328.605 275.266 329.06C274.635 329.5 273.865 329.72 272.956 329.72C271.577 329.72 270.477 329.133 269.656 327.96C268.835 326.772 268.424 325.063 268.424 322.834ZM272.912 327.476C273.425 327.476 273.829 327.227 274.122 326.728C274.43 326.229 274.584 325.459 274.584 324.418C274.584 323.494 274.445 322.79 274.166 322.306C273.902 321.807 273.491 321.558 272.934 321.558C272.362 321.558 271.915 321.8 271.592 322.284C271.269 322.768 271.108 323.325 271.108 323.956C271.108 324.513 271.174 325.063 271.306 325.606C271.438 326.149 271.636 326.596 271.9 326.948C272.164 327.3 272.501 327.476 272.912 327.476Z" fill="#3E3E3E"/>
<path d="M317.934 329.5H309.222V327.586L312.39 323.34C313.05 322.475 313.563 321.741 313.93 321.14C314.296 320.539 314.553 319.989 314.7 319.49C314.861 318.991 314.942 318.463 314.942 317.906C314.942 317.261 314.788 316.755 314.48 316.388C314.172 316.021 313.739 315.838 313.182 315.838C312.727 315.838 312.294 315.948 311.884 316.168C311.488 316.388 311.048 316.747 310.564 317.246L309.222 315.508C309.823 314.863 310.446 314.379 311.092 314.056C311.752 313.733 312.536 313.572 313.446 313.572C314.722 313.572 315.734 313.961 316.482 314.738C317.23 315.501 317.604 316.498 317.604 317.73C317.604 318.507 317.494 319.226 317.274 319.886C317.054 320.546 316.716 321.221 316.262 321.91C315.822 322.599 315.272 323.377 314.612 324.242L312.456 327.102V327.212H317.934V329.5ZM321.156 329.5L325.974 316.102H319.814V313.792H328.702V315.596L323.95 329.5H321.156Z" fill="#3E3E3E"/>
<path d="M369.434 329.5H360.722V327.586L363.89 323.34C364.55 322.475 365.063 321.741 365.43 321.14C365.796 320.539 366.053 319.989 366.2 319.49C366.361 318.991 366.442 318.463 366.442 317.906C366.442 317.261 366.288 316.755 365.98 316.388C365.672 316.021 365.239 315.838 364.682 315.838C364.227 315.838 363.794 315.948 363.384 316.168C362.988 316.388 362.548 316.747 362.064 317.246L360.722 315.508C361.323 314.863 361.946 314.379 362.592 314.056C363.252 313.733 364.036 313.572 364.946 313.572C366.222 313.572 367.234 313.961 367.982 314.738C368.73 315.501 369.104 316.498 369.104 317.73C369.104 318.507 368.994 319.226 368.774 319.886C368.554 320.546 368.216 321.221 367.762 321.91C367.322 322.599 366.772 323.377 366.112 324.242L363.956 327.102V327.212H369.434V329.5ZM375.802 313.572C377.063 313.572 378.053 313.902 378.772 314.562C379.505 315.222 379.872 316.139 379.872 317.312C379.872 318.192 379.667 318.955 379.256 319.6C378.86 320.245 378.273 320.795 377.496 321.25C378.332 321.807 378.999 322.416 379.498 323.076C380.011 323.721 380.268 324.513 380.268 325.452C380.268 326.743 379.872 327.777 379.08 328.554C378.288 329.331 377.203 329.72 375.824 329.72C374.357 329.72 373.235 329.346 372.458 328.598C371.695 327.85 371.314 326.823 371.314 325.518C371.314 324.579 371.534 323.773 371.974 323.098C372.414 322.409 373.045 321.807 373.866 321.294C373.162 320.766 372.627 320.179 372.26 319.534C371.893 318.889 371.71 318.148 371.71 317.312C371.71 316.139 372.084 315.222 372.832 314.562C373.595 313.902 374.585 313.572 375.802 313.572ZM375.78 315.64C375.325 315.64 374.959 315.809 374.68 316.146C374.401 316.469 374.262 316.923 374.262 317.51C374.262 318.082 374.394 318.566 374.658 318.962C374.937 319.343 375.318 319.703 375.802 320.04C376.315 319.688 376.704 319.314 376.968 318.918C377.232 318.522 377.364 318.053 377.364 317.51C377.364 316.923 377.217 316.469 376.924 316.146C376.631 315.809 376.249 315.64 375.78 315.64ZM373.844 325.474C373.844 326.105 374.005 326.625 374.328 327.036C374.665 327.447 375.149 327.652 375.78 327.652C376.425 327.652 376.909 327.454 377.232 327.058C377.555 326.647 377.716 326.105 377.716 325.43C377.716 324.902 377.569 324.425 377.276 324C376.983 323.56 376.55 323.135 375.978 322.724L375.648 322.482C375.032 322.893 374.577 323.333 374.284 323.802C373.991 324.271 373.844 324.829 373.844 325.474Z" fill="#3E3E3E"/>
<path d="M60.3294 384.5H51.6174V382.586L54.7854 378.34C55.4454 377.475 55.9588 376.741 56.3254 376.14C56.6921 375.539 56.9488 374.989 57.0954 374.49C57.2568 373.991 57.3374 373.463 57.3374 372.906C57.3374 372.261 57.1834 371.755 56.8754 371.388C56.5674 371.021 56.1348 370.838 55.5774 370.838C55.1228 370.838 54.6901 370.948 54.2794 371.168C53.8834 371.388 53.4434 371.747 52.9594 372.246L51.6174 370.508C52.2188 369.863 52.8421 369.379 53.4874 369.056C54.1474 368.733 54.9321 368.572 55.8414 368.572C57.1174 368.572 58.1294 368.961 58.8774 369.738C59.6254 370.501 59.9994 371.498 59.9994 372.73C59.9994 373.507 59.8894 374.226 59.6694 374.886C59.4494 375.546 59.1121 376.221 58.6574 376.91C58.2174 377.599 57.6674 378.377 57.0074 379.242L54.8514 382.102V382.212H60.3294V384.5ZM71.0318 375.392C71.0318 376.727 70.9291 377.959 70.7238 379.088C70.5184 380.217 70.1811 381.207 69.7118 382.058C69.2571 382.894 68.6338 383.547 67.8418 384.016C67.0644 384.485 66.0964 384.72 64.9378 384.72C64.6298 384.72 64.2998 384.698 63.9478 384.654C63.5958 384.625 63.2878 384.581 63.0238 384.522V382.278C63.5664 382.454 64.1384 382.542 64.7398 382.542C65.6784 382.542 66.4118 382.307 66.9398 381.838C67.4824 381.354 67.8711 380.709 68.1058 379.902C68.3551 379.081 68.5018 378.157 68.5458 377.13H68.4358C68.1718 377.687 67.8271 378.127 67.4018 378.45C66.9764 378.773 66.4338 378.934 65.7738 378.934C64.6298 378.934 63.7498 378.479 63.1338 377.57C62.5324 376.646 62.2318 375.436 62.2318 373.94C62.2318 372.869 62.4004 371.938 62.7378 371.146C63.0751 370.339 63.5591 369.709 64.1898 369.254C64.8351 368.799 65.6198 368.572 66.5438 368.572C67.9078 368.572 68.9931 369.159 69.7998 370.332C70.6211 371.491 71.0318 373.177 71.0318 375.392ZM66.5658 370.816C66.0524 370.816 65.6418 371.073 65.3338 371.586C65.0258 372.085 64.8718 372.855 64.8718 373.896C64.8718 374.82 65.0038 375.524 65.2678 376.008C65.5464 376.492 65.9644 376.734 66.5218 376.734C66.9324 376.734 67.2698 376.609 67.5338 376.36C67.7978 376.111 67.9958 375.803 68.1278 375.436C68.2744 375.055 68.3478 374.666 68.3478 374.27C68.3478 373.933 68.3184 373.566 68.2598 373.17C68.2011 372.774 68.1058 372.4 67.9738 372.048C67.8418 371.681 67.6584 371.388 67.4238 371.168C67.2038 370.933 66.9178 370.816 66.5658 370.816Z" fill="#3E3E3E"/>
<path d="M111.648 372.466C111.648 373.39 111.398 374.182 110.9 374.842C110.416 375.487 109.748 375.957 108.898 376.25V376.316C109.895 376.507 110.658 376.925 111.186 377.57C111.714 378.215 111.978 379.051 111.978 380.078C111.978 381.457 111.545 382.579 110.68 383.444C109.814 384.295 108.568 384.72 106.94 384.72C106.221 384.72 105.576 384.661 105.004 384.544C104.432 384.427 103.86 384.236 103.288 383.972V381.552C103.83 381.86 104.388 382.095 104.96 382.256C105.532 382.417 106.082 382.498 106.61 382.498C107.504 382.498 108.157 382.271 108.568 381.816C108.978 381.361 109.184 380.738 109.184 379.946C109.184 379.125 108.934 378.516 108.436 378.12C107.952 377.709 107.152 377.504 106.038 377.504H105.158V375.326H106.082C107.064 375.326 107.798 375.099 108.282 374.644C108.766 374.189 109.008 373.573 109.008 372.796C109.008 372.165 108.846 371.674 108.524 371.322C108.201 370.97 107.724 370.794 107.094 370.794C106.566 370.794 106.089 370.897 105.664 371.102C105.238 371.307 104.82 371.579 104.41 371.916L103.288 370.068C103.874 369.555 104.498 369.181 105.158 368.946C105.832 368.697 106.61 368.572 107.49 368.572C108.795 368.572 109.814 368.917 110.548 369.606C111.281 370.281 111.648 371.234 111.648 372.466ZM122.658 376.646C122.658 378.289 122.519 379.719 122.24 380.936C121.961 382.139 121.499 383.07 120.854 383.73C120.223 384.39 119.365 384.72 118.28 384.72C116.828 384.72 115.735 384.082 115.002 382.806C114.283 381.53 113.924 379.477 113.924 376.646C113.924 373.962 114.269 371.945 114.958 370.596C115.662 369.247 116.769 368.572 118.28 368.572C119.761 368.572 120.861 369.254 121.58 370.618C122.299 371.982 122.658 373.991 122.658 376.646ZM116.586 376.646C116.586 378.611 116.703 380.071 116.938 381.024C117.187 381.977 117.635 382.454 118.28 382.454C118.925 382.454 119.373 381.977 119.622 381.024C119.871 380.071 119.996 378.611 119.996 376.646C119.996 374.71 119.871 373.258 119.622 372.29C119.373 371.322 118.925 370.838 118.28 370.838C117.649 370.838 117.209 371.322 116.96 372.29C116.711 373.243 116.586 374.695 116.586 376.646Z" fill="#3E3E3E"/>
<path d="M163.252 372.466C163.252 373.39 163.003 374.182 162.504 374.842C162.02 375.487 161.353 375.957 160.502 376.25V376.316C161.499 376.507 162.262 376.925 162.79 377.57C163.318 378.215 163.582 379.051 163.582 380.078C163.582 381.457 163.149 382.579 162.284 383.444C161.419 384.295 160.172 384.72 158.544 384.72C157.825 384.72 157.18 384.661 156.608 384.544C156.036 384.427 155.464 384.236 154.892 383.972V381.552C155.435 381.86 155.992 382.095 156.564 382.256C157.136 382.417 157.686 382.498 158.214 382.498C159.109 382.498 159.761 382.271 160.172 381.816C160.583 381.361 160.788 380.738 160.788 379.946C160.788 379.125 160.539 378.516 160.04 378.12C159.556 377.709 158.757 377.504 157.642 377.504H156.762V375.326H157.686C158.669 375.326 159.402 375.099 159.886 374.644C160.37 374.189 160.612 373.573 160.612 372.796C160.612 372.165 160.451 371.674 160.128 371.322C159.805 370.97 159.329 370.794 158.698 370.794C158.17 370.794 157.693 370.897 157.268 371.102C156.843 371.307 156.425 371.579 156.014 371.916L154.892 370.068C155.479 369.555 156.102 369.181 156.762 368.946C157.437 368.697 158.214 368.572 159.094 368.572C160.399 368.572 161.419 368.917 162.152 369.606C162.885 370.281 163.252 371.234 163.252 372.466ZM172.282 384.5H169.62V374.776C169.62 374.292 169.628 373.801 169.642 373.302C169.657 372.803 169.672 372.327 169.686 371.872C169.584 372.004 169.452 372.165 169.29 372.356C169.144 372.532 168.968 372.723 168.762 372.928L167.354 374.314L165.858 372.752L169.95 368.792H172.282V384.5Z" fill="#3E3E3E"/>
</g>
<defs>
<filter id="filter0_d_140_412" x="0.0225809" y="0.945162" width="437.361" height="474.361" filterUnits="userSpaceOnUse" color-interpolation-filters="sRGB">
<feFlood flood-opacity="0" result="BackgroundImageFix"/>
<feColorMatrix in="SourceAlpha" type="matrix" values="0 0 0 0 0 0 0 0 0 0 0 0 0 0 0 0 0 0 127 0" result="hardAlpha"/>
<feOffset dx="2.70323" dy="21.6258"/>
<feGaussianBlur stdDeviation="12.8403"/>
<feColorMatrix type="matrix" values="0 0 0 0 0 0 0 0 0 0 0 0 0 0 0 0 0 0 0.09 0"/>
<feBlend mode="normal" in2="BackgroundImageFix" result="effect1_dropShadow_140_412"/>
<feBlend mode="normal" in="SourceGraphic" in2="effect1_dropShadow_140_412" result="shape"/>
</filter>
<clipPath id="clip0_140_412">
<rect width="350" height="38" fill="white" transform="translate(41 35)"/>
</clipPath>
</defs>
</svg>
