<svg width="26" height="32" viewBox="0 0 26 32" fill="none" xmlns="http://www.w3.org/2000/svg">
<path d="M13 0C6.24531 0 0.75 5.49531 0.75 12.25C0.75 14.4121 1.32125 16.5378 2.40194 18.3972C2.65504 18.8325 2.93463 19.2518 3.23912 19.6528L12.4677 32H13.5322L22.7609 19.6529C23.0653 19.2518 23.3449 18.8325 23.5981 18.3972C24.6787 16.5378 25.25 14.4121 25.25 12.25C25.25 5.49531 19.7547 0 13 0ZM13 16.3125C10.7599 16.3125 8.9375 14.4901 8.9375 12.25C8.9375 10.0099 10.7599 8.1875 13 8.1875C15.2401 8.1875 17.0625 10.0099 17.0625 12.25C17.0625 14.4901 15.2401 16.3125 13 16.3125Z" fill="black"/>
</svg>
