<svg width="179" height="146" viewBox="0 0 179 146" fill="none" xmlns="http://www.w3.org/2000/svg">
<line x1="155" y1="49.5576" x2="175.022" y2="49.5576" stroke="black" stroke-width="3"/>
<line x1="155" y1="55.5642" x2="175.022" y2="55.5642" stroke="black" stroke-width="3"/>
<line y1="49.5576" x2="20.0225" y2="49.5576" stroke="black" stroke-width="3"/>
<line y1="55.5642" x2="20.0225" y2="55.5642" stroke="black" stroke-width="3"/>
<circle cx="165" cy="42.845" r="3" fill="black"/>
<circle cx="10" cy="42.845" r="3" fill="black"/>
<path d="M63.3498 73C62.8178 71.404 62.1038 69.402 61.2078 66.994H47.8098L45.7098 73H35.1678L46.9278 42.508H62.3838L74.2278 73H63.3498ZM58.8138 60.442C57.7498 57.502 56.6578 54.562 55.5378 51.622L54.5298 48.892C53.5498 51.44 52.1078 55.29 50.2038 60.442H58.8138ZM105.995 52.672C105.995 55.108 105.393 57.166 104.189 58.846C103.013 60.526 100.983 61.744 98.0989 62.5C98.4349 62.948 98.6729 63.298 98.8129 63.55L105.617 73H94.1929C92.9609 70.704 91.0149 67.456 88.3549 63.256H82.1809V73H72.2689C72.4929 67.568 72.6049 62.486 72.6049 57.754C72.6049 53.022 72.4929 47.94 72.2689 42.508H82.1809V42.55H90.7909C96.4469 42.55 100.395 43.46 102.635 45.28C104.875 47.1 105.995 49.564 105.995 52.672ZM82.1809 50.614V55.402H87.8509C90.2309 55.402 92.0229 55.332 93.2269 55.192C94.4589 55.024 95.3129 54.772 95.7889 54.436C96.2649 54.1 96.5029 53.61 96.5029 52.966C96.5029 52.35 96.2789 51.874 95.8309 51.538C95.3829 51.202 94.5429 50.964 93.3109 50.824C92.0789 50.684 90.2589 50.614 87.8509 50.614H82.1809ZM139.133 51.328C134.737 51.188 130.467 51.104 126.323 51.076V73H115.823V51.076C111.651 51.104 107.395 51.188 103.055 51.328V42.508H139.133V51.328Z" fill="black"/>
<path d="M69.1762 86.062C68.6637 86.062 68.2365 86.2435 67.8948 86.6066C67.5531 86.9697 67.2968 87.4716 67.1259 88.1123C66.9551 88.753 66.8696 89.4792 66.8696 90.2908C66.8696 91.6149 67.0725 92.6454 67.4783 93.3822C67.8948 94.1191 68.4875 94.4875 69.2563 94.4875C69.6301 94.4875 69.9878 94.4341 70.3295 94.3273C70.6712 94.2205 71.013 94.0924 71.3547 93.9429V95.6248C70.6606 95.9771 69.881 96.1533 69.016 96.1533C67.6492 96.1533 66.608 95.6354 65.8925 94.5996C65.1877 93.5531 64.8354 92.1115 64.8354 90.2747C64.8354 89.1535 64.9955 88.1497 65.3159 87.2634C65.6469 86.3663 66.1275 85.6669 66.7575 85.165C67.3982 84.6524 68.1778 84.3961 69.0961 84.3961C70.0465 84.3961 70.9115 84.6257 71.6911 85.0849L71.0824 86.6707C70.794 86.4892 70.4897 86.345 70.1693 86.2382C69.8597 86.1207 69.5286 86.062 69.1762 86.062ZM78.4506 95.9932H73.2128V84.5563H78.4506V86.2062H75.183V89.2176H78.2264V90.8674H75.183V94.3273H78.4506V95.9932ZM88.2602 95.9932H85.8735L82.0452 87.3595H81.9811C82.0131 87.872 82.0398 88.3579 82.0612 88.8171C82.0826 89.2763 82.0986 89.7034 82.1093 90.0985V95.9932H80.2832V84.5563H82.6539L86.4662 93.0459H86.5302C86.5089 92.5653 86.4822 92.0955 86.4501 91.6363C86.4288 91.1771 86.4181 90.7553 86.4181 90.3708V84.5563H88.2602V95.9932ZM93.9096 95.9932H91.9554V86.2222H89.6008V84.5563H96.2483V86.2222H93.9096V95.9932ZM102.853 95.9932H97.6152V84.5563H102.853V86.2062H99.5854V89.2176H102.629V90.8674H99.5854V94.3273H102.853V95.9932ZM107.329 84.5563C108.589 84.5563 109.523 84.834 110.132 85.3892C110.751 85.9339 111.061 86.7561 111.061 87.856C111.061 88.6142 110.911 89.2442 110.612 89.7461C110.313 90.248 109.886 90.6432 109.331 90.9315L111.846 95.9932H109.651L107.617 91.412H106.656V95.9932H104.686V84.5563H107.329ZM107.297 86.2062H106.656V89.8583H107.361C108.493 89.8583 109.059 89.2229 109.059 87.9521C109.059 87.3328 108.914 86.8896 108.626 86.6226C108.338 86.345 107.895 86.2062 107.297 86.2062Z" fill="black"/>
<path d="M28.0281 62.5708C28.0281 29.671 54.6986 3.00051 87.5984 3.00051C120.498 3.00051 147.169 29.671 147.169 62.5708C147.169 95.4706 120.498 122.141 87.5984 122.141C54.6986 122.141 28.0281 95.4706 28.0281 62.5708Z" stroke="black" stroke-width="6"/>
<path d="M5.94724 71.8825L8.37242 71.091L8.16968 68.8416L5.63343 68.4007L5.51481 67.0846L14.2897 68.7675L14.4224 70.2392L6.06586 73.1987L5.94724 71.8825ZM9.45207 70.7591L11.9709 69.9366C12.1743 69.8736 12.3937 69.8094 12.629 69.744C12.873 69.686 13.0934 69.6338 13.2902 69.5873C13.0717 69.5711 12.8444 69.5476 12.6085 69.5167C12.3725 69.4858 12.1446 69.4542 11.9246 69.4222L9.29355 69.0003L9.45207 70.7591Z" fill="black"/>
<path d="M5.94724 71.8825L5.84952 71.5977L5.62694 71.6703L5.64804 71.9044L5.94724 71.8825ZM8.37242 71.091L8.47014 71.3759L8.69272 71.3032L8.67162 71.0691L8.37242 71.091ZM8.16968 68.8416L8.46888 68.8197L8.44788 68.5867L8.21646 68.5465L8.16968 68.8416ZM5.63343 68.4007L5.33423 68.4226L5.35523 68.6556L5.58665 68.6958L5.63343 68.4007ZM5.51481 67.0846L5.56678 66.7904L5.18044 66.7163L5.21561 67.1064L5.51481 67.0846ZM14.2897 68.7675L14.5889 68.7456L14.5683 68.5168L14.3417 68.4733L14.2897 68.7675ZM14.4224 70.2392L14.5271 70.5217L14.7421 70.4455L14.7216 70.2173L14.4224 70.2392ZM6.06586 73.1987L5.76666 73.2206L5.80192 73.6117L6.17057 73.4812L6.06586 73.1987ZM9.45207 70.7591L9.15287 70.781L9.18724 71.1624L9.54983 71.044L9.45207 70.7591ZM11.9709 69.9366L11.8774 69.6504L11.8732 69.6518L11.9709 69.9366ZM12.629 69.744L12.5547 69.4523L12.5439 69.4553L12.629 69.744ZM13.2902 69.5873L13.3641 69.8788L13.3074 69.2885L13.2902 69.5873ZM12.6085 69.5167L12.6427 69.2197L12.6085 69.5167ZM11.9246 69.4222L11.8817 69.718L11.886 69.7186L11.9246 69.4222ZM9.29355 69.0003L9.3364 68.7045L8.96028 68.6442L8.99435 69.0222L9.29355 69.0003ZM6.04497 72.1674L8.47014 71.3759L8.2747 70.8061L5.84952 71.5977L6.04497 72.1674ZM8.67162 71.0691L8.46888 68.8197L7.87048 68.8634L8.07322 71.1129L8.67162 71.0691ZM8.21646 68.5465L5.68021 68.1056L5.58665 68.6958L8.1229 69.1367L8.21646 68.5465ZM5.93263 68.3788L5.81401 67.0627L5.21561 67.1064L5.33423 68.4226L5.93263 68.3788ZM5.46283 67.3787L14.2377 69.0616L14.3417 68.4733L5.56678 66.7904L5.46283 67.3787ZM13.9905 68.7894L14.1232 70.261L14.7216 70.2173L14.5889 68.7456L13.9905 68.7894ZM14.3177 69.9567L5.96116 72.9162L6.17057 73.4812L14.5271 70.5217L14.3177 69.9567ZM6.36507 73.1768L6.24644 71.8607L5.64804 71.9044L5.76666 73.2206L6.36507 73.1768ZM9.54983 71.044L12.0687 70.2215L11.8732 69.6518L9.35431 70.4743L9.54983 71.044ZM12.0645 70.2229C12.2647 70.1608 12.4812 70.0974 12.7141 70.0327L12.5439 69.4553C12.3061 69.5214 12.084 69.5864 11.8774 69.6504L12.0645 70.2229ZM12.7032 70.0355C12.9471 69.9775 13.1674 69.9253 13.3641 69.8788L13.2164 69.2957C13.0194 69.3422 12.7989 69.3945 12.5547 69.4525L12.7032 70.0355ZM13.3074 69.2885C13.095 69.2728 12.8735 69.2499 12.6427 69.2197L12.5742 69.8137C12.8154 69.8453 13.0483 69.8694 13.273 69.886L13.3074 69.2885ZM12.6427 69.2197C12.4081 69.1889 12.1816 69.1576 11.9632 69.1257L11.886 69.7186C12.1075 69.7509 12.3369 69.7826 12.5742 69.8137L12.6427 69.2197ZM11.9674 69.1264L9.3364 68.7045L9.25069 69.296L11.8817 69.7179L11.9674 69.1264ZM8.99435 69.0222L9.15287 70.781L9.75127 70.7373L9.59275 68.9784L8.99435 69.0222Z" fill="black"/>
<path d="M15.8464 80.1995C16.0934 81.0868 16.0768 81.7876 15.7965 82.3019C15.5183 82.824 14.9808 83.1749 14.184 83.3549C13.6137 83.4837 13.1138 83.4776 12.6843 83.3368C12.2627 83.1942 11.8934 82.9414 11.5764 82.5783L8.3493 85.2137L7.97559 83.8711L10.9753 81.5823L10.7402 80.7375L7.31837 81.5101L6.98332 80.3065L15.3503 78.4171L15.8464 80.1995ZM14.797 80.4118L14.6424 79.8563L11.7245 80.5152L11.8985 81.1402C12.1498 82.0429 12.7832 82.3796 13.7988 82.1503C14.291 82.0391 14.6142 81.8431 14.7685 81.5622C14.9229 81.2814 14.9324 80.8979 14.797 80.4118Z" fill="black"/>
<path d="M15.7965 82.3019L15.5272 82.1538L15.5259 82.1562L15.7965 82.3019ZM12.6843 83.3368L12.5963 83.6165L12.5991 83.6174L12.6843 83.3368ZM11.5764 82.5783L11.8037 82.3917L11.6031 82.1619L11.3759 82.3474L11.5764 82.5783ZM8.3493 85.2137L8.05667 85.2797L8.18539 85.7421L8.54984 85.4445L8.3493 85.2137ZM7.97559 83.8711L7.78241 83.6345L7.63088 83.7501L7.68296 83.9372L7.97559 83.8711ZM10.9753 81.5823L11.1685 81.819L11.3201 81.7034L11.268 81.5162L10.9753 81.5823ZM10.7402 80.7375L11.0328 80.6714L10.9523 80.3824L10.6597 80.4485L10.7402 80.7375ZM7.31837 81.5101L7.02574 81.5762L7.10619 81.8652L7.39882 81.7992L7.31837 81.5101ZM6.98332 80.3065L6.90287 80.0175L6.61023 80.0836L6.69069 80.3726L6.98332 80.3065ZM15.3503 78.4171L15.6429 78.3511L15.5625 78.0621L15.2698 78.1281L15.3503 78.4171ZM14.6424 79.8563L14.935 79.7902L14.8546 79.5012L14.5619 79.5673L14.6424 79.8563ZM11.7245 80.5152L11.6441 80.2262L11.3514 80.2923L11.4319 80.5813L11.7245 80.5152ZM15.5538 80.2655C15.791 81.1176 15.7574 81.7314 15.5272 82.1538L16.0657 82.45C16.3961 81.8438 16.3959 81.0559 16.1391 80.1334L15.5538 80.2655ZM15.5259 82.1562C15.2986 82.5828 14.8478 82.8978 14.1035 83.0659L14.2644 83.6439C15.1138 83.4521 15.738 83.0651 16.067 82.4476L15.5259 82.1562ZM14.1035 83.0659C13.5704 83.1862 13.1302 83.1744 12.7695 83.0561L12.5991 83.6174C13.0974 83.7808 13.6569 83.7811 14.2644 83.6439L14.1035 83.0659ZM12.7723 83.0571C12.4091 82.9342 12.0867 82.7158 11.8037 82.3917L11.3491 82.7649C11.7 83.1669 12.1163 83.4542 12.5963 83.6165L12.7723 83.0571ZM11.3759 82.3474L8.14877 84.9828L8.54984 85.4445L11.7769 82.8091L11.3759 82.3474ZM8.64194 85.1476L8.26822 83.8051L7.68296 83.9372L8.05667 85.2797L8.64194 85.1476ZM8.16878 84.1078L11.1685 81.819L10.7822 81.3457L7.78241 83.6345L8.16878 84.1078ZM11.268 81.5162L11.0328 80.6714L10.4475 80.8035L10.6827 81.6484L11.268 81.5162ZM10.6597 80.4485L7.23792 81.2211L7.39882 81.7992L10.8206 81.0265L10.6597 80.4485ZM7.611 81.4441L7.27595 80.2404L6.69069 80.3726L7.02574 81.5762L7.611 81.4441ZM7.06377 80.5955L15.4307 78.7062L15.2698 78.1281L6.90287 80.0175L7.06377 80.5955ZM15.0577 78.4832L15.5538 80.2655L16.1391 80.1334L15.6429 78.3511L15.0577 78.4832ZM15.0897 80.3457L14.935 79.7902L14.3498 79.9224L14.5044 80.4779L15.0897 80.3457ZM14.5619 79.5673L11.6441 80.2262L11.805 80.8042L14.7229 80.1453L14.5619 79.5673ZM11.4319 80.5813L11.6058 81.2062L12.1911 81.0741L12.0171 80.4491L11.4319 80.5813ZM11.6058 81.2062C11.7462 81.7105 12.0088 82.107 12.4261 82.3288C12.836 82.5466 13.3335 82.5625 13.8793 82.4393L13.7184 81.8612C13.2485 81.9673 12.9215 81.9295 12.698 81.8107C12.4818 81.6958 12.302 81.4726 12.1911 81.0741L11.6058 81.2062ZM13.8793 82.4393C14.4096 82.3195 14.8273 82.0935 15.0374 81.7111L14.4997 81.4134C14.4012 81.5927 14.1724 81.7587 13.7184 81.8612L13.8793 82.4393ZM15.0374 81.7111C15.2423 81.3381 15.2348 80.8671 15.0897 80.3457L14.5044 80.4779C14.6299 80.9288 14.6034 81.2247 14.4997 81.4134L15.0374 81.7111Z" fill="black"/>
<path d="M11.6477 94.5519L11.1179 93.4469L18.1046 90.7298L17.3152 89.0832L18.3229 88.6913L20.4314 93.0895L19.4237 93.4814L18.6343 91.8348L11.6477 94.5519Z" fill="black"/>
<path d="M11.6477 94.5519L11.3681 94.6606L11.4978 94.9312L11.7774 94.8224L11.6477 94.5519ZM11.1179 93.4469L10.9882 93.1764L10.7086 93.2852L10.8383 93.5557L11.1179 93.4469ZM18.1046 90.7298L18.2343 91.0003L18.5139 90.8916L18.3842 90.6211L18.1046 90.7298ZM17.3152 89.0832L17.1855 88.8127L16.9059 88.9214L17.0356 89.1919L17.3152 89.0832ZM18.3229 88.6913L18.6025 88.5826L18.4728 88.3121L18.1932 88.4208L18.3229 88.6913ZM20.4314 93.0895L20.5611 93.36L20.8407 93.2513L20.711 92.9807L20.4314 93.0895ZM19.4237 93.4814L19.1441 93.5901L19.2738 93.8606L19.5534 93.7519L19.4237 93.4814ZM18.6343 91.8348L18.9139 91.726L18.7842 91.4555L18.5046 91.5642L18.6343 91.8348ZM11.9273 94.4432L11.3975 93.3382L10.8383 93.5557L11.3681 94.6606L11.9273 94.4432ZM11.2476 93.7175L18.2343 91.0003L17.9749 90.4593L10.9882 93.1764L11.2476 93.7175ZM18.3842 90.6211L17.5948 88.9745L17.0356 89.1919L17.825 90.8385L18.3842 90.6211ZM17.4449 89.3537L18.4526 88.9618L18.1932 88.4208L17.1855 88.8127L17.4449 89.3537ZM18.0433 88.8001L20.1518 93.1982L20.711 92.9807L18.6025 88.5826L18.0433 88.8001ZM20.3017 92.819L19.2941 93.2109L19.5534 93.7519L20.5611 93.36L20.3017 92.819ZM19.7033 93.3726L18.9139 91.726L18.3547 91.9435L19.1441 93.5901L19.7033 93.3726ZM18.5046 91.5642L11.518 94.2814L11.7774 94.8224L18.764 92.1053L18.5046 91.5642Z" fill="black"/>
<path d="M29.7727 107.453C29.4891 107.137 29.1312 106.959 28.6991 106.919C28.2723 106.885 27.8068 106.963 27.3026 107.152C26.8038 107.348 26.2987 107.632 25.7872 108.005C24.952 108.613 24.4073 109.217 24.1529 109.816C23.9103 110.416 23.9977 110.949 24.4151 111.414C24.597 111.616 24.7968 111.791 25.0144 111.938C25.2385 112.081 25.4729 112.211 25.7176 112.328L24.8436 112.965C24.3284 112.748 23.8594 112.405 23.4367 111.934C22.7733 111.195 22.5763 110.397 22.8458 109.541C23.1272 108.685 23.8246 107.852 24.9382 107.041C25.618 106.546 26.3041 106.189 26.9966 105.971C27.6945 105.758 28.354 105.712 28.975 105.831C29.6015 105.956 30.1474 106.278 30.6129 106.797C31.0623 107.297 31.3448 107.85 31.4604 108.456L30.354 108.745C30.3185 108.514 30.2555 108.289 30.1651 108.069C30.0747 107.849 29.9439 107.644 29.7727 107.453Z" fill="black"/>
<path d="M28.6991 106.919L28.7246 106.636L28.7201 106.635L28.6991 106.919ZM27.3026 107.152L27.1765 106.889L27.1723 106.891L27.3026 107.152ZM24.1529 109.816L23.8589 109.709L23.8571 109.713L24.1529 109.816ZM25.0144 111.938L24.8296 112.165L24.8374 112.17L25.0144 111.938ZM25.7176 112.328L25.918 112.551L26.2874 112.282L25.8604 112.077L25.7176 112.328ZM24.8436 112.965L24.7163 113.222L24.8941 113.297L25.044 113.188L24.8436 112.965ZM22.8458 109.541L22.5441 109.454L22.5431 109.457L22.8458 109.541ZM26.9966 105.971L26.8906 105.701L26.8874 105.702L26.9966 105.971ZM28.975 105.831L29.0367 105.553L29.0341 105.553L28.975 105.831ZM31.4604 108.456L31.5534 108.73L31.8176 108.661L31.7704 108.414L31.4604 108.456ZM30.354 108.745L30.0425 108.778L30.0937 109.11L30.447 109.018L30.354 108.745ZM30.1651 108.069L29.8705 108.163L29.8705 108.163L30.1651 108.069ZM30.0152 107.276C29.6791 106.902 29.2439 106.684 28.7246 106.636L28.6736 107.202C29.0186 107.234 29.2991 107.372 29.5302 107.63L30.0152 107.276ZM28.7201 106.635C28.2306 106.596 27.7141 106.687 27.1765 106.889L27.4287 107.416C27.8995 107.238 28.314 107.173 28.678 107.203L28.7201 106.635ZM27.1723 106.891C26.6437 107.098 26.1153 107.397 25.5868 107.781L25.9876 108.228C26.482 107.868 26.9639 107.598 27.4329 107.414L27.1723 106.891ZM25.5868 107.781C24.7296 108.406 24.1401 109.046 23.8589 109.709L24.4469 109.923C24.6744 109.387 25.1745 108.82 25.9876 108.228L25.5868 107.781ZM23.8571 109.713C23.5806 110.398 23.6771 111.039 24.1726 111.59L24.6576 111.237C24.3183 110.859 24.2401 110.435 24.4487 109.919L23.8571 109.713ZM24.1726 111.59C24.3703 111.811 24.5893 112.003 24.8297 112.165L25.1991 111.711C25.0042 111.58 24.8236 111.422 24.6576 111.237L24.1726 111.59ZM24.8374 112.17C25.0726 112.319 25.3185 112.456 25.5748 112.579L25.8604 112.077C25.6274 111.965 25.4045 111.842 25.1914 111.706L24.8374 112.17ZM25.5172 112.105L24.6432 112.741L25.044 113.188L25.918 112.551L25.5172 112.105ZM24.9709 112.707C24.5076 112.512 24.0763 112.2 23.6792 111.757L23.1942 112.111C23.6425 112.61 24.1491 112.984 24.7163 113.222L24.9709 112.707ZM23.6792 111.757C23.0776 111.087 22.9089 110.386 23.1486 109.624L22.5431 109.457C22.2438 110.409 22.469 111.303 23.1942 112.111L23.6792 111.757ZM23.1475 109.627C23.4047 108.845 24.0524 108.055 25.1386 107.264L24.7378 106.818C23.5968 107.649 22.8496 108.525 22.5441 109.454L23.1475 109.627ZM25.1386 107.264C25.7963 106.785 26.4522 106.446 27.1058 106.24L26.8874 105.702C26.156 105.933 25.4396 106.307 24.7378 106.818L25.1386 107.264ZM27.1027 106.241C27.7568 106.042 28.359 106.002 28.916 106.109L29.0341 105.553C28.3489 105.421 27.6321 105.475 26.8906 105.701L27.1027 106.241ZM28.9134 106.109C29.4588 106.218 29.944 106.498 30.3704 106.973L30.8554 106.62C30.3508 106.058 29.7441 105.695 29.0367 105.553L28.9134 106.109ZM30.3704 106.973C30.7865 107.437 31.0446 107.944 31.1504 108.499L31.7704 108.414C31.6451 107.757 31.3382 107.158 30.8554 106.62L30.3704 106.973ZM31.3674 108.183L30.261 108.471L30.447 109.018L31.5534 108.73L31.3674 108.183ZM30.6656 108.711C30.6269 108.46 30.5582 108.214 30.4597 107.975L29.8705 108.163C29.9529 108.364 30.0101 108.568 30.0425 108.778L30.6656 108.711ZM30.4597 107.975C30.3565 107.724 30.2077 107.491 30.0152 107.276L29.5302 107.63C29.6801 107.797 29.7929 107.974 29.8705 108.163L30.4597 107.975Z" fill="black"/>
<path d="M33.1753 121.534L30.2209 119.131L36.2944 113.074L39.2488 115.477L38.4917 116.232L36.5066 114.617L34.7288 116.39L36.5834 117.899L35.8349 118.645L33.9803 117.137L31.9558 119.156L33.9409 120.77L33.1753 121.534Z" fill="black"/>
<path d="M33.1753 121.534L32.9629 121.746L33.1956 121.935L33.408 121.723L33.1753 121.534ZM30.2209 119.131L29.9882 118.942L29.7758 119.153L30.0085 119.343L30.2209 119.131ZM36.2944 113.074L36.5068 112.862L36.2741 112.673L36.0617 112.884L36.2944 113.074ZM39.2488 115.477L39.4815 115.666L39.6939 115.454L39.4612 115.265L39.2488 115.477ZM38.4917 116.232L38.2793 116.444L38.512 116.633L38.7245 116.421L38.4917 116.232ZM36.5066 114.617L36.719 114.405L36.4863 114.216L36.2739 114.428L36.5066 114.617ZM34.7288 116.39L34.4961 116.201L34.2837 116.413L34.5164 116.602L34.7288 116.39ZM36.5834 117.899L36.8162 118.088L37.0286 117.876L36.7959 117.687L36.5834 117.899ZM35.8349 118.645L35.6225 118.857L35.8552 119.046L36.0676 118.835L35.8349 118.645ZM33.9803 117.137L34.1927 116.925L33.9599 116.736L33.7475 116.947L33.9803 117.137ZM31.9558 119.156L31.723 118.966L31.5106 119.178L31.7433 119.368L31.9558 119.156ZM33.9409 120.77L34.1736 120.96L34.386 120.748L34.1533 120.559L33.9409 120.77ZM33.3877 121.322L30.4334 118.919L30.0085 119.343L32.9629 121.746L33.3877 121.322ZM30.4537 119.32L36.5271 113.263L36.0617 112.884L29.9882 118.942L30.4537 119.32ZM36.082 113.286L39.0364 115.689L39.4612 115.265L36.5068 112.862L36.082 113.286ZM39.0161 115.287L38.259 116.042L38.7245 116.421L39.4815 115.666L39.0161 115.287ZM38.7041 116.02L36.719 114.405L36.2942 114.829L38.2793 116.444L38.7041 116.02ZM36.2739 114.428L34.4961 116.201L34.9615 116.579L36.7393 114.806L36.2739 114.428ZM34.5164 116.602L36.371 118.111L36.7959 117.687L34.9412 116.178L34.5164 116.602ZM36.3507 117.709L35.6022 118.456L36.0676 118.835L36.8162 118.088L36.3507 117.709ZM36.0473 118.433L34.1927 116.925L33.7678 117.349L35.6225 118.857L36.0473 118.433ZM33.7475 116.947L31.723 118.966L32.1885 119.345L34.213 117.326L33.7475 116.947ZM31.7433 119.368L33.7285 120.982L34.1533 120.559L32.1682 118.944L31.7433 119.368ZM33.7081 120.581L32.9426 121.345L33.408 121.723L34.1736 120.96L33.7081 120.581Z" fill="black"/>
<path d="M44.9011 129.829L43.5956 129.087L44.8033 122.028L44.7615 122.004C44.5918 122.302 44.4138 122.591 44.2278 122.87C44.0487 123.153 43.8775 123.418 43.7145 123.665L40.9637 127.591L39.9506 127.015L44.873 119.99L46.1681 120.726L45.0087 127.716L45.04 127.734C45.2191 127.451 45.3982 127.167 45.5773 126.884C45.761 126.594 45.9356 126.331 46.1011 126.095L48.8104 122.228L49.8235 122.804L44.9011 129.829Z" fill="black"/>
<path d="M44.9011 129.829L44.729 130.075L44.9898 130.223L45.1619 129.977L44.9011 129.829ZM43.5956 129.087L43.2869 129.053L43.2555 129.237L43.4235 129.332L43.5956 129.087ZM44.8033 122.028L45.112 122.061L45.1434 121.878L44.9755 121.782L44.8033 122.028ZM44.7615 122.004L44.9337 121.758L44.6475 121.596L44.4859 121.879L44.7615 122.004ZM44.2278 122.87L43.9629 122.728L43.9591 122.734L44.2278 122.87ZM43.7145 123.665L43.9754 123.813L43.9798 123.807L43.7145 123.665ZM40.9637 127.591L40.7915 127.836L41.0524 127.985L41.2245 127.739L40.9637 127.591ZM39.9506 127.015L39.6898 126.867L39.5177 127.112L39.7785 127.26L39.9506 127.015ZM44.873 119.99L45.0452 119.744L44.7844 119.596L44.6122 119.842L44.873 119.99ZM46.1681 120.726L46.477 120.758L46.5073 120.576L46.3403 120.481L46.1681 120.726ZM45.0087 127.716L44.6998 127.684L44.6695 127.867L44.8365 127.962L45.0087 127.716ZM45.04 127.734L44.8678 127.98L45.1414 128.135L45.3087 127.871L45.04 127.734ZM45.5773 126.884L45.3088 126.747L45.3086 126.748L45.5773 126.884ZM48.8104 122.228L48.9826 121.983L48.7218 121.834L48.5496 122.08L48.8104 122.228ZM49.8235 122.804L50.0843 122.952L50.2565 122.707L49.9957 122.558L49.8235 122.804ZM45.0733 129.583L43.7678 128.841L43.4235 129.332L44.729 130.075L45.0733 129.583ZM43.9043 129.12L45.112 122.061L44.4946 121.995L43.2869 129.053L43.9043 129.12ZM44.9755 121.782L44.9337 121.758L44.5894 122.25L44.6312 122.274L44.9755 121.782ZM44.4859 121.879C44.3194 122.171 44.1451 122.454 43.9629 122.728L44.4926 123.012C44.6826 122.727 44.8641 122.433 45.0372 122.129L44.4859 121.879ZM43.9591 122.734C43.7809 123.016 43.6109 123.279 43.4491 123.524L43.9798 123.807C44.1442 123.558 44.3164 123.291 44.4965 123.006L43.9591 122.734ZM43.4536 123.517L40.7029 127.442L41.2245 127.739L43.9753 123.813L43.4536 123.517ZM41.1359 127.345L40.1228 126.769L39.7785 127.26L40.7915 127.836L41.1359 127.345ZM40.2114 127.163L45.1338 120.138L44.6122 119.842L39.6898 126.867L40.2114 127.163ZM44.7009 120.236L45.9959 120.972L46.3403 120.481L45.0452 119.744L44.7009 120.236ZM45.8592 120.694L44.6998 127.684L45.3176 127.748L46.477 120.758L45.8592 120.694ZM44.8365 127.962L44.8678 127.98L45.2121 127.488L45.1808 127.471L44.8365 127.962ZM45.3087 127.871C45.4878 127.587 45.6669 127.304 45.846 127.02L45.3086 126.748C45.1295 127.031 44.9504 127.314 44.7713 127.598L45.3087 127.871ZM45.8458 127.021C46.0275 126.734 46.1995 126.475 46.3619 126.243L45.8403 125.947C45.6717 126.187 45.4945 126.454 45.3088 126.747L45.8458 127.021ZM46.3619 126.243L49.0713 122.377L48.5496 122.08L45.8403 125.947L46.3619 126.243ZM48.6383 122.474L49.6514 123.05L49.9957 122.558L48.9826 121.983L48.6383 122.474ZM49.5627 122.656L44.6403 129.681L45.1619 129.977L50.0843 122.952L49.5627 122.656Z" fill="black"/>
<path d="M55.3873 135.087L54.2392 134.659L57.3713 127.848L55.6604 127.21L56.1121 126.227L60.682 127.932L60.2302 128.914L58.5193 128.276L55.3873 135.087Z" fill="black"/>
<path d="M55.3873 135.087L55.262 135.359L55.5431 135.464L55.6684 135.192L55.3873 135.087ZM54.2392 134.659L53.9581 134.554L53.8328 134.826L54.1139 134.931L54.2392 134.659ZM57.3713 127.848L57.6523 127.953L57.7777 127.68L57.4966 127.575L57.3713 127.848ZM55.6604 127.21L55.3793 127.105L55.2539 127.377L55.535 127.482L55.6604 127.21ZM56.1121 126.227L56.2374 125.955L55.9564 125.85L55.831 126.122L56.1121 126.227ZM60.682 127.932L60.963 128.037L61.0884 127.764L60.8073 127.659L60.682 127.932ZM60.2302 128.914L60.1049 129.187L60.386 129.292L60.5113 129.019L60.2302 128.914ZM58.5193 128.276L58.6447 128.003L58.3636 127.899L58.2383 128.171L58.5193 128.276ZM55.5127 134.814L54.3646 134.386L54.1139 134.931L55.262 135.359L55.5127 134.814ZM54.5203 134.763L57.6523 127.953L57.0902 127.743L53.9581 134.554L54.5203 134.763ZM57.4966 127.575L55.7857 126.937L55.535 127.482L57.2459 128.12L57.4966 127.575ZM55.9414 127.314L56.3932 126.332L55.831 126.122L55.3793 127.105L55.9414 127.314ZM55.9868 126.5L60.5566 128.205L60.8073 127.659L56.2374 125.955L55.9868 126.5ZM60.4009 127.827L59.9492 128.809L60.5113 129.019L60.963 128.037L60.4009 127.827ZM60.3556 128.642L58.6447 128.003L58.394 128.549L60.1049 129.187L60.3556 128.642ZM58.2383 128.171L55.1062 134.982L55.6684 135.192L58.8004 128.381L58.2383 128.171Z" fill="black"/>
<path d="M68.6363 139.312L64.9187 138.486L67.1845 130.213L70.9021 131.039L70.6197 132.07L68.1217 131.515L67.4585 133.937L69.7923 134.455L69.513 135.475L67.1792 134.956L66.4239 137.714L68.9219 138.269L68.6363 139.312Z" fill="black"/>
<path d="M68.6363 139.312L68.557 139.601L68.8499 139.666L68.9291 139.377L68.6363 139.312ZM64.9187 138.486L64.6258 138.421L64.5466 138.71L64.8394 138.775L64.9187 138.486ZM67.1845 130.213L67.2637 129.923L66.9709 129.858L66.8916 130.148L67.1845 130.213ZM70.9021 131.039L71.195 131.104L71.2742 130.814L70.9814 130.749L70.9021 131.039ZM70.6197 132.07L70.5404 132.359L70.8333 132.424L70.9125 132.135L70.6197 132.07ZM68.1217 131.515L68.201 131.226L67.9081 131.161L67.8289 131.45L68.1217 131.515ZM67.4585 133.937L67.1656 133.872L67.0864 134.161L67.3792 134.226L67.4585 133.937ZM69.7923 134.455L70.0851 134.52L70.1644 134.231L69.8715 134.166L69.7923 134.455ZM69.513 135.475L69.4337 135.764L69.7266 135.829L69.8059 135.54L69.513 135.475ZM67.1792 134.956L67.2585 134.667L66.9656 134.602L66.8864 134.891L67.1792 134.956ZM66.4239 137.714L66.1311 137.649L66.0518 137.938L66.3447 138.003L66.4239 137.714ZM68.9219 138.269L69.2148 138.334L69.294 138.045L69.0011 137.98L68.9219 138.269ZM68.7155 139.022L64.9979 138.196L64.8394 138.775L68.557 139.601L68.7155 139.022ZM65.2115 138.551L67.4774 130.278L66.8916 130.148L64.6258 138.421L65.2115 138.551ZM67.1053 130.502L70.8229 131.328L70.9814 130.749L67.2637 129.923L67.1053 130.502ZM70.6093 130.974L70.3268 132.005L70.9125 132.135L71.195 131.104L70.6093 130.974ZM70.6989 131.781L68.201 131.226L68.0425 131.804L70.5404 132.359L70.6989 131.781ZM67.8289 131.45L67.1656 133.872L67.7513 134.002L68.4146 131.58L67.8289 131.45ZM67.3792 134.226L69.713 134.745L69.8715 134.166L67.5377 133.647L67.3792 134.226ZM69.4994 134.39L69.2201 135.41L69.8059 135.54L70.0851 134.52L69.4994 134.39ZM69.5922 135.185L67.2585 134.667L67.1 135.246L69.4337 135.764L69.5922 135.185ZM66.8864 134.891L66.1311 137.649L66.7168 137.779L67.4721 135.021L66.8864 134.891ZM66.3447 138.003L68.8427 138.558L69.0011 137.98L66.5032 137.425L66.3447 138.003ZM68.629 138.204L68.3434 139.247L68.9291 139.377L69.2148 138.334L68.629 138.204Z" fill="black"/>
<path d="M80.2078 132.672C81.1264 132.739 81.787 132.992 82.1897 133.431C82.6003 133.87 82.769 134.497 82.6957 135.311C82.6432 135.893 82.4842 136.363 82.2188 136.721C81.9541 137.071 81.6007 137.334 81.1587 137.511L82.6729 141.451L81.283 141.35L80.0283 137.741L79.1537 137.677L78.8388 141.171L77.5927 141.08L78.3627 132.537L80.2078 132.672ZM80.0879 133.735L79.5128 133.693L79.2443 136.672L79.8913 136.719C80.8258 136.788 81.3398 136.303 81.4333 135.266C81.4786 134.764 81.3915 134.392 81.172 134.151C80.9525 133.91 80.5911 133.772 80.0879 133.735Z" fill="black"/>
<path d="M82.1897 133.431L81.9665 133.635L81.9683 133.637L82.1897 133.431ZM82.2188 136.721L82.4576 136.899L82.4593 136.896L82.2188 136.721ZM81.1587 137.511L81.0511 137.233L80.7713 137.344L80.8779 137.622L81.1587 137.511ZM82.6729 141.451L82.646 141.75L83.1246 141.785L82.9536 141.34L82.6729 141.451ZM81.283 141.35L80.999 141.452L81.0624 141.634L81.2561 141.648L81.283 141.35ZM80.0283 137.741L80.3123 137.639L80.249 137.456L80.0553 137.442L80.0283 137.741ZM79.1537 137.677L79.1806 137.378L78.8814 137.356L78.8545 137.655L79.1537 137.677ZM78.8388 141.171L78.8119 141.47L79.1111 141.492L79.138 141.193L78.8388 141.171ZM77.5927 141.08L77.2935 141.058L77.2666 141.357L77.5658 141.379L77.5927 141.08ZM78.3627 132.537L78.3896 132.238L78.0904 132.216L78.0635 132.515L78.3627 132.537ZM79.5128 133.693L79.5397 133.394L79.2405 133.372L79.2136 133.671L79.5128 133.693ZM79.2443 136.672L78.9451 136.65L78.9181 136.949L79.2173 136.971L79.2443 136.672ZM80.1809 132.971C81.063 133.035 81.6358 133.275 81.9665 133.635L82.4129 133.227C81.9383 132.709 81.1898 132.443 80.2348 132.373L80.1809 132.971ZM81.9683 133.637C82.304 133.996 82.465 134.529 82.3965 135.289L82.9949 135.332C83.073 134.465 82.8967 133.744 82.4111 133.225L81.9683 133.637ZM82.3965 135.289C82.3474 135.833 82.2012 136.245 81.9783 136.545L82.4593 136.896C82.7672 136.481 82.939 135.953 82.9949 135.332L82.3965 135.289ZM81.9801 136.543C81.752 136.845 81.4458 137.075 81.0511 137.233L81.2663 137.788C81.7557 137.593 82.1562 137.297 82.4575 136.899L81.9801 136.543ZM80.8779 137.622L82.3921 141.562L82.9536 141.34L81.4394 137.399L80.8779 137.622ZM82.6998 141.152L81.31 141.051L81.2561 141.648L82.646 141.75L82.6998 141.152ZM81.567 141.247L80.3123 137.639L79.7443 137.843L80.999 141.452L81.567 141.247ZM80.0553 137.442L79.1806 137.378L79.1268 137.976L80.0014 138.04L80.0553 137.442ZM78.8545 137.655L78.5396 141.149L79.138 141.193L79.4529 137.699L78.8545 137.655ZM78.8657 140.872L77.6196 140.781L77.5658 141.379L78.8119 141.47L78.8657 140.872ZM77.8919 141.102L78.6619 132.559L78.0635 132.515L77.2935 141.058L77.8919 141.102ZM78.3358 132.836L80.1809 132.971L80.2348 132.373L78.3896 132.238L78.3358 132.836ZM80.1148 133.436L79.5397 133.394L79.4859 133.992L80.061 134.034L80.1148 133.436ZM79.2136 133.671L78.9451 136.65L79.5435 136.694L79.812 133.715L79.2136 133.671ZM79.2173 136.971L79.8643 137.018L79.9182 136.421L79.2712 136.373L79.2173 136.971ZM79.8643 137.018C80.3864 137.056 80.8435 136.943 81.1821 136.624C81.5147 136.31 81.6823 135.846 81.7325 135.288L81.1341 135.245C81.0909 135.724 80.9547 136.02 80.7733 136.191C80.5979 136.357 80.3307 136.451 79.9182 136.421L79.8643 137.018ZM81.7325 135.288C81.7813 134.747 81.6947 134.276 81.3958 133.948L80.9482 134.355C81.0883 134.509 81.1759 134.781 81.1341 135.245L81.7325 135.288ZM81.3958 133.948C81.1043 133.628 80.6545 133.476 80.1148 133.436L80.061 134.034C80.5277 134.068 80.8007 134.193 80.9482 134.355L81.3958 133.948Z" fill="black"/>
<path d="M103.573 140.532L100.729 141.01L100.588 140.328L101.342 139.946L99.9884 133.417L99.1292 133.294L98.9877 132.611L101.831 132.133L101.972 132.815L101.221 133.21L102.574 139.738L103.431 139.85L103.573 140.532Z" fill="black"/>
<path d="M103.573 140.532L103.634 140.826L103.929 140.776L103.869 140.482L103.573 140.532ZM100.729 141.01L100.434 141.06L100.494 141.354L100.79 141.304L100.729 141.01ZM100.588 140.328L100.442 140.062L100.247 140.161L100.292 140.378L100.588 140.328ZM101.342 139.946L101.488 140.211L101.683 140.112L101.638 139.896L101.342 139.946ZM99.9884 133.417L100.284 133.367L100.24 133.153L100.022 133.122L99.9884 133.417ZM99.1292 133.294L98.8333 133.343L98.8776 133.557L99.0961 133.588L99.1292 133.294ZM98.9877 132.611L98.9268 132.318L98.6309 132.367L98.6918 132.661L98.9877 132.611ZM101.831 132.133L102.127 132.083L102.066 131.79L101.77 131.839L101.831 132.133ZM101.972 132.815L102.121 133.08L102.313 132.979L102.268 132.766L101.972 132.815ZM101.221 133.21L101.071 132.945L100.88 133.046L100.925 133.259L101.221 133.21ZM102.574 139.738L102.279 139.788L102.323 140.005L102.545 140.034L102.574 139.738ZM103.431 139.85L103.727 139.8L103.682 139.583L103.46 139.554L103.431 139.85ZM103.512 140.238L100.669 140.717L100.79 141.304L103.634 140.826L103.512 140.238ZM101.025 140.961L100.884 140.278L100.292 140.378L100.434 141.06L101.025 140.961ZM100.733 140.594L101.488 140.211L101.197 139.68L100.442 140.062L100.733 140.594ZM101.638 139.896L100.284 133.367L99.6926 133.467L101.046 139.995L101.638 139.896ZM100.022 133.122L99.1623 132.999L99.0961 133.588L99.9553 133.712L100.022 133.122ZM99.425 133.244L99.2835 132.562L98.6918 132.661L98.8333 133.343L99.425 133.244ZM99.0486 132.905L101.892 132.427L101.77 131.839L98.9268 132.318L99.0486 132.905ZM101.535 132.183L101.677 132.865L102.268 132.766L102.127 132.083L101.535 132.183ZM101.823 132.551L101.071 132.945L101.37 133.474L102.121 133.08L101.823 132.551ZM100.925 133.259L102.279 139.788L102.87 139.688L101.516 133.16L100.925 133.259ZM102.545 140.034L103.402 140.145L103.46 139.554L102.603 139.443L102.545 140.034ZM103.135 139.9L103.277 140.582L103.869 140.482L103.727 139.8L103.135 139.9Z" fill="black"/>
<path d="M117.559 137.072L116.13 137.533L110.703 132.193L110.658 132.207C110.815 132.518 110.96 132.828 111.092 133.138C111.232 133.446 111.36 133.736 111.477 134.009L113.249 138.463L112.14 138.821L108.97 130.85L110.388 130.393L115.783 135.655L115.817 135.644C115.678 135.337 115.538 135.029 115.398 134.721C115.256 134.406 115.131 134.115 115.025 133.847L113.28 129.46L114.389 129.102L117.559 137.072Z" fill="black"/>
<path d="M117.559 137.072L117.67 137.351L117.955 137.259L117.844 136.98L117.559 137.072ZM116.13 137.533L115.916 137.733L116.057 137.871L116.241 137.812L116.13 137.533ZM110.703 132.193L110.917 131.993L110.776 131.855L110.593 131.914L110.703 132.193ZM110.658 132.207L110.547 131.929L110.234 132.03L110.384 132.325L110.658 132.207ZM111.092 133.138L110.809 133.237L110.812 133.243L111.092 133.138ZM111.477 134.009L111.763 133.917L111.76 133.909L111.477 134.009ZM113.249 138.463L113.359 138.742L113.645 138.649L113.534 138.371L113.249 138.463ZM112.14 138.821L111.854 138.913L111.965 139.191L112.25 139.099L112.14 138.821ZM108.97 130.85L108.859 130.571L108.573 130.663L108.684 130.942L108.97 130.85ZM110.388 130.393L110.601 130.192L110.46 130.055L110.277 130.114L110.388 130.393ZM115.783 135.655L115.57 135.855L115.711 135.993L115.894 135.934L115.783 135.655ZM115.817 135.644L115.928 135.923L116.227 135.826L116.097 135.539L115.817 135.644ZM115.398 134.721L115.118 134.826L115.119 134.826L115.398 134.721ZM113.28 129.46L113.169 129.181L112.884 129.273L112.995 129.552L113.28 129.46ZM114.389 129.102L114.675 129.01L114.564 128.731L114.278 128.823L114.389 129.102ZM117.448 136.794L116.019 137.255L116.241 137.812L117.67 137.351L117.448 136.794ZM116.344 137.334L110.917 131.993L110.489 132.392L115.916 137.733L116.344 137.334ZM110.593 131.914L110.547 131.929L110.769 132.486L110.814 132.471L110.593 131.914ZM110.384 132.325C110.538 132.629 110.68 132.933 110.809 133.237L111.375 133.039C111.24 132.723 111.093 132.406 110.932 132.09L110.384 132.325ZM110.812 133.243C110.951 133.549 111.079 133.838 111.195 134.108L111.76 133.909C111.642 133.634 111.512 133.342 111.372 133.033L110.812 133.243ZM111.192 134.101L112.963 138.555L113.534 138.371L111.763 133.917L111.192 134.101ZM113.138 138.184L112.029 138.542L112.25 139.099L113.359 138.742L113.138 138.184ZM112.425 138.728L109.255 130.758L108.684 130.942L111.854 138.913L112.425 138.728ZM109.081 131.129L110.498 130.671L110.277 130.114L108.859 130.571L109.081 131.129ZM110.175 130.593L115.57 135.855L115.996 135.455L110.601 130.192L110.175 130.593ZM115.894 135.934L115.928 135.923L115.706 135.365L115.672 135.376L115.894 135.934ZM116.097 135.539C115.957 135.231 115.818 134.924 115.678 134.616L115.119 134.826C115.258 135.134 115.398 135.442 115.537 135.749L116.097 135.539ZM115.678 134.616C115.538 134.305 115.415 134.017 115.31 133.755L114.739 133.939C114.848 134.212 114.974 134.508 115.118 134.826L115.678 134.616ZM115.31 133.755L113.566 129.367L112.995 129.552L114.739 133.939L115.31 133.755ZM113.391 129.738L114.5 129.381L114.278 128.823L113.169 129.181L113.391 129.738ZM114.104 129.194L117.273 137.164L117.844 136.98L114.675 129.01L114.104 129.194Z" fill="black"/>
<path d="M133.623 119.631L137.172 127.521L136.012 128.293L128.692 122.911L129.772 122.193L134.336 125.703C134.564 125.868 134.809 126.059 135.07 126.278C135.332 126.496 135.56 126.699 135.754 126.885C135.613 126.663 135.468 126.41 135.318 126.127C135.17 125.833 135.033 125.56 134.909 125.308L132.543 120.35L133.623 119.631Z" fill="black"/>
<path d="M133.623 119.631L133.913 119.53L133.757 119.183L133.433 119.399L133.623 119.631ZM137.172 127.521L137.362 127.753L137.555 127.625L137.462 127.42L137.172 127.521ZM136.012 128.293L135.819 128.513L136.01 128.653L136.202 128.525L136.012 128.293ZM128.692 122.911L128.502 122.679L128.178 122.895L128.499 123.131L128.692 122.911ZM129.772 122.193L129.971 121.977L129.779 121.83L129.582 121.961L129.772 122.193ZM134.336 125.703L134.138 125.919L134.145 125.925L134.336 125.703ZM135.07 126.278L135.279 126.07L135.07 126.278ZM135.754 126.885L135.529 127.078L136.025 126.748L135.754 126.885ZM135.318 126.127L135.033 126.24L135.036 126.245L135.318 126.127ZM134.909 125.308L134.621 125.415L134.623 125.418L134.909 125.308ZM132.543 120.35L132.353 120.118L132.156 120.248L132.255 120.457L132.543 120.35ZM133.333 119.732L136.882 127.622L137.462 127.42L133.913 119.53L133.333 119.732ZM136.982 127.289L135.822 128.061L136.202 128.525L137.362 127.753L136.982 127.289ZM136.205 128.073L128.885 122.692L128.499 123.131L135.819 128.513L136.205 128.073ZM128.882 123.143L129.963 122.425L129.582 121.961L128.502 122.679L128.882 123.143ZM129.574 122.408L134.138 125.919L134.535 125.488L129.971 121.977L129.574 122.408ZM134.145 125.925C134.366 126.084 134.604 126.27 134.861 126.485L135.279 126.07C135.013 125.848 134.762 125.652 134.527 125.482L134.145 125.925ZM134.861 126.485C135.119 126.7 135.341 126.898 135.529 127.078L135.979 126.692C135.778 126.499 135.545 126.292 135.279 126.07L134.861 126.485ZM136.025 126.748C135.889 126.534 135.747 126.288 135.6 126.01L135.036 126.245C135.188 126.533 135.337 126.792 135.483 127.022L136.025 126.748ZM135.603 126.015C135.455 125.721 135.319 125.449 135.195 125.198L134.623 125.418C134.748 125.671 134.885 125.945 135.033 126.24L135.603 126.015ZM135.196 125.201L132.83 120.243L132.255 120.457L134.621 125.415L135.196 125.201ZM132.733 120.582L133.813 119.863L133.433 119.399L132.353 120.118L132.733 120.582Z" fill="black"/>
<path d="M146.955 119.975L144.799 121.889L144.285 121.419L144.71 120.706L139.788 116.208L138.982 116.572L138.467 116.102L140.624 114.188L141.138 114.658L140.722 115.379L145.644 119.877L146.441 119.505L146.955 119.975Z" fill="black"/>
<path d="M146.955 119.975L147.177 120.177L147.401 119.978L147.18 119.775L146.955 119.975ZM144.799 121.889L144.575 122.088L144.796 122.29L145.021 122.091L144.799 121.889ZM144.285 121.419L144.007 121.284L143.897 121.468L144.06 121.618L144.285 121.419ZM144.71 120.706L144.987 120.841L145.097 120.656L144.934 120.507L144.71 120.706ZM139.788 116.208L140.012 116.009L139.851 115.862L139.646 115.954L139.788 116.208ZM138.982 116.572L138.757 116.771L138.918 116.919L139.123 116.826L138.982 116.572ZM138.467 116.102L138.246 115.9L138.021 116.099L138.243 116.301L138.467 116.102ZM140.624 114.188L140.848 113.989L140.626 113.787L140.402 113.986L140.624 114.188ZM141.138 114.658L141.418 114.789L141.523 114.606L141.362 114.459L141.138 114.658ZM140.722 115.379L140.442 115.248L140.337 115.431L140.498 115.578L140.722 115.379ZM145.644 119.877L145.42 120.076L145.583 120.225L145.789 120.129L145.644 119.877ZM146.441 119.505L146.665 119.305L146.502 119.156L146.296 119.252L146.441 119.505ZM146.734 119.772L144.578 121.686L145.021 122.091L147.177 120.177L146.734 119.772ZM145.024 121.689L144.509 121.219L144.06 121.618L144.575 122.088L145.024 121.689ZM144.563 121.553L144.987 120.841L144.432 120.571L144.007 121.284L144.563 121.553ZM144.934 120.507L140.012 116.009L139.563 116.407L144.485 120.905L144.934 120.507ZM139.646 115.954L138.84 116.318L139.123 116.826L139.929 116.462L139.646 115.954ZM139.206 116.373L138.692 115.903L138.243 116.301L138.757 116.771L139.206 116.373ZM138.689 116.305L140.845 114.391L140.402 113.986L138.246 115.9L138.689 116.305ZM140.399 114.387L140.914 114.857L141.362 114.459L140.848 113.989L140.399 114.387ZM140.858 114.527L140.442 115.248L141.002 115.51L141.418 114.789L140.858 114.527ZM140.498 115.578L145.42 120.076L145.868 119.677L140.946 115.18L140.498 115.578ZM145.789 120.129L146.586 119.757L146.296 119.252L145.499 119.625L145.789 120.129ZM146.217 119.704L146.731 120.174L147.18 119.775L146.665 119.305L146.217 119.704Z" fill="black"/>
<path d="M152.543 114.481L145.486 109.604L146.296 108.653L152.464 112.915L154.154 110.93L155.044 111.545L152.543 114.481Z" fill="black"/>
<path d="M152.543 114.481L152.348 114.709L152.595 114.88L152.79 114.651L152.543 114.481ZM145.486 109.604L145.239 109.434L145.045 109.662L145.292 109.833L145.486 109.604ZM146.296 108.653L146.491 108.425L146.244 108.254L146.05 108.483L146.296 108.653ZM152.464 112.915L152.269 113.143L152.516 113.314L152.71 113.085L152.464 112.915ZM154.154 110.93L154.349 110.702L154.102 110.531L153.907 110.76L154.154 110.93ZM155.044 111.545L155.29 111.716L155.485 111.487L155.238 111.317L155.044 111.545ZM152.737 114.252L145.681 109.376L145.292 109.833L152.348 114.709L152.737 114.252ZM145.733 109.775L146.543 108.824L146.05 108.483L145.239 109.434L145.733 109.775ZM146.102 108.882L152.269 113.143L152.658 112.686L146.491 108.425L146.102 108.882ZM152.71 113.085L154.401 111.101L153.907 110.76L152.217 112.744L152.71 113.085ZM153.96 111.159L154.849 111.773L155.238 111.317L154.349 110.702L153.96 111.159ZM154.797 111.374L152.296 114.31L152.79 114.651L155.29 111.716L154.797 111.374Z" fill="black"/>
<path d="M163.588 100.813L162.829 102.109L155.165 101.859L155.141 101.9C155.468 102.02 155.786 102.149 156.094 102.287C156.405 102.417 156.697 102.543 156.969 102.663L161.298 104.721L160.709 105.726L152.962 102.044L153.715 100.759L161.303 100.973L161.321 100.942C161.009 100.811 160.697 100.681 160.385 100.55C160.066 100.416 159.776 100.287 159.516 100.163L155.252 98.1363L155.841 97.1309L163.588 100.813Z" fill="black"/>
<path d="M163.588 100.813L163.859 100.942L164.01 100.683L163.74 100.555L163.588 100.813ZM162.829 102.109L162.803 102.398L163.002 102.404L163.1 102.238L162.829 102.109ZM155.165 101.859L155.191 101.57L154.992 101.563L154.894 101.73L155.165 101.859ZM155.141 101.9L154.87 101.771L154.703 102.055L155.015 102.17L155.141 101.9ZM156.094 102.287L155.948 102.549L155.955 102.551L156.094 102.287ZM156.969 102.663L157.121 102.404L157.113 102.401L156.969 102.663ZM161.298 104.721L161.569 104.85L161.721 104.591L161.45 104.462L161.298 104.721ZM160.709 105.726L160.557 105.985L160.828 106.114L160.98 105.855L160.709 105.726ZM152.962 102.044L152.691 101.915L152.539 102.174L152.81 102.303L152.962 102.044ZM153.715 100.759L153.74 100.47L153.541 100.464L153.444 100.63L153.715 100.759ZM161.303 100.973L161.278 101.262L161.476 101.267L161.574 101.102L161.303 100.973ZM161.321 100.942L161.592 101.07L161.751 100.799L161.459 100.677L161.321 100.942ZM160.385 100.55L160.246 100.814L160.247 100.815L160.385 100.55ZM155.252 98.1363L154.981 98.0075L154.829 98.2663L155.1 98.3951L155.252 98.1363ZM155.841 97.1309L155.993 96.872L155.722 96.7432L155.57 97.0021L155.841 97.1309ZM163.317 100.685L162.558 101.98L163.1 102.238L163.859 100.942L163.317 100.685ZM162.855 101.82L155.191 101.57L155.139 102.148L162.803 102.398L162.855 101.82ZM154.894 101.73L154.87 101.771L155.412 102.029L155.436 101.988L154.894 101.73ZM155.015 102.17C155.336 102.288 155.647 102.414 155.948 102.549L156.239 102.025C155.924 101.885 155.6 101.753 155.267 101.631L155.015 102.17ZM155.955 102.551C156.265 102.681 156.555 102.806 156.825 102.925L157.113 102.401C156.839 102.28 156.546 102.153 156.232 102.022L155.955 102.551ZM156.817 102.922L161.146 104.98L161.45 104.462L157.121 102.404L156.817 102.922ZM161.027 104.592L160.438 105.598L160.98 105.855L161.569 104.85L161.027 104.592ZM160.861 105.468L153.114 101.785L152.81 102.303L160.557 105.985L160.861 105.468ZM153.233 102.173L153.986 100.887L153.444 100.63L152.691 101.915L153.233 102.173ZM153.691 101.048L161.278 101.262L161.327 100.684L153.74 100.47L153.691 101.048ZM161.574 101.102L161.592 101.07L161.05 100.813L161.032 100.844L161.574 101.102ZM161.459 100.677C161.148 100.546 160.836 100.416 160.524 100.285L160.247 100.815C160.558 100.945 160.87 101.076 161.182 101.206L161.459 100.677ZM160.524 100.285C160.208 100.153 159.923 100.026 159.667 99.9044L159.364 100.422C159.629 100.548 159.924 100.679 160.246 100.814L160.524 100.285ZM159.667 99.9044L155.403 97.8774L155.1 98.3951L159.364 100.422L159.667 99.9044ZM155.523 98.2651L156.112 97.2597L155.57 97.0021L154.981 98.0075L155.523 98.2651ZM155.689 97.3897L163.436 101.072L163.74 100.555L155.993 96.872L155.689 97.3897Z" fill="black"/>
<path d="M168.084 91.1003L167.062 93.7965L166.396 93.5917L166.445 92.7537L160.071 90.7947L159.529 91.4809L158.863 91.2762L159.885 88.58L160.551 88.7847L160.514 89.6263L166.887 91.5853L167.418 90.8956L168.084 91.1003Z" fill="black"/>
<path d="M168.084 91.1003L168.371 91.1884L168.477 90.9079L168.19 90.8198L168.084 91.1003ZM167.062 93.7965L166.956 94.077L167.243 94.1651L167.349 93.8846L167.062 93.7965ZM166.396 93.5917L166.091 93.5903L166.078 93.8072L166.29 93.8723L166.396 93.5917ZM166.445 92.7537L166.75 92.7551L166.762 92.5382L166.551 92.4732L166.445 92.7537ZM160.071 90.7947L160.178 90.5141L159.969 90.45L159.831 90.6244L160.071 90.7947ZM159.529 91.4809L159.423 91.7614L159.632 91.8256L159.769 91.6511L159.529 91.4809ZM158.863 91.2762L158.577 91.188L158.47 91.4686L158.757 91.5567L158.863 91.2762ZM159.885 88.58L159.991 88.2995L159.704 88.2113L159.598 88.4919L159.885 88.58ZM160.551 88.7847L160.857 88.7823L160.866 88.5683L160.657 88.5042L160.551 88.7847ZM160.514 89.6263L160.209 89.6288L160.199 89.8427L160.408 89.9068L160.514 89.6263ZM166.887 91.5853L166.781 91.8659L166.993 91.9309L167.13 91.7523L166.887 91.5853ZM167.418 90.8956L167.524 90.615L167.313 90.55L167.175 90.7286L167.418 90.8956ZM167.797 91.0121L166.776 93.7083L167.349 93.8846L168.371 91.1884L167.797 91.0121ZM167.169 93.5159L166.503 93.3112L166.29 93.8723L166.956 94.077L167.169 93.5159ZM166.702 93.5932L166.75 92.7551L166.139 92.7522L166.091 93.5903L166.702 93.5932ZM166.551 92.4732L160.178 90.5141L159.965 91.0752L166.338 93.0342L166.551 92.4732ZM159.831 90.6244L159.289 91.3107L159.769 91.6511L160.312 90.9649L159.831 90.6244ZM159.636 91.2004L158.97 90.9956L158.757 91.5567L159.423 91.7614L159.636 91.2004ZM159.15 91.3643L160.172 88.6682L159.598 88.4919L158.577 91.188L159.15 91.3643ZM159.779 88.8606L160.445 89.0653L160.657 88.5042L159.991 88.2995L159.779 88.8606ZM160.245 88.7872L160.209 89.6288L160.82 89.6238L160.857 88.7823L160.245 88.7872ZM160.408 89.9068L166.781 91.8659L166.994 91.3048L160.62 89.3458L160.408 89.9068ZM167.13 91.7523L167.661 91.0626L167.175 90.7286L166.645 91.4184L167.13 91.7523ZM167.312 91.1761L167.978 91.3808L168.19 90.8198L167.524 90.615L167.312 91.1761Z" fill="black"/>
<path d="M163.061 77.3532L168.745 78.2488C169.687 78.3971 170.365 78.7267 170.779 79.2377C171.193 79.7486 171.317 80.4325 171.151 81.2895C170.989 82.1229 170.62 82.7211 170.044 83.0841C169.468 83.4471 168.705 83.5538 167.756 83.4042L162.06 82.5068L162.298 81.2803L167.971 82.174C168.611 82.275 169.1 82.2345 169.437 82.0526C169.776 81.8629 169.989 81.5439 170.076 81.0958C170.164 80.6398 170.079 80.282 169.819 80.0223C169.562 79.7548 169.116 79.5712 168.483 79.4715L162.823 78.5797L163.061 77.3532Z" fill="black"/>
<path d="M163.061 77.3532L163.118 77.0587L162.822 77.012L162.764 77.3065L163.061 77.3532ZM170.779 79.2377L171.017 79.0465L170.779 79.2377ZM170.044 83.0841L170.2 83.3339L170.044 83.0841ZM162.06 82.5068L161.764 82.4601L161.706 82.7546L162.003 82.8013L162.06 82.5068ZM162.298 81.2803L162.355 80.9858L162.059 80.9391L162.002 81.2336L162.298 81.2803ZM169.437 82.0526L169.575 82.3132L169.58 82.3108L169.437 82.0526ZM169.819 80.0223L169.598 80.2318L169.601 80.2354L169.819 80.0223ZM162.823 78.5797L162.526 78.533L162.469 78.8275L162.765 78.8742L162.823 78.5797ZM163.004 77.6477L168.688 78.5433L168.802 77.9543L163.118 77.0587L163.004 77.6477ZM168.688 78.5433C169.588 78.685 170.187 78.9926 170.541 79.4288L171.017 79.0465C170.542 78.4608 169.786 78.1092 168.802 77.9543L168.688 78.5433ZM170.541 79.4288C170.887 79.855 171.01 80.4434 170.855 81.2428L171.447 81.3362C171.625 80.4217 171.5 79.6422 171.017 79.0465L170.541 79.4288ZM170.855 81.2428C170.704 82.0168 170.372 82.529 169.888 82.8342L170.2 83.3339C170.868 82.9132 171.274 82.229 171.447 81.3362L170.855 81.2428ZM169.888 82.8342C169.399 83.1424 168.721 83.2527 167.813 83.1097L167.699 83.6987C168.69 83.8549 169.537 83.7518 170.2 83.3339L169.888 82.8342ZM167.813 83.1097L162.117 82.2123L162.003 82.8013L167.699 83.6987L167.813 83.1097ZM162.356 82.5535L162.594 81.327L162.002 81.2336L161.764 82.4601L162.356 82.5535ZM162.241 81.5748L167.913 82.4685L168.028 81.8795L162.355 80.9858L162.241 81.5748ZM167.913 82.4685C168.577 82.5731 169.148 82.5437 169.575 82.3132L169.3 81.792C169.053 81.9253 168.646 81.9768 168.028 81.8795L167.913 82.4685ZM169.58 82.3108C170.014 82.0671 170.272 81.66 170.372 81.1425L169.779 81.0491C169.706 81.4278 169.537 81.6587 169.295 81.7945L169.58 82.3108ZM170.372 81.1425C170.474 80.6172 170.381 80.1531 170.038 79.8093L169.601 80.2354C169.776 80.4108 169.854 80.6623 169.779 81.0491L170.372 81.1425ZM170.041 79.8129C169.719 79.4782 169.197 79.2804 168.54 79.177L168.426 79.766C169.035 79.862 169.405 80.0315 169.598 80.2317L170.041 79.8129ZM168.54 79.177L162.88 78.2852L162.765 78.8742L168.426 79.766L168.54 79.177ZM163.119 78.6264L163.357 77.3999L162.764 77.3065L162.526 78.533L163.119 78.6264Z" fill="black"/>
<path d="M170.276 66.6041C171.029 66.6093 171.632 66.8378 172.084 67.2894C172.537 67.7411 172.76 68.3433 172.754 69.0962C172.747 69.865 172.605 70.5168 172.329 71.0514L171.091 71.0428C171.254 70.7556 171.385 70.4402 171.484 70.0965C171.583 69.7528 171.634 69.4248 171.636 69.1124C171.64 68.712 171.522 68.4028 171.284 68.1849C171.037 67.9669 170.734 67.8567 170.374 67.8542C170.125 67.8525 169.913 67.895 169.736 67.9819C169.551 68.0687 169.381 68.2117 169.228 68.4109C169.074 68.61 168.907 68.8852 168.728 69.2364C168.541 69.5875 168.342 69.8904 168.131 70.1453C167.913 70.4 167.655 70.5985 167.357 70.7406C167.052 70.8746 166.671 70.94 166.214 70.9368C165.518 70.932 164.963 70.7119 164.55 70.2765C164.137 69.8412 163.934 69.2711 163.94 68.5663C163.943 68.2059 163.99 67.8619 164.081 67.5341C164.172 67.2064 164.287 66.9068 164.425 66.6355L165.503 67.0274C165.365 67.2908 165.258 67.5503 165.184 67.8061C165.102 68.0618 165.06 68.3138 165.057 68.5621C165.054 68.9225 165.16 69.1995 165.375 69.3932C165.581 69.5869 165.849 69.6849 166.177 69.6872C166.441 69.689 166.662 69.6505 166.839 69.5716C167.016 69.4847 167.181 69.3417 167.335 69.1426C167.481 68.9434 167.643 68.6722 167.823 68.329C168.124 67.7545 168.46 67.3243 168.831 67.0386C169.202 66.7448 169.684 66.6 170.276 66.6041Z" fill="black"/>
<path d="M172.084 67.2894L171.872 67.502L172.084 67.2894ZM172.329 71.0514L172.326 71.3514L172.51 71.3527L172.595 71.1891L172.329 71.0514ZM171.091 71.0428L170.83 70.8953L170.579 71.3393L171.089 71.3428L171.091 71.0428ZM171.284 68.1849L171.486 67.9633L171.483 67.9601L171.284 68.1849ZM169.736 67.9819L169.863 68.2535L169.868 68.2512L169.736 67.9819ZM168.728 69.2364L168.993 69.3772L168.995 69.3724L168.728 69.2364ZM168.131 70.1453L168.359 70.3403L168.363 70.336L168.131 70.1453ZM167.357 70.7406L167.478 71.0154L167.486 71.0112L167.357 70.7406ZM164.55 70.2765L164.332 70.4831L164.332 70.4831L164.55 70.2765ZM164.081 67.5341L163.792 67.4544L163.792 67.4544L164.081 67.5341ZM164.425 66.6355L164.528 66.3535L164.279 66.2629L164.158 66.4995L164.425 66.6355ZM165.503 67.0274L165.769 67.1667L165.928 66.8627L165.606 66.7455L165.503 67.0274ZM165.184 67.8061L165.47 67.8976L165.472 67.8893L165.184 67.8061ZM165.375 69.3932L165.58 69.1742L165.576 69.1704L165.375 69.3932ZM166.839 69.5716L166.961 69.8458L166.971 69.8409L166.839 69.5716ZM167.335 69.1426L167.572 69.3258L167.577 69.3196L167.335 69.1426ZM167.823 68.329L167.557 68.1901L167.557 68.1905L167.823 68.329ZM168.831 67.0386L169.014 67.2761L169.017 67.2736L168.831 67.0386ZM170.274 66.9041C170.963 66.9089 171.485 67.1155 171.872 67.502L172.297 67.0769C171.779 66.56 171.095 66.3098 170.279 66.3041L170.274 66.9041ZM171.872 67.502C172.258 67.8868 172.46 68.4064 172.454 69.0941L173.054 69.0982C173.061 68.2803 172.816 67.5953 172.297 67.0769L171.872 67.502ZM172.454 69.0941C172.447 69.8285 172.312 70.4311 172.062 70.9138L172.595 71.1891C172.899 70.6024 173.047 69.9015 173.054 69.0982L172.454 69.0941ZM172.331 70.7515L171.094 70.7429L171.089 71.3428L172.326 71.3514L172.331 70.7515ZM171.352 71.1904C171.527 70.881 171.667 70.5436 171.772 70.1791L171.195 70.0138C171.102 70.3368 170.98 70.6302 170.83 70.8953L171.352 71.1904ZM171.772 70.1791C171.878 69.8129 171.933 69.4577 171.936 69.1145L171.336 69.1103C171.334 69.3918 171.288 69.6926 171.195 70.0138L171.772 70.1791ZM171.936 69.1145C171.94 68.6509 171.802 68.2518 171.486 67.9633L171.081 68.4065C171.242 68.5538 171.339 68.773 171.336 69.1103L171.936 69.1145ZM171.483 67.9601C171.177 67.6895 170.802 67.5572 170.376 67.5542L170.371 68.1542C170.666 68.1562 170.898 68.2444 171.085 68.4097L171.483 67.9601ZM170.376 67.5542C170.093 67.5522 169.832 67.6006 169.604 67.7127L169.868 68.2512C169.993 68.1895 170.158 68.1527 170.371 68.1542L170.376 67.5542ZM169.609 67.7104C169.372 67.8217 169.167 67.9994 168.99 68.2277L169.465 68.5941C169.596 68.4241 169.73 68.3158 169.863 68.2534L169.609 67.7104ZM168.99 68.2277C168.82 68.4475 168.644 68.7408 168.461 69.1003L168.995 69.3724C169.17 69.0296 169.327 68.7726 169.465 68.5941L168.99 68.2277ZM168.463 69.0955C168.284 69.4324 168.096 69.7179 167.9 69.9545L168.363 70.336C168.588 70.063 168.798 69.7425 168.993 69.3772L168.463 69.0955ZM167.904 69.9502C167.712 70.1737 167.488 70.3462 167.229 70.4699L167.486 71.0112C167.822 70.8508 168.114 70.6263 168.359 70.3403L167.904 69.9502ZM167.237 70.4659C166.982 70.5779 166.646 70.6398 166.217 70.6369L166.212 71.2368C166.696 71.2402 167.122 71.1713 167.478 71.0152L167.237 70.4659ZM166.217 70.6369C165.588 70.6325 165.116 70.4366 164.768 70.0699L164.332 70.4831C164.81 70.9872 165.448 71.2315 166.212 71.2368L166.217 70.6369ZM164.768 70.0699C164.418 69.7005 164.235 69.21 164.24 68.5684L163.64 68.5642C163.634 69.3322 163.857 69.9818 164.332 70.4831L164.768 70.0699ZM164.24 68.5684C164.243 68.2327 164.287 67.9148 164.37 67.6139L163.792 67.4544C163.694 67.8089 163.643 68.1792 163.64 68.5642L164.24 68.5684ZM164.37 67.6139C164.456 67.3034 164.564 67.0229 164.692 66.7715L164.158 66.4995C164.009 66.7907 163.888 67.1094 163.792 67.4544L164.37 67.6139ZM164.322 66.9174L165.4 67.3094L165.606 66.7455L164.528 66.3535L164.322 66.9174ZM165.238 66.8882C165.091 67.1674 164.976 67.4456 164.896 67.7229L165.472 67.8893C165.54 67.655 165.638 67.4142 165.769 67.1667L165.238 66.8882ZM164.898 67.7146C164.808 67.9969 164.76 68.279 164.757 68.56L165.357 68.5642C165.359 68.3486 165.396 68.1267 165.47 67.8976L164.898 67.7146ZM164.757 68.56C164.754 68.9834 164.88 69.3514 165.173 69.6161L165.576 69.1704C165.44 69.0477 165.355 68.8616 165.357 68.5642L164.757 68.56ZM165.169 69.6123C165.44 69.8656 165.784 69.9844 166.175 69.9871L166.18 69.3872C165.914 69.3853 165.723 69.3082 165.58 69.1742L165.169 69.6123ZM166.175 69.9871C166.467 69.9892 166.733 69.947 166.961 69.8456L166.717 69.2977C166.591 69.3539 166.416 69.3888 166.18 69.3872L166.175 69.9871ZM166.971 69.8409C167.199 69.7289 167.398 69.5515 167.572 69.3258L167.098 68.9594C166.964 69.1319 166.833 69.2406 166.707 69.3024L166.971 69.8409ZM167.577 69.3196C167.735 69.1033 167.906 68.8175 168.089 68.4675L167.557 68.1905C167.381 68.5269 167.227 68.7834 167.093 68.9656L167.577 69.3196ZM168.088 68.468C168.377 67.918 168.688 67.5272 169.014 67.2761L168.648 66.801C168.232 67.1214 167.871 67.591 167.557 68.1901L168.088 68.468ZM169.017 67.2736C169.322 67.0322 169.732 66.9003 170.274 66.9041L170.279 66.3041C169.636 66.2996 169.082 66.4574 168.645 66.8035L169.017 67.2736Z" fill="black"/>
</svg>
