<svg width="103" height="82" viewBox="0 0 103 82" fill="none" xmlns="http://www.w3.org/2000/svg">
<circle cx="97" cy="24" r="2" fill="#F7F1E3"/>
<line x1="91" y1="29.25" x2="103" y2="29.25" stroke="#F7F1E3" stroke-width="1.5"/>
<line x1="91" y1="32.6245" x2="103" y2="32.6245" stroke="#F7F1E3" stroke-width="1.5"/>
<circle cx="6" cy="24" r="2" fill="#F7F1E3"/>
<line y1="29.25" x2="12" y2="29.25" stroke="#F7F1E3" stroke-width="1.5"/>
<line y1="32.25" x2="12" y2="32.25" stroke="#F7F1E3" stroke-width="1.5"/>
<path d="M37.3015 39.4229L34.9538 40.2054L35.5179 41.8975H37.3015V39.4229ZM36.2689 36.5275L38.5882 35.6645L37.9885 34.0528H36.2689V36.5275ZM29.81 36.5275V34.0528H28.0536L27.4739 35.7107L29.81 36.5275ZM28.7976 39.4229V41.8975H30.5539L31.1336 40.2396L28.7976 39.4229ZM23.7155 39.4229L21.4066 38.5324L20.1087 41.8975H23.7155V39.4229ZM29.3848 24.7232V22.2485H27.6868L27.0758 23.8327L29.3848 24.7232ZM36.8358 24.7232L39.1426 23.8272L38.5294 22.2485H36.8358V24.7232ZM42.5456 39.4229V41.8975H46.1617L44.8524 38.5268L42.5456 39.4229ZM35.1148 33.3689V35.8435H38.6422L37.4418 32.5267L35.1148 33.3689ZM33.5355 29.1169L31.214 29.9741L31.2184 29.986L31.2229 29.9979L33.5355 29.1169ZM33.0496 27.8008L35.3711 26.9436L33.0968 20.7842L30.7398 26.9124L33.0496 27.8008ZM30.9641 33.3689L28.6428 32.511L27.4112 35.8435H30.9641V33.3689ZM39.6492 38.6403C39.3804 37.8338 39.0255 36.8397 38.5882 35.6645L33.9496 37.3905C34.3762 38.537 34.7097 39.4731 34.9538 40.2054L39.6492 38.6403ZM36.2689 34.0528H29.81V39.0022H36.2689V34.0528ZM27.4739 35.7107L26.4616 38.6061L31.1336 40.2396L32.146 37.3443L27.4739 35.7107ZM28.7976 36.9482H23.7155V41.8975H28.7976V36.9482ZM26.0244 40.3133L31.6937 25.6137L27.0758 23.8327L21.4066 38.5324L26.0244 40.3133ZM29.3848 27.1979H36.8358V22.2485H29.3848V27.1979ZM34.5291 25.6192L40.2388 40.3189L44.8524 38.5268L39.1426 23.8272L34.5291 25.6192ZM42.5456 36.9482H37.3015V41.8975H42.5456V36.9482ZM37.4418 32.5267C36.9241 31.0963 36.3929 29.6661 35.8481 28.2359L31.2229 29.9979C31.758 31.4024 32.2796 32.8067 32.7878 34.211L37.4418 32.5267ZM35.857 28.2597L35.3711 26.9436L30.7281 28.658L31.214 29.9741L35.857 28.2597ZM30.7398 26.9124C30.2613 28.1566 29.5615 30.0251 28.6428 32.511L33.2853 34.2267C34.2024 31.7452 34.8929 29.9017 35.3593 28.6892L30.7398 26.9124ZM30.9641 35.8435H35.1148V30.8942H30.9641V35.8435ZM59.0141 32.5995L57.0026 31.1579L56.9946 31.1691L56.9867 31.1803L59.0141 32.5995ZM56.0782 34.361L55.4507 31.9672L51.8896 32.9007L54.0985 35.8458L56.0782 34.361ZM56.4224 34.8672L54.2591 36.069L54.3295 36.1956L54.4141 36.3131L56.4224 34.8672ZM59.7025 39.4229V41.8975H64.5337L61.7108 37.9769L59.7025 39.4229ZM54.1952 39.4229L52.0146 40.5929L52.7146 41.8975H54.1952V39.4229ZM51.3808 34.7254L53.4715 33.4014L52.7427 32.2507H51.3808V34.7254ZM48.4044 34.7254V32.2507H45.9297V34.7254H48.4044ZM48.4044 39.4229V41.8975H50.8791V39.4229H48.4044ZM43.626 39.4229L41.1534 39.3209L41.0472 41.8975H43.626V39.4229ZM43.626 24.7232V22.2485H41.0472L41.1534 24.8252L43.626 24.7232ZM48.4044 24.7232H50.8791V22.2485H48.4044V24.7232ZM48.4044 24.7434H45.9297V27.2181H48.4044V24.7434ZM58.2649 26.0595L56.7044 27.9802L56.7044 27.9802L58.2649 26.0595ZM48.4044 28.6309V26.1563H45.9297V28.6309H48.4044ZM48.4044 30.9392H45.9297V33.4139H48.4044V30.9392ZM53.7295 30.8379L54.0153 33.2961L54.0396 33.2932L54.0639 33.2899L53.7295 30.8379ZM54.9646 30.4735L53.5375 28.4517L53.5375 28.4517L54.9646 30.4735ZM54.9848 29.0764L56.4697 27.0966L56.4697 27.0966L54.9848 29.0764ZM53.77 28.7322L53.4906 31.1911L53.4906 31.1911L53.77 28.7322ZM57.41 29.6231C57.41 30.3753 57.2308 30.8395 57.0026 31.1579L61.0256 34.041C61.9582 32.7397 62.3594 31.2195 62.3594 29.6231H57.41ZM56.9867 31.1803C56.8801 31.3326 56.5253 31.6855 55.4507 31.9672L56.7057 36.7548C58.4118 36.3076 60.0142 35.4861 61.0414 34.0186L56.9867 31.1803ZM54.0985 35.8458C54.1633 35.9323 54.209 35.9965 54.2394 36.0411C54.2723 36.0895 54.2739 36.0956 54.2591 36.069L58.5857 33.6654C58.434 33.3924 58.2371 33.115 58.058 32.8762L54.0985 35.8458ZM54.4141 36.3131L57.6942 40.8688L61.7108 37.9769L58.4307 33.4212L54.4141 36.3131ZM59.7025 36.9482H54.1952V41.8975H59.7025V36.9482ZM56.3758 38.2528C55.7389 37.0659 54.7626 35.44 53.4715 33.4014L49.2901 36.0495C50.5636 38.0603 51.4636 39.5661 52.0146 40.5929L56.3758 38.2528ZM51.3808 32.2507H48.4044V37.2001H51.3808V32.2507ZM45.9297 34.7254V39.4229H50.8791V34.7254H45.9297ZM48.4044 36.9482H43.626V41.8975H48.4044V36.9482ZM46.0986 39.5248C46.2078 36.877 46.2627 34.3928 46.2627 32.073H41.3133C41.3133 34.3157 41.2602 36.7313 41.1534 39.3209L46.0986 39.5248ZM46.2627 32.073C46.2627 29.7533 46.2078 27.269 46.0986 24.6212L41.1534 24.8252C41.2602 27.4147 41.3133 29.8304 41.3133 32.073H46.2627ZM43.626 27.1979H48.4044V22.2485H43.626V27.1979ZM45.9297 24.7232V24.7434H50.8791V24.7232H45.9297ZM48.4044 27.2181H52.5551V22.2687H48.4044V27.2181ZM52.5551 27.2181C55.1786 27.2181 56.3262 27.6729 56.7044 27.9802L59.8255 24.1389C58.0439 22.6914 55.385 22.2687 52.5551 22.2687V27.2181ZM56.7044 27.9802C57.1569 28.3478 57.41 28.8044 57.41 29.6231H62.3594C62.3594 27.4451 61.5327 25.526 59.8255 24.1389L56.7044 27.9802ZM45.9297 28.6309V30.9392H50.8791V28.6309H45.9297ZM48.4044 33.4139H51.1378V28.4645H48.4044V33.4139ZM51.1378 33.4139C52.3083 33.4139 53.2882 33.3806 54.0153 33.2961L53.4437 28.3798C53.0099 28.4302 52.262 28.4645 51.1378 28.4645V33.4139ZM54.0639 33.2899C54.7015 33.203 55.6376 33.0275 56.3917 32.4952L53.5375 28.4517C53.642 28.3779 53.7231 28.3393 53.7577 28.324C53.7939 28.308 53.8057 28.306 53.7833 28.3126C53.7621 28.3188 53.7199 28.33 53.6523 28.3436C53.5853 28.3571 53.5003 28.3716 53.3951 28.3859L54.0639 33.2899ZM56.3917 32.4952C57.3548 31.8154 57.7835 30.7807 57.7835 29.7648H52.8341C52.8341 29.6132 52.8632 29.3685 52.9967 29.0936C53.1346 28.8097 53.3353 28.5945 53.5375 28.4517L56.3917 32.4952ZM57.7835 29.7648C57.7835 28.7788 57.3773 27.7774 56.4697 27.0966L53.5 31.0561C53.3062 30.9108 53.1178 30.6981 52.9887 30.4237C52.8632 30.1571 52.8341 29.9188 52.8341 29.7648H57.7835ZM56.4697 27.0966C55.6751 26.5007 54.6686 26.3437 54.0494 26.2733L53.4906 31.1911C53.5933 31.2027 53.6742 31.2149 53.7359 31.2262C53.7983 31.2376 53.8328 31.2465 53.8445 31.2498C53.8577 31.2536 53.8322 31.2474 53.7801 31.2242C53.753 31.2121 53.7148 31.1937 53.6687 31.1673C53.6226 31.1411 53.5649 31.1048 53.5 31.0561L56.4697 27.0966ZM54.0494 26.2733C53.3127 26.1896 52.3225 26.1563 51.1378 26.1563V31.1056C52.2748 31.1056 53.0394 31.1398 53.4906 31.1911L54.0494 26.2733ZM51.1378 26.1563H48.4044V31.1056H51.1378V26.1563ZM77.8849 28.9752L77.8061 31.4486L80.3596 31.5299V28.9752H77.8849ZM71.7094 28.8537L71.7261 26.379L69.2347 26.3622V28.8537H71.7094ZM71.7094 39.4229V41.8975H74.1841V39.4229H71.7094ZM66.6475 39.4229H64.1729V41.8975H66.6475V39.4229ZM66.6475 28.8537H69.1222V26.3623L66.6309 26.379L66.6475 28.8537ZM60.4923 28.9752H58.0176V31.531L60.5721 31.4486L60.4923 28.9752ZM60.4923 24.7232V22.2485H58.0176V24.7232H60.4923ZM77.8849 24.7232H80.3596V22.2485H77.8849V24.7232ZM77.9637 26.5017C75.825 26.4336 73.7458 26.3927 71.7261 26.379L71.6927 31.3283C73.6685 31.3417 75.7063 31.3817 77.8061 31.4486L77.9637 26.5017ZM69.2347 28.8537V39.4229H74.1841V28.8537H69.2347ZM71.7094 36.9482H66.6475V41.8975H71.7094V36.9482ZM69.1222 39.4229V28.8537H64.1729V39.4229H69.1222ZM66.6309 26.379C64.5978 26.3927 62.525 26.4336 60.4125 26.5018L60.5721 31.4486C62.6441 31.3817 64.6748 31.3417 66.6642 31.3283L66.6309 26.379ZM62.967 28.9752V24.7232H58.0176V28.9752H62.967ZM60.4923 27.1979H77.8849V22.2485H60.4923V27.1979ZM75.4102 24.7232V28.9752H80.3596V24.7232H75.4102Z" fill="#F7F1E3"/>
<path d="M40.6346 46.469C40.3466 46.469 40.1066 46.571 39.9147 46.775C39.7227 46.979 39.5787 47.2609 39.4827 47.6209C39.3867 47.9808 39.3387 48.3888 39.3387 48.8447C39.3387 49.5886 39.4527 50.1676 39.6807 50.5815C39.9147 50.9955 40.2476 51.2024 40.6796 51.2024C40.8895 51.2024 41.0905 51.1724 41.2825 51.1125C41.4745 51.0525 41.6664 50.9805 41.8584 50.8965V51.8414C41.4685 52.0393 41.0305 52.1383 40.5446 52.1383C39.7767 52.1383 39.1917 51.8474 38.7898 51.2654C38.3938 50.6775 38.1959 49.8676 38.1959 48.8357C38.1959 48.2058 38.2859 47.6419 38.4658 47.144C38.6518 46.64 38.9218 46.2471 39.2757 45.9651C39.6357 45.6771 40.0736 45.5332 40.5896 45.5332C41.1235 45.5332 41.6094 45.6621 42.0474 45.9201L41.7054 46.811C41.5434 46.709 41.3725 46.628 41.1925 46.568C41.0185 46.502 40.8325 46.469 40.6346 46.469ZM45.8449 52.0483H42.9023V45.6231H45.8449V46.55H44.0091V48.2418H45.7189V49.1687H44.0091V51.1125H45.8449V52.0483ZM51.3559 52.0483H50.015L47.8643 47.1979H47.8283C47.8463 47.4859 47.8613 47.7589 47.8733 48.0168C47.8853 48.2748 47.8943 48.5148 47.9003 48.7368V52.0483H46.8744V45.6231H48.2063L50.348 50.3925H50.384C50.372 50.1226 50.357 49.8586 50.339 49.6006C50.327 49.3427 50.321 49.1057 50.321 48.8897V45.6231H51.3559V52.0483ZM54.5297 52.0483H53.4319V46.559H52.109V45.6231H55.8436V46.559H54.5297V52.0483ZM59.5541 52.0483H56.6115V45.6231H59.5541V46.55H57.7184V48.2418H59.4281V49.1687H57.7184V51.1125H59.5541V52.0483ZM62.0685 45.6231C62.7764 45.6231 63.3013 45.7791 63.6433 46.0911C63.9912 46.397 64.1652 46.859 64.1652 47.4769C64.1652 47.9029 64.0812 48.2568 63.9132 48.5388C63.7453 48.8207 63.5053 49.0427 63.1933 49.2047L64.6062 52.0483H63.3733L62.2305 49.4747H61.6905V52.0483H60.5837V45.6231H62.0685ZM62.0505 46.55H61.6905V48.6018H62.0865C62.7224 48.6018 63.0404 48.2448 63.0404 47.5309C63.0404 47.1829 62.9594 46.934 62.7974 46.784C62.6354 46.628 62.3864 46.55 62.0505 46.55Z" fill="#F7F1E3"/>
<path d="M17.0608 35.1519C17.0608 16.2903 32.3511 1 51.2126 1C70.0742 1 85.3645 16.2903 85.3645 35.1519C85.3645 54.0134 70.0742 69.3037 51.2126 69.3037C32.3511 69.3037 17.0608 54.0134 17.0608 35.1519Z" stroke="#F7F1E3" stroke-width="2"/>
<path d="M5.20662 40.3931L6.56908 39.9484L6.45518 38.6847L5.03032 38.437L4.96368 37.6976L9.89341 38.6431L9.96792 39.4698L5.27326 41.1325L5.20662 40.3931ZM7.17563 39.762L8.59072 39.2999C8.70497 39.2645 8.8282 39.2284 8.9604 39.1917C9.09749 39.1591 9.22132 39.1297 9.33189 39.1036C9.20912 39.0945 9.08145 39.0813 8.94889 39.064C8.81633 39.0466 8.68826 39.0289 8.56467 39.0108L7.08657 38.7738L7.17563 39.762Z" fill="white"/>
<path d="M5.20662 40.3931L5.14147 40.2032L4.99309 40.2516L5.00715 40.4077L5.20662 40.3931ZM6.56908 39.9484L6.63423 40.1383L6.78261 40.0899L6.76855 39.9338L6.56908 39.9484ZM6.45518 38.6847L6.65465 38.6701L6.64065 38.5148L6.48637 38.4879L6.45518 38.6847ZM5.03032 38.437L4.83085 38.4516L4.84485 38.6069L4.99914 38.6338L5.03032 38.437ZM4.96368 37.6976L4.99833 37.5015L4.74077 37.4521L4.76421 37.7122L4.96368 37.6976ZM9.89341 38.6431L10.0929 38.6285L10.0791 38.4759L9.92806 38.4469L9.89341 38.6431ZM9.96792 39.4698L10.0377 39.6582L10.1811 39.6074L10.1674 39.4553L9.96792 39.4698ZM5.27326 41.1325L5.07379 41.1471L5.0973 41.4079L5.34307 41.3208L5.27326 41.1325ZM7.17563 39.762L6.97616 39.7765L6.99907 40.0308L7.2408 39.9519L7.17563 39.762ZM8.59072 39.2999L8.52837 39.1091L8.52555 39.11L8.59072 39.2999ZM8.9604 39.1917L8.91088 38.9972L8.90368 38.9992L8.9604 39.1917ZM9.33189 39.1036L9.38113 39.298L9.34337 38.9044L9.33189 39.1036ZM8.94889 39.064L8.97172 38.8659L8.97172 38.8659L8.94889 39.064ZM8.56467 39.0108L8.5361 39.208L8.53893 39.2085L8.56467 39.0108ZM7.08657 38.7738L7.11514 38.5767L6.86439 38.5365L6.8871 38.7884L7.08657 38.7738ZM5.27177 40.583L6.63423 40.1383L6.50393 39.7585L5.14147 40.2032L5.27177 40.583ZM6.76855 39.9338L6.65465 38.6701L6.25571 38.6993L6.36961 39.963L6.76855 39.9338ZM6.48637 38.4879L5.06151 38.2403L4.99914 38.6338L6.424 38.8814L6.48637 38.4879ZM5.22979 38.4224L5.16315 37.683L4.76421 37.7122L4.83085 38.4516L5.22979 38.4224ZM4.92903 37.8937L9.85876 38.8392L9.92806 38.4469L4.99833 37.5015L4.92903 37.8937ZM9.69394 38.6576L9.76846 39.4844L10.1674 39.4553L10.0929 38.6285L9.69394 38.6576ZM9.89812 39.2815L5.20346 40.9442L5.34307 41.3208L10.0377 39.6582L9.89812 39.2815ZM5.47273 41.1179L5.40609 40.3785L5.00715 40.4077L5.07379 41.1471L5.47273 41.1179ZM7.2408 39.9519L8.65589 39.4898L8.52555 39.11L7.11045 39.572L7.2408 39.9519ZM8.65307 39.4907C8.76521 39.4559 8.88654 39.4204 9.01712 39.3841L8.90368 38.9992C8.76986 39.0364 8.64474 39.073 8.52838 39.1091L8.65307 39.4907ZM9.00988 39.386C9.14691 39.3534 9.27066 39.3241 9.38113 39.298L9.28265 38.9092C9.17198 38.9354 9.04807 38.9647 8.91091 38.9973L9.00988 39.386ZM9.34337 38.9044C9.22469 38.8957 9.10082 38.8829 8.97172 38.8659L8.92606 39.262C9.06208 39.2798 9.19354 39.2934 9.32042 39.3028L9.34337 38.9044ZM8.97172 38.8659C8.84006 38.8487 8.71297 38.8311 8.59042 38.8132L8.53893 39.2085C8.66355 39.2266 8.79259 39.2445 8.92606 39.262L8.97172 38.8659ZM8.59324 38.8137L7.11514 38.5767L7.058 38.971L8.5361 39.208L8.59324 38.8137ZM6.8871 38.7884L6.97616 39.7765L7.37509 39.7474L7.28604 38.7593L6.8871 38.7884Z" fill="#F7F1E3"/>
<path d="M10.771 45.0853C10.9098 45.5838 10.9004 45.9775 10.7429 46.2665C10.5867 46.5597 10.2847 46.7569 9.83704 46.858C9.51665 46.9304 9.23582 46.927 8.99455 46.8479C8.75767 46.7677 8.55019 46.6257 8.37213 46.4217L6.55915 47.9023L6.3492 47.1481L8.03445 45.8622L7.90232 45.3876L5.97997 45.8217L5.79174 45.1455L10.4923 44.084L10.771 45.0853ZM10.1815 45.2046L10.0946 44.8925L8.45533 45.2627L8.55306 45.6138C8.69424 46.121 9.05011 46.3101 9.62067 46.1813C9.89717 46.1188 10.0788 46.0087 10.1655 45.8509C10.2522 45.6931 10.2575 45.4777 10.1815 45.2046Z" fill="white"/>
<path d="M10.7429 46.2665L10.5634 46.1678L10.5626 46.1693L10.7429 46.2665ZM8.99455 46.8479L8.93587 47.0344L8.93775 47.035L8.99455 46.8479ZM8.37213 46.4217L8.52366 46.2973L8.38992 46.1441L8.23844 46.2678L8.37213 46.4217ZM6.55915 47.9023L6.36406 47.9463L6.44987 48.2546L6.69284 48.0562L6.55915 47.9023ZM6.3492 47.1481L6.22041 46.9903L6.11939 47.0674L6.15411 47.1921L6.3492 47.1481ZM8.03445 45.8622L8.16324 46.02L8.26426 45.9429L8.22954 45.8182L8.03445 45.8622ZM7.90232 45.3876L8.09741 45.3435L8.04378 45.1508L7.84869 45.1949L7.90232 45.3876ZM5.97997 45.8217L5.78488 45.8657L5.83852 46.0584L6.03361 46.0143L5.97997 45.8217ZM5.79174 45.1455L5.7381 44.9528L5.54302 44.9968L5.59665 45.1895L5.79174 45.1455ZM10.4923 44.084L10.6874 44.04L10.6337 43.8473L10.4387 43.8913L10.4923 44.084ZM10.0946 44.8925L10.2897 44.8485L10.236 44.6558L10.041 44.6999L10.0946 44.8925ZM8.45533 45.2627L8.40169 45.07L8.20661 45.1141L8.26024 45.3067L8.45533 45.2627ZM10.5759 45.1294C10.7081 45.6044 10.6875 45.9401 10.5634 46.1678L10.9225 46.3652C11.1133 46.015 11.1114 45.5632 10.9661 45.0413L10.5759 45.1294ZM10.5626 46.1693C10.4402 46.399 10.1961 46.5722 9.78341 46.6654L9.89068 47.0507C10.3734 46.9417 10.7332 46.7205 10.9233 46.3636L10.5626 46.1693ZM9.78341 46.6654C9.48784 46.7321 9.24676 46.7248 9.05135 46.6608L8.93775 47.035C9.22488 47.1291 9.54546 47.1287 9.89068 47.0507L9.78341 46.6654ZM9.05322 46.6614C8.85526 46.5944 8.67909 46.4754 8.52366 46.2973L8.2206 46.5461C8.4213 46.776 8.66007 46.9411 8.93588 47.0343L9.05322 46.6614ZM8.23844 46.2678L6.42546 47.7484L6.69284 48.0562L8.50582 46.5756L8.23844 46.2678ZM6.75424 47.8582L6.54428 47.104L6.15411 47.1921L6.36406 47.9463L6.75424 47.8582ZM6.47799 47.3058L8.16324 46.02L7.90566 45.7044L6.22041 46.9903L6.47799 47.3058ZM8.22954 45.8182L8.09741 45.3435L7.70724 45.4316L7.83936 45.9063L8.22954 45.8182ZM7.84869 45.1949L5.92634 45.629L6.03361 46.0143L7.95596 45.5802L7.84869 45.1949ZM6.17506 45.7776L5.98683 45.1014L5.59665 45.1895L5.78488 45.8657L6.17506 45.7776ZM5.84537 45.3381L10.5459 44.2767L10.4387 43.8913L5.7381 44.9528L5.84537 45.3381ZM10.2972 44.1281L10.5759 45.1294L10.9661 45.0413L10.6874 44.04L10.2972 44.1281ZM10.3766 45.1606L10.2897 44.8485L9.89951 44.9366L9.98638 45.2487L10.3766 45.1606ZM10.041 44.6999L8.40169 45.07L8.50896 45.4554L10.1482 45.0852L10.041 44.6999ZM8.26024 45.3067L8.35798 45.6579L8.74815 45.5697L8.65042 45.2186L8.26024 45.3067ZM8.35798 45.6579C8.43838 45.9467 8.59026 46.1785 8.83521 46.3087C9.07528 46.4363 9.36373 46.4441 9.6743 46.3739L9.56703 45.9886C9.30705 46.0473 9.13228 46.0249 9.01649 45.9633C8.90557 45.9044 8.80893 45.7881 8.74815 45.5697L8.35798 45.6579ZM9.6743 46.3739C9.97624 46.3058 10.2208 46.1757 10.3447 45.9502L9.98624 45.7517C9.93674 45.8418 9.8181 45.9319 9.56703 45.9886L9.6743 46.3739ZM10.3447 45.9502C10.4651 45.7309 10.4591 45.4571 10.3766 45.1606L9.98638 45.2487C10.0559 45.4983 10.0392 45.6553 9.98624 45.7517L10.3447 45.9502Z" fill="#F7F1E3"/>
<path d="M8.418 53.1679L8.1204 52.5472L12.0455 51.0207L11.602 50.0956L12.1681 49.8755L13.3527 52.3463L12.7866 52.5665L12.3431 51.6414L8.418 53.1679Z" fill="white"/>
<path d="M8.418 53.1679L8.2316 53.2404L8.31806 53.4208L8.50446 53.3483L8.418 53.1679ZM8.1204 52.5472L8.03394 52.3668L7.84754 52.4393L7.934 52.6196L8.1204 52.5472ZM12.0455 51.0207L12.132 51.201L12.3184 51.1285L12.2319 50.9482L12.0455 51.0207ZM11.602 50.0956L11.5155 49.9153L11.3291 49.9878L11.4156 50.1681L11.602 50.0956ZM12.1681 49.8755L12.3545 49.803L12.2681 49.6226L12.0817 49.6951L12.1681 49.8755ZM13.3527 52.3463L13.4392 52.5267L13.6256 52.4542L13.5391 52.2738L13.3527 52.3463ZM12.7866 52.5665L12.6002 52.639L12.6866 52.8193L12.873 52.7468L12.7866 52.5665ZM12.3431 51.6414L12.5295 51.569L12.443 51.3886L12.2566 51.4611L12.3431 51.6414ZM8.6044 53.0954L8.3068 52.4747L7.934 52.6196L8.2316 53.2404L8.6044 53.0954ZM8.20686 52.7275L12.132 51.201L11.959 50.8403L8.03394 52.3668L8.20686 52.7275ZM12.2319 50.9482L11.7884 50.0231L11.4156 50.1681L11.8591 51.0932L12.2319 50.9482ZM11.6885 50.276L12.2546 50.0558L12.0817 49.6951L11.5155 49.9153L11.6885 50.276ZM11.9817 49.9479L13.1663 52.4188L13.5391 52.2738L12.3545 49.803L11.9817 49.9479ZM13.2662 52.166L12.7001 52.3862L12.873 52.7468L13.4392 52.5267L13.2662 52.166ZM12.973 52.494L12.5295 51.569L12.1567 51.7139L12.6002 52.639L12.973 52.494ZM12.2566 51.4611L8.33154 52.9876L8.50446 53.3483L12.4296 51.8218L12.2566 51.4611Z" fill="#F7F1E3"/>
<path d="M18.1631 60.7769C18.0038 60.5994 17.8028 60.4994 17.56 60.4769C17.3202 60.4577 17.0587 60.5014 16.7755 60.608C16.4952 60.718 16.2114 60.8776 15.9241 61.0869C15.4549 61.4285 15.1489 61.7677 15.006 62.1043C14.8697 62.4417 14.9188 62.7409 15.1532 63.0021C15.2554 63.1159 15.3677 63.2141 15.49 63.2967C15.6159 63.3767 15.7476 63.4497 15.885 63.5157L15.394 63.8733C15.1045 63.7518 14.8411 63.5589 14.6036 63.2944C14.2309 62.8792 14.1202 62.431 14.2717 61.9497C14.4297 61.4692 14.8215 61.0011 15.4471 60.5455C15.829 60.2674 16.2145 60.0669 16.6036 59.9442C16.9956 59.8248 17.3661 59.7986 17.715 59.8657C18.067 59.9361 18.3737 60.1169 18.6352 60.4082C18.8877 60.6894 19.0464 61.0002 19.1113 61.3405L18.4897 61.5025C18.4698 61.373 18.4344 61.2465 18.3836 61.123C18.3328 60.9994 18.2593 60.884 18.1631 60.7769Z" fill="white"/>
<path d="M17.56 60.4769L17.577 60.2881L17.574 60.2879L17.56 60.4769ZM16.7755 60.608L16.6914 60.4326L16.6886 60.4337L16.7755 60.608ZM15.006 62.1043L14.8099 62.033L14.8088 62.0359L15.006 62.1043ZM15.49 63.2967L15.3667 63.448L15.3719 63.4513L15.49 63.2967ZM15.885 63.5157L16.0186 63.6645L16.2649 63.4852L15.9802 63.3485L15.885 63.5157ZM15.394 63.8733L15.3091 64.0451L15.4277 64.0949L15.5276 64.0221L15.394 63.8733ZM14.2717 61.9497L14.0705 61.8921L14.0698 61.8942L14.2717 61.9497ZM16.6036 59.9442L16.5329 59.7642L16.5308 59.7649L16.6036 59.9442ZM17.715 59.8657L17.7561 59.6804L17.7544 59.6801L17.715 59.8657ZM19.1113 61.3405L19.1733 61.523L19.3494 61.4771L19.3179 61.3122L19.1113 61.3405ZM18.4897 61.5025L18.282 61.5248L18.3162 61.7463L18.5517 61.6849L18.4897 61.5025ZM18.3836 61.123L18.1872 61.1857L18.1872 61.1857L18.3836 61.123ZM18.3248 60.6591C18.1305 60.4427 17.8779 60.316 17.577 60.2881L17.543 60.6657C17.7277 60.6828 17.8771 60.7561 18.0015 60.8946L18.3248 60.6591ZM17.574 60.2879C17.2924 60.2653 16.9969 60.3176 16.6914 60.4326L16.8595 60.7835C17.1205 60.6853 17.348 60.6501 17.546 60.6659L17.574 60.2879ZM16.6886 60.4337C16.3885 60.5514 16.0892 60.7205 15.7905 60.938L16.0577 61.2357C16.3337 61.0347 16.602 60.8846 16.8623 60.7824L16.6886 60.4337ZM15.7905 60.938C15.3066 61.2904 14.9708 61.6542 14.81 62.033L15.202 62.1757C15.3269 61.8812 15.6032 61.5667 16.0577 61.2357L15.7905 60.938ZM14.8088 62.0359C14.6498 62.4293 14.7051 62.8007 14.9916 63.1198L15.3149 62.8843C15.1325 62.6812 15.0895 62.454 15.2031 62.1728L14.8088 62.0359ZM14.9916 63.1198C15.1043 63.2454 15.2294 63.3551 15.3668 63.4479L15.6131 63.1455C15.506 63.0732 15.4065 62.9864 15.3149 62.8843L14.9916 63.1198ZM15.3719 63.4513C15.5053 63.5359 15.6446 63.6131 15.7898 63.6829L15.9802 63.3485C15.8505 63.2862 15.7265 63.2174 15.608 63.1422L15.3719 63.4513ZM15.7514 63.3669L15.2604 63.7244L15.5276 64.0221L16.0186 63.6645L15.7514 63.3669ZM15.4789 63.7014C15.224 63.5945 14.9857 63.4221 14.7653 63.1766L14.4419 63.4121C14.6965 63.6956 14.9851 63.9092 15.3091 64.0451L15.4789 63.7014ZM14.7653 63.1766C14.4338 62.8073 14.3419 62.4233 14.4735 62.0053L14.0698 61.8942C13.8985 62.4386 14.028 62.9511 14.4419 63.4121L14.7653 63.1766ZM14.4728 62.0074C14.6148 61.5758 14.9734 61.1366 15.5807 60.6943L15.3135 60.3967C14.6697 60.8656 14.2447 61.3626 14.0705 61.8921L14.4728 62.0074ZM15.5807 60.6943C15.9479 60.4269 16.3132 60.2381 16.6764 60.1235L16.5308 59.7649C16.1158 59.8958 15.7101 60.1078 15.3135 60.3967L15.5807 60.6943ZM16.6743 60.1242C17.0372 60.0136 17.3694 59.9924 17.6757 60.0513L17.7544 59.6801C17.3628 59.6048 16.954 59.6359 16.5329 59.7642L16.6743 60.1242ZM17.6739 60.0509C17.9719 60.1105 18.2381 60.2637 18.4735 60.5259L18.7968 60.2905C18.5093 59.9701 18.162 59.7616 17.7561 59.6804L17.6739 60.0509ZM18.4735 60.5259C18.7038 60.7824 18.8462 61.0627 18.9046 61.3689L19.3179 61.3122C19.2465 60.9378 19.0716 60.5965 18.7968 60.2905L18.4735 60.5259ZM19.0493 61.1581L18.4278 61.32L18.5517 61.6849L19.1733 61.523L19.0493 61.1581ZM18.6975 61.4802C18.6754 61.3369 18.6362 61.1968 18.58 61.0602L18.1872 61.1857C18.2326 61.2963 18.2642 61.4092 18.282 61.5248L18.6975 61.4802ZM18.58 61.0602C18.5207 60.9159 18.4352 60.7821 18.3248 60.6591L18.0015 60.8946C18.0835 60.986 18.1449 61.0829 18.1872 61.1857L18.58 61.0602Z" fill="#F7F1E3"/>
<path d="M20.8527 68.063L19.1929 66.7129L22.605 63.3101L24.2647 64.6601L23.8394 65.0843L22.7242 64.1771L21.7254 65.1732L22.7673 66.0207L22.3468 66.4401L21.3049 65.5926L20.1675 66.7269L21.2827 67.634L20.8527 68.063Z" fill="white"/>
<path d="M20.8527 68.063L20.711 68.2042L20.8662 68.3304L21.0078 68.1892L20.8527 68.063ZM19.1929 66.7129L19.0377 66.5867L18.8961 66.728L19.0513 66.8542L19.1929 66.7129ZM22.605 63.3101L22.7466 63.1688L22.5914 63.0426L22.4498 63.1839L22.605 63.3101ZM24.2647 64.6601L24.4199 64.7863L24.5615 64.6451L24.4063 64.5189L24.2647 64.6601ZM23.8394 65.0843L23.6978 65.2255L23.8529 65.3517L23.9946 65.2105L23.8394 65.0843ZM22.7242 64.1771L22.8658 64.0359L22.7106 63.9097L22.569 64.0509L22.7242 64.1771ZM21.7254 65.1732L21.5702 65.047L21.4286 65.1883L21.5838 65.3145L21.7254 65.1732ZM22.7673 66.0207L22.9225 66.1469L23.0641 66.0057L22.9089 65.8795L22.7673 66.0207ZM22.3468 66.4401L22.2052 66.5814L22.3603 66.7076L22.502 66.5663L22.3468 66.4401ZM21.3049 65.5926L21.4465 65.4514L21.2913 65.3252L21.1497 65.4664L21.3049 65.5926ZM20.1675 66.7269L20.0124 66.6007L19.8707 66.742L20.0259 66.8682L20.1675 66.7269ZM21.2827 67.634L21.4379 67.7602L21.5795 67.619L21.4244 67.4928L21.2827 67.634ZM20.9943 67.9217L19.3345 66.5717L19.0513 66.8542L20.711 68.2042L20.9943 67.9217ZM19.348 66.8391L22.7601 63.4363L22.4498 63.1839L19.0377 66.5867L19.348 66.8391ZM22.4633 63.4513L24.1231 64.8013L24.4063 64.5189L22.7466 63.1688L22.4633 63.4513ZM24.1096 64.5339L23.6842 64.9581L23.9946 65.2105L24.4199 64.7863L24.1096 64.5339ZM23.981 64.943L22.8658 64.0359L22.5826 64.3184L23.6978 65.2255L23.981 64.943ZM22.569 64.0509L21.5702 65.047L21.8806 65.2994L22.8793 64.3033L22.569 64.0509ZM21.5838 65.3145L22.6257 66.162L22.9089 65.8795L21.867 65.032L21.5838 65.3145ZM22.6122 65.8945L22.1916 66.3139L22.502 66.5663L22.9225 66.1469L22.6122 65.8945ZM22.4884 66.2989L21.4465 65.4514L21.1633 65.7339L22.2052 66.5814L22.4884 66.2989ZM21.1497 65.4664L20.0124 66.6007L20.3227 66.8531L21.46 65.7188L21.1497 65.4664ZM20.0259 66.8682L21.1411 67.7753L21.4244 67.4928L20.3091 66.5857L20.0259 66.8682ZM21.1276 67.5078L20.6975 67.9368L21.0078 68.1892L21.4379 67.7602L21.1276 67.5078Z" fill="#F7F1E3"/>
<path d="M27.3995 72.6889L26.6661 72.272L27.3445 68.3063L27.3211 68.293C27.2257 68.4603 27.1257 68.6225 27.0212 68.7795C26.9206 68.9387 26.8244 69.0876 26.7328 69.2261L25.1875 71.4315L24.6183 71.108L27.3837 67.1615L28.1113 67.5751L27.4599 71.5021L27.4775 71.5121C27.5781 71.3529 27.6787 71.1936 27.7794 71.0344C27.8826 70.8715 27.9807 70.7238 28.0736 70.5911L29.5957 68.4189L30.1649 68.7424L27.3995 72.6889Z" fill="white"/>
<path d="M27.3995 72.6889L27.2847 72.8527L27.4586 72.9515L27.5734 72.7877L27.3995 72.6889ZM26.6661 72.272L26.4603 72.2498L26.4393 72.3721L26.5513 72.4358L26.6661 72.272ZM27.3445 68.3063L27.5503 68.3285L27.5713 68.2062L27.4593 68.1425L27.3445 68.3063ZM27.3211 68.293L27.4358 68.1292L27.245 68.0207L27.1373 68.2097L27.3211 68.293ZM27.0212 68.7795L26.8446 68.6845L26.8421 68.6885L27.0212 68.7795ZM26.7328 69.2261L26.9068 69.325L26.9097 69.3205L26.7328 69.2261ZM25.1875 71.4315L25.0727 71.5953L25.2466 71.6941L25.3613 71.5303L25.1875 71.4315ZM24.6183 71.108L24.4444 71.0091L24.3297 71.1729L24.5035 71.2718L24.6183 71.108ZM27.3837 67.1615L27.4985 66.9977L27.3246 66.8989L27.2098 67.0627L27.3837 67.1615ZM28.1113 67.5751L28.3172 67.5964L28.3374 67.4746L28.226 67.4113L28.1113 67.5751ZM27.4599 71.5021L27.254 71.4808L27.2338 71.6026L27.3451 71.6659L27.4599 71.5021ZM27.4775 71.5121L27.3627 71.6759L27.5451 71.7795L27.6566 71.603L27.4775 71.5121ZM27.7794 71.0344L27.6004 70.9433L27.6002 70.9435L27.7794 71.0344ZM29.5957 68.4189L29.7105 68.2551L29.5366 68.1563L29.4219 68.3201L29.5957 68.4189ZM30.1649 68.7424L30.3388 68.8413L30.4535 68.6775L30.2797 68.5786L30.1649 68.7424ZM27.5143 72.5251L26.7808 72.1082L26.5513 72.4358L27.2847 72.8527L27.5143 72.5251ZM26.8718 72.2941L27.5503 68.3285L27.1388 68.2841L26.4603 72.2498L26.8718 72.2941ZM27.4593 68.1425L27.4358 68.1292L27.2063 68.4568L27.2298 68.4701L27.4593 68.1425ZM27.1373 68.2097C27.0441 68.3732 26.9466 68.5315 26.8446 68.6846L27.1977 68.8744C27.3049 68.7135 27.4072 68.5474 27.5048 68.3762L27.1373 68.2097ZM26.8421 68.6885C26.7421 68.8467 26.6467 68.9945 26.5559 69.1317L26.9097 69.3205C27.0022 69.1807 27.0991 69.0306 27.2003 68.8704L26.8421 68.6885ZM26.5589 69.1273L25.0136 71.3327L25.3613 71.5303L26.9067 69.325L26.5589 69.1273ZM25.3022 71.2677L24.7331 70.9442L24.5035 71.2718L25.0727 71.5953L25.3022 71.2677ZM24.7922 71.2068L27.5576 67.2604L27.2098 67.0627L24.4444 71.0091L24.7922 71.2068ZM27.2689 67.3253L27.9965 67.7389L28.226 67.4113L27.4985 66.9977L27.2689 67.3253ZM27.9053 67.5538L27.254 71.4808L27.6658 71.5233L28.3172 67.5964L27.9053 67.5538ZM27.3451 71.6659L27.3627 71.6759L27.5923 71.3483L27.5747 71.3383L27.3451 71.6659ZM27.6566 71.603C27.7573 71.4438 27.8579 71.2846 27.9585 71.1254L27.6002 70.9435C27.4996 71.1027 27.399 71.2619 27.2984 71.4211L27.6566 71.603ZM27.9584 71.1256C28.0603 70.9648 28.1566 70.8196 28.2475 70.69L27.8997 70.4923C27.8047 70.6279 27.7049 70.7783 27.6004 70.9433L27.9584 71.1256ZM28.2475 70.69L29.7696 68.5178L29.4219 68.3201L27.8997 70.4923L28.2475 70.69ZM29.481 68.5827L30.0501 68.9062L30.2797 68.5786L29.7105 68.2551L29.481 68.5827ZM29.991 68.6436L27.2256 72.59L27.5734 72.7877L30.3388 68.8413L29.991 68.6436Z" fill="#F7F1E3"/>
<path d="M33.2433 75.6157L32.5983 75.375L34.3578 71.5488L33.3967 71.1902L33.6505 70.6383L36.2178 71.5961L35.964 72.1479L35.0028 71.7894L33.2433 75.6157Z" fill="white"/>
<path d="M33.2433 75.6157L33.1597 75.7974L33.3471 75.8673L33.4307 75.6856L33.2433 75.6157ZM32.5983 75.375L32.4109 75.3051L32.3273 75.4869L32.5147 75.5568L32.5983 75.375ZM34.3578 71.5488L34.5452 71.6187L34.6288 71.437L34.4414 71.3671L34.3578 71.5488ZM33.3967 71.1902L33.2093 71.1203L33.1257 71.302L33.3131 71.3719L33.3967 71.1902ZM33.6505 70.6383L33.734 70.4566L33.5466 70.3867L33.4631 70.5684L33.6505 70.6383ZM36.2178 71.5961L36.4052 71.666L36.4887 71.4843L36.3014 71.4144L36.2178 71.5961ZM35.964 72.1479L35.8804 72.3296L36.0678 72.3995L36.1514 72.2178L35.964 72.1479ZM35.0028 71.7894L35.0864 71.6077L34.899 71.5378L34.8154 71.7195L35.0028 71.7894ZM33.3268 75.4339L32.6818 75.1933L32.5147 75.5568L33.1597 75.7974L33.3268 75.4339ZM32.7857 75.4449L34.5452 71.6187L34.1705 71.4789L32.4109 75.3051L32.7857 75.4449ZM34.4414 71.3671L33.4802 71.0085L33.3131 71.3719L34.2743 71.7305L34.4414 71.3671ZM33.5841 71.2601L33.8378 70.7082L33.4631 70.5684L33.2093 71.1203L33.5841 71.2601ZM33.5669 70.82L36.1342 71.7778L36.3014 71.4144L33.734 70.4566L33.5669 70.82ZM36.0304 71.5262L35.7766 72.078L36.1514 72.2178L36.4052 71.666L36.0304 71.5262ZM36.0476 71.9662L35.0864 71.6077L34.9193 71.9711L35.8804 72.3296L36.0476 71.9662ZM34.8154 71.7195L33.0559 75.5458L33.4307 75.6856L35.1902 71.8593L34.8154 71.7195Z" fill="#F7F1E3"/>
<path d="M40.6399 77.9721L38.5513 77.5081L39.8242 72.8604L41.9128 73.3244L41.7541 73.9038L40.3508 73.592L39.9782 74.9524L41.2893 75.2437L41.1324 75.8166L39.8213 75.5253L39.397 77.0745L40.8003 77.3863L40.6399 77.9721Z" fill="white"/>
<path d="M40.6399 77.9721L40.587 78.165L40.7823 78.2084L40.8351 78.0155L40.6399 77.9721ZM38.5513 77.5081L38.3561 77.4647L38.3032 77.6576L38.4985 77.701L38.5513 77.5081ZM39.8242 72.8604L39.8771 72.6675L39.6818 72.6241L39.629 72.817L39.8242 72.8604ZM41.9128 73.3244L42.108 73.3678L42.1609 73.1749L41.9656 73.1315L41.9128 73.3244ZM41.7541 73.9038L41.7013 74.0966L41.8965 74.14L41.9494 73.9471L41.7541 73.9038ZM40.3508 73.592L40.4036 73.3991L40.2084 73.3557L40.1555 73.5486L40.3508 73.592ZM39.9782 74.9524L39.7829 74.9091L39.7301 75.102L39.9253 75.1453L39.9782 74.9524ZM41.2893 75.2437L41.4845 75.2871L41.5373 75.0942L41.3421 75.0508L41.2893 75.2437ZM41.1324 75.8166L41.0796 76.0095L41.2748 76.0528L41.3276 75.8599L41.1324 75.8166ZM39.8213 75.5253L39.8741 75.3324L39.6789 75.289L39.626 75.4819L39.8213 75.5253ZM39.397 77.0745L39.2017 77.0311L39.1489 77.224L39.3441 77.2674L39.397 77.0745ZM40.8003 77.3863L40.9956 77.4297L41.0484 77.2368L40.8531 77.1934L40.8003 77.3863ZM40.6927 77.7792L38.6041 77.3152L38.4985 77.701L40.587 78.165L40.6927 77.7792ZM38.7465 77.5515L40.0195 72.9038L39.629 72.817L38.3561 77.4647L38.7465 77.5515ZM39.7714 73.0533L41.86 73.5173L41.9656 73.1315L39.8771 72.6675L39.7714 73.0533ZM41.7176 73.281L41.5589 73.8604L41.9494 73.9471L42.108 73.3678L41.7176 73.281ZM41.807 73.7109L40.4036 73.3991L40.2979 73.7849L41.7013 74.0966L41.807 73.7109ZM40.1555 73.5486L39.7829 74.9091L40.1734 74.9958L40.546 73.6353L40.1555 73.5486ZM39.9253 75.1453L41.2364 75.4366L41.3421 75.0508L40.031 74.7595L39.9253 75.1453ZM41.094 75.2004L40.9371 75.7732L41.3276 75.8599L41.4845 75.2871L41.094 75.2004ZM41.1852 75.6237L39.8741 75.3324L39.7684 75.7182L41.0796 76.0095L41.1852 75.6237ZM39.626 75.4819L39.2017 77.0311L39.5922 77.1179L40.0165 75.5686L39.626 75.4819ZM39.3441 77.2674L40.7475 77.5792L40.8531 77.1934L39.4498 76.8816L39.3441 77.2674ZM40.6051 77.3429L40.4446 77.9288L40.8351 78.0155L40.9956 77.4297L40.6051 77.3429Z" fill="#F7F1E3"/>
<path d="M47.0878 74.2323C47.6039 74.27 47.975 74.4121 48.2012 74.6587C48.4319 74.9057 48.5267 75.2577 48.4855 75.7147C48.456 76.0419 48.3667 76.306 48.2176 76.5071C48.0688 76.7037 47.8703 76.8516 47.622 76.9507L48.4727 79.1646L47.6918 79.1075L46.987 77.0802L46.4956 77.0443L46.3187 79.0071L45.6186 78.9559L46.0512 74.1565L47.0878 74.2323ZM47.0204 74.8295L46.6973 74.8059L46.5465 76.4797L46.91 76.5062C47.435 76.5446 47.7238 76.2725 47.7763 75.69C47.8017 75.4076 47.7528 75.1988 47.6295 75.0635C47.5061 74.9282 47.3031 74.8502 47.0204 74.8295Z" fill="white"/>
<path d="M48.2012 74.6587L48.0524 74.7949L48.0536 74.7962L48.2012 74.6587ZM48.2176 76.5071L48.3767 76.6257L48.3779 76.6241L48.2176 76.5071ZM47.622 76.9507L47.5503 76.7655L47.3637 76.8399L47.4348 77.0249L47.622 76.9507ZM48.4727 79.1646L48.4547 79.3638L48.7738 79.3871L48.6598 79.0904L48.4727 79.1646ZM47.6918 79.1075L47.5025 79.1757L47.5448 79.2972L47.6739 79.3067L47.6918 79.1075ZM46.987 77.0802L47.1763 77.012L47.1341 76.8905L47.0049 76.881L46.987 77.0802ZM46.4956 77.0443L46.5135 76.8451L46.3141 76.8305L46.2961 77.0297L46.4956 77.0443ZM46.3187 79.0071L46.3007 79.2063L46.5002 79.2209L46.5182 79.0217L46.3187 79.0071ZM45.6186 78.9559L45.4192 78.9413L45.4012 79.1405L45.6007 79.1551L45.6186 78.9559ZM46.0512 74.1565L46.0692 73.9573L45.8697 73.9427L45.8517 74.1419L46.0512 74.1565ZM46.6973 74.8059L46.7153 74.6067L46.5158 74.5921L46.4979 74.7913L46.6973 74.8059ZM46.5465 76.4797L46.347 76.4651L46.3291 76.6643L46.5285 76.6788L46.5465 76.4797ZM47.0699 74.4314C47.5616 74.4674 47.8742 74.6006 48.0524 74.7949L48.35 74.5226C48.0758 74.2237 47.6461 74.0726 47.1058 74.0331L47.0699 74.4314ZM48.0536 74.7962C48.2343 74.9896 48.324 75.2788 48.286 75.7002L48.6849 75.7293C48.7294 75.2365 48.6295 74.8217 48.3488 74.5213L48.0536 74.7962ZM48.286 75.7002C48.2588 76.0019 48.178 76.2272 48.0572 76.3901L48.3779 76.6241C48.5554 76.3848 48.6532 76.0818 48.6849 75.7293L48.286 75.7002ZM48.0584 76.3885C47.9341 76.5528 47.767 76.6789 47.5503 76.7655L47.6937 77.136C47.9736 77.0243 48.2036 76.8546 48.3767 76.6257L48.0584 76.3885ZM47.4348 77.0249L48.2855 79.2387L48.6598 79.0904L47.8092 76.8766L47.4348 77.0249ZM48.4906 78.9654L47.7098 78.9083L47.6739 79.3067L48.4547 79.3638L48.4906 78.9654ZM47.8812 79.0393L47.1763 77.012L46.7976 77.1484L47.5025 79.1757L47.8812 79.0393ZM47.0049 76.881L46.5135 76.8451L46.4776 77.2435L46.969 77.2794L47.0049 76.881ZM46.2961 77.0297L46.1192 78.9925L46.5182 79.0217L46.6951 77.0589L46.2961 77.0297ZM46.3366 78.8079L45.6366 78.7567L45.6007 79.1551L46.3007 79.2063L46.3366 78.8079ZM45.8181 78.9705L46.2507 74.171L45.8517 74.1419L45.4192 78.9413L45.8181 78.9705ZM46.0333 74.3557L47.0699 74.4314L47.1058 74.0331L46.0692 73.9573L46.0333 74.3557ZM47.0384 74.6303L46.7153 74.6067L46.6794 75.0051L47.0025 75.0287L47.0384 74.6303ZM46.4979 74.7913L46.347 76.4651L46.7459 76.4942L46.8968 74.8205L46.4979 74.7913ZM46.5285 76.6788L46.892 76.7054L46.9279 76.307L46.5644 76.2805L46.5285 76.6788ZM46.892 76.7054C47.191 76.7273 47.4578 76.6623 47.6566 76.475C47.8514 76.2915 47.9472 76.0217 47.9757 75.7045L47.5768 75.6754C47.5529 75.9408 47.478 76.0983 47.3841 76.1869C47.2941 76.2717 47.1539 76.3236 46.9279 76.307L46.892 76.7054ZM47.9757 75.7045C48.0035 75.3963 47.9549 75.1212 47.7787 74.9278L47.4802 75.1992C47.5507 75.2764 47.5999 75.419 47.5768 75.6754L47.9757 75.7045ZM47.7787 74.9278C47.6073 74.7398 47.3454 74.6528 47.0384 74.6303L47.0025 75.0287C47.2609 75.0476 47.405 75.1166 47.4802 75.1992L47.7787 74.9278Z" fill="#F7F1E3"/>
<path d="M60.1254 78.653L58.528 78.9217L58.4485 78.5384L58.8723 78.3235L58.1117 74.6558L57.629 74.5865L57.5495 74.2032L59.1468 73.9345L59.2263 74.3178L58.8039 74.5393L59.5645 78.2071L60.0459 78.2697L60.1254 78.653Z" fill="white"/>
<path d="M60.1254 78.653L60.166 78.8488L60.3632 78.8157L60.3226 78.6198L60.1254 78.653ZM58.528 78.9217L58.3308 78.9549L58.3714 79.1507L58.5686 79.1175L58.528 78.9217ZM58.4485 78.5384L58.3515 78.3611L58.2213 78.4271L58.2513 78.5716L58.4485 78.5384ZM58.8723 78.3235L58.9693 78.5008L59.0995 78.4348L59.0695 78.2903L58.8723 78.3235ZM58.1117 74.6558L58.3089 74.6226L58.2794 74.4801L58.1338 74.4592L58.1117 74.6558ZM57.629 74.5865L57.4317 74.6197L57.4613 74.7622L57.6069 74.783L57.629 74.5865ZM57.5495 74.2032L57.5089 74.0074L57.3116 74.0406L57.3523 74.2364L57.5495 74.2032ZM59.1468 73.9345L59.3441 73.9013L59.3035 73.7055L59.1062 73.7387L59.1468 73.9345ZM59.2263 74.3178L59.3257 74.4939L59.4531 74.4271L59.4236 74.2846L59.2263 74.3178ZM58.8039 74.5393L58.7045 74.3632L58.5771 74.43L58.6067 74.5725L58.8039 74.5393ZM59.5645 78.2071L59.3673 78.2402L59.3972 78.3847L59.5451 78.404L59.5645 78.2071ZM60.0459 78.2697L60.2431 78.2365L60.2131 78.092L60.0653 78.0728L60.0459 78.2697ZM60.0847 78.4572L58.4874 78.7259L58.5686 79.1175L60.166 78.8488L60.0847 78.4572ZM58.7252 78.8885L58.6457 78.5052L58.2513 78.5716L58.3308 78.9549L58.7252 78.8885ZM58.5455 78.7157L58.9693 78.5008L58.7753 78.1462L58.3515 78.3611L58.5455 78.7157ZM59.0695 78.2903L58.3089 74.6226L57.9145 74.6889L58.6751 78.3567L59.0695 78.2903ZM58.1338 74.4592L57.651 74.39L57.6069 74.783L58.0896 74.8523L58.1338 74.4592ZM57.8262 74.5533L57.7467 74.17L57.3523 74.2364L57.4317 74.6197L57.8262 74.5533ZM57.5901 74.399L59.1875 74.1303L59.1062 73.7387L57.5089 74.0074L57.5901 74.399ZM58.9496 73.9677L59.0291 74.351L59.4236 74.2846L59.3441 73.9013L58.9496 73.9677ZM59.127 74.1417L58.7045 74.3632L58.9032 74.7154L59.3257 74.4939L59.127 74.1417ZM58.6067 74.5725L59.3673 78.2402L59.7617 78.1739L59.0011 74.5061L58.6067 74.5725ZM59.5451 78.404L60.0265 78.4666L60.0653 78.0728L59.5839 78.0102L59.5451 78.404ZM59.8486 78.3029L59.9281 78.6862L60.3226 78.6198L60.2431 78.2365L59.8486 78.3029Z" fill="#F7F1E3"/>
<path d="M67.9323 76.7251L67.1294 76.9841L64.0809 73.9837L64.0552 73.992C64.1438 74.1663 64.2252 74.3405 64.2993 74.5147C64.3777 74.6876 64.4498 74.8506 64.5156 75.004L65.5107 77.5063L64.8877 77.7073L63.1069 73.2295L63.9034 72.9725L66.9344 75.929L66.9537 75.9228C66.8753 75.7499 66.7969 75.5771 66.7185 75.4042C66.6384 75.2272 66.5685 75.0635 66.5086 74.9129L65.5285 72.4483L66.1515 72.2473L67.9323 76.7251Z" fill="white"/>
<path d="M67.9323 76.7251L68.0062 76.9109L68.1965 76.8495L68.1226 76.6637L67.9323 76.7251ZM67.1294 76.9841L66.9867 77.1169L67.0807 77.2095L67.2033 77.1699L67.1294 76.9841ZM64.0809 73.9837L64.2235 73.8509L64.1295 73.7584L64.007 73.7979L64.0809 73.9837ZM64.0552 73.992L63.9813 73.8062L63.7724 73.8736L63.8725 74.0704L64.0552 73.992ZM64.2993 74.5147L64.1107 74.5806L64.1127 74.5849L64.2993 74.5147ZM64.5156 75.004L64.706 74.9425L64.7039 74.9376L64.5156 75.004ZM65.5107 77.5063L65.5846 77.6921L65.775 77.6307L65.7011 77.4449L65.5107 77.5063ZM64.8877 77.7073L64.6973 77.7687L64.7712 77.9545L64.9616 77.8931L64.8877 77.7073ZM63.1069 73.2295L63.033 73.0436L62.8427 73.105L62.9166 73.2909L63.1069 73.2295ZM63.9034 72.9725L64.0454 72.839L63.9514 72.7473L63.8295 72.7867L63.9034 72.9725ZM66.9344 75.929L66.7924 76.0625L66.8864 76.1541L67.0083 76.1148L66.9344 75.929ZM66.9537 75.9228L67.0276 76.1086L67.2272 76.0442L67.1403 75.8526L66.9537 75.9228ZM66.7185 75.4042L66.5318 75.4742L66.5319 75.4744L66.7185 75.4042ZM65.5285 72.4483L65.4546 72.2624L65.2642 72.3238L65.3381 72.5097L65.5285 72.4483ZM66.1515 72.2473L66.3419 72.1859L66.2679 72L66.0776 72.0614L66.1515 72.2473ZM67.8583 76.5392L67.0554 76.7982L67.2033 77.1699L68.0062 76.9109L67.8583 76.5392ZM67.272 76.8513L64.2235 73.8509L63.9382 74.1166L66.9867 77.1169L67.272 76.8513ZM64.007 73.7979L63.9813 73.8062L64.1291 74.1779L64.1548 74.1696L64.007 73.7979ZM63.8725 74.0704C63.9591 74.2406 64.0385 74.4107 64.1108 74.5805L64.4878 74.4489C64.4118 74.2704 64.3285 74.0919 64.2379 73.9137L63.8725 74.0704ZM64.1127 74.5849C64.1906 74.7567 64.2621 74.9185 64.3273 75.0704L64.7039 74.9376C64.6375 74.7828 64.5648 74.6185 64.4859 74.4446L64.1127 74.5849ZM64.3252 75.0654L65.3204 77.5677L65.7011 77.4449L64.7059 74.9426L64.3252 75.0654ZM65.4368 77.3204L64.8138 77.5214L64.9616 77.8931L65.5846 77.6921L65.4368 77.3204ZM65.078 77.6459L63.2973 73.1681L62.9166 73.2909L64.6973 77.7687L65.078 77.6459ZM63.1808 73.4153L63.9773 73.1584L63.8295 72.7867L63.033 73.0436L63.1808 73.4153ZM63.7614 73.106L66.7924 76.0625L67.0764 75.7955L64.0454 72.839L63.7614 73.106ZM67.0083 76.1148L67.0276 76.1086L66.8798 75.7369L66.8605 75.7431L67.0083 76.1148ZM67.1403 75.8526C67.0619 75.6797 66.9835 75.5069 66.9051 75.3341L66.5319 75.4744C66.6103 75.6473 66.6887 75.8201 66.7671 75.9929L67.1403 75.8526ZM66.9052 75.3343C66.8262 75.1596 66.7575 74.9987 66.699 74.8515L66.3183 74.9743C66.3795 75.1282 66.4507 75.2949 66.5318 75.4742L66.9052 75.3343ZM66.699 74.8515L65.7188 72.3869L65.3381 72.5097L66.3183 74.9743L66.699 74.8515ZM65.6024 72.6341L66.2254 72.4331L66.0776 72.0614L65.4546 72.2624L65.6024 72.6341ZM65.9612 72.3087L67.7419 76.7865L68.1226 76.6637L66.3419 72.1859L65.9612 72.3087Z" fill="#F7F1E3"/>
<path d="M76.8768 66.9739L78.8706 71.4065L78.2187 71.8401L74.1065 68.8169L74.7134 68.4131L77.2775 70.3853C77.4054 70.4777 77.5428 70.5852 77.6897 70.708C77.8367 70.8307 77.9647 70.9444 78.0739 71.0493C77.9947 70.9245 77.913 70.7826 77.8289 70.6234C77.7456 70.4584 77.669 70.305 77.5991 70.1633L76.2699 67.3776L76.8768 66.9739Z" fill="white"/>
<path d="M76.8768 66.9739L77.0702 66.9063L76.9663 66.6753L76.75 66.8192L76.8768 66.9739ZM78.8706 71.4065L78.9974 71.5611L79.1256 71.4759L79.064 71.339L78.8706 71.4065ZM78.2187 71.8401L78.09 71.9866L78.2172 72.0802L78.3456 71.9948L78.2187 71.8401ZM74.1065 68.8169L73.9797 68.6622L73.7636 68.8059L73.9778 68.9634L74.1065 68.8169ZM74.7134 68.4131L74.8458 68.2694L74.718 68.171L74.5865 68.2585L74.7134 68.4131ZM77.2775 70.3853L77.1449 70.5291L77.1502 70.5329L77.2775 70.3853ZM77.6897 70.708L77.8289 70.5696L77.8289 70.5696L77.6897 70.708ZM78.0739 71.0493L77.9238 71.1779L78.2544 70.9579L78.0739 71.0493ZM77.8289 70.6234L77.639 70.6985L77.6407 70.7017L77.8289 70.6234ZM77.5991 70.1633L77.4074 70.2346L77.4085 70.2368L77.5991 70.1633ZM76.2699 67.3776L76.1431 67.2229L76.012 67.3101L76.0782 67.4489L76.2699 67.3776ZM76.6834 67.0414L78.6771 71.474L79.064 71.339L77.0702 66.9063L76.6834 67.0414ZM78.7437 71.2518L78.0919 71.6855L78.3456 71.9948L78.9974 71.5611L78.7437 71.2518ZM78.3475 71.6936L74.2352 68.6703L73.9778 68.9634L78.09 71.9866L78.3475 71.6936ZM74.2333 68.9715L74.8402 68.5678L74.5865 68.2585L73.9797 68.6622L74.2333 68.9715ZM74.5809 68.5568L77.145 70.529L77.41 70.2416L74.8458 68.2694L74.5809 68.5568ZM77.1502 70.5329C77.2732 70.6218 77.4067 70.7261 77.5506 70.8463L77.8289 70.5696C77.6789 70.4444 77.5375 70.3336 77.4048 70.2378L77.1502 70.5329ZM77.5506 70.8463C77.6947 70.9666 77.8189 71.0771 77.9238 71.1779L78.2239 70.9207C78.1105 70.8118 77.9787 70.6947 77.8289 70.5696L77.5506 70.8463ZM78.2544 70.9579C78.1785 70.8382 78.0993 70.7008 78.017 70.5452L77.6407 70.7017C77.7267 70.8643 77.8109 71.0108 77.8933 71.1406L78.2544 70.9579ZM78.0187 70.5484C77.9356 70.3838 77.8593 70.2309 77.7897 70.0897L77.4085 70.2368C77.4787 70.3791 77.5555 70.533 77.639 70.6985L78.0187 70.5484ZM77.7908 70.0919L76.4616 67.3063L76.0782 67.4489L77.4075 70.2346L77.7908 70.0919ZM76.3967 67.5322L77.0036 67.1285L76.75 66.8192L76.1431 67.2229L76.3967 67.5322Z" fill="#F7F1E3"/>
<path d="M84.3353 67.1963L83.1239 68.2716L82.835 68.0075L83.0736 67.6072L80.3085 65.0803L79.8556 65.2848L79.5667 65.0208L80.7781 63.9455L81.067 64.2095L80.8334 64.6144L83.5985 67.1413L84.0463 66.9322L84.3353 67.1963Z" fill="white"/>
<path d="M84.3353 67.1963L84.4829 67.3312L84.6325 67.1984L84.4849 67.0635L84.3353 67.1963ZM83.1239 68.2716L82.9744 68.4043L83.122 68.5393L83.2716 68.4065L83.1239 68.2716ZM82.835 68.0075L82.6498 67.9178L82.5765 68.0407L82.6854 68.1403L82.835 68.0075ZM83.0736 67.6072L83.2588 67.697L83.3321 67.574L83.2231 67.4744L83.0736 67.6072ZM80.3085 65.0803L80.458 64.9476L80.3506 64.8494L80.214 64.9111L80.3085 65.0803ZM79.8556 65.2848L79.7061 65.4176L79.8135 65.5158L79.9501 65.4541L79.8556 65.2848ZM79.5667 65.0208L79.419 64.8859L79.2695 65.0186L79.4171 65.1535L79.5667 65.0208ZM80.7781 63.9455L80.9276 63.8127L80.78 63.6778L80.6304 63.8105L80.7781 63.9455ZM81.067 64.2095L81.2535 64.297L81.324 64.1749L81.2166 64.0768L81.067 64.2095ZM80.8334 64.6144L80.6469 64.5269L80.5764 64.649L80.6838 64.7471L80.8334 64.6144ZM83.5985 67.1413L83.4489 67.274L83.5578 67.3736L83.6954 67.3093L83.5985 67.1413ZM84.0463 66.9322L84.1959 66.7994L84.087 66.6999L83.9494 66.7641L84.0463 66.9322ZM84.1877 67.0613L82.9763 68.1367L83.2716 68.4065L84.4829 67.3312L84.1877 67.0613ZM83.2735 68.1388L82.9845 67.8747L82.6854 68.1403L82.9744 68.4043L83.2735 68.1388ZM83.0202 68.0972L83.2588 67.697L82.8884 67.5175L82.6498 67.9178L83.0202 68.0972ZM83.2231 67.4744L80.458 64.9476L80.1589 65.2131L82.924 67.74L83.2231 67.4744ZM80.214 64.9111L79.7612 65.1156L79.9501 65.4541L80.4029 65.2496L80.214 64.9111ZM80.0052 65.1521L79.7162 64.888L79.4171 65.1535L79.7061 65.4176L80.0052 65.1521ZM79.7143 65.1557L80.9257 64.0804L80.6304 63.8105L79.419 64.8859L79.7143 65.1557ZM80.6285 64.0782L80.9174 64.3423L81.2166 64.0768L80.9276 63.8127L80.6285 64.0782ZM80.8805 64.122L80.6469 64.5269L81.0199 64.7019L81.2535 64.297L80.8805 64.122ZM80.6838 64.7471L83.4489 67.274L83.7481 67.0085L80.983 64.4816L80.6838 64.7471ZM83.6954 67.3093L84.1433 67.1003L83.9494 66.7641L83.5016 66.9732L83.6954 67.3093ZM83.8968 67.065L84.1857 67.329L84.4849 67.0635L84.1959 66.7994L83.8968 67.065Z" fill="#F7F1E3"/>
<path d="M88.2714 64.711L84.3069 61.9715L84.7621 61.4371L88.2268 63.8313L89.1765 62.7164L89.6762 63.0618L88.2714 64.711Z" fill="white"/>
<path d="M88.2714 64.711L88.1417 64.8632L88.3062 64.9769L88.4359 64.8247L88.2714 64.711ZM84.3069 61.9715L84.1424 61.8578L84.0127 62.01L84.1772 62.1237L84.3069 61.9715ZM84.7621 61.4371L84.8918 61.2849L84.7272 61.1712L84.5975 61.3234L84.7621 61.4371ZM88.2268 63.8313L88.0971 63.9836L88.2616 64.0973L88.3913 63.945L88.2268 63.8313ZM89.1765 62.7164L89.3062 62.5642L89.1417 62.4505L89.012 62.6027L89.1765 62.7164ZM89.6762 63.0618L89.8408 63.1755L89.9705 63.0232L89.8059 62.9095L89.6762 63.0618ZM88.401 64.5587L84.4366 61.8192L84.1772 62.1237L88.1417 64.8632L88.401 64.5587ZM84.4714 62.0852L84.9266 61.5508L84.5975 61.3234L84.1424 61.8578L84.4714 62.0852ZM84.6324 61.5894L88.0971 63.9836L88.3565 63.6791L84.8918 61.2849L84.6324 61.5894ZM88.3913 63.945L89.3411 62.8301L89.012 62.6027L88.0623 63.7176L88.3913 63.945ZM89.0468 62.8687L89.5465 63.214L89.8059 62.9095L89.3062 62.5642L89.0468 62.8687ZM89.5117 62.9481L88.1068 64.5973L88.4359 64.8247L89.8408 63.1755L89.5117 62.9481Z" fill="#F7F1E3"/>
<path d="M94.0251 56.6946L93.5985 57.4225L89.2932 57.2819L89.2796 57.3052C89.4634 57.3727 89.6418 57.4451 89.8148 57.5224C89.99 57.5957 90.1539 57.6662 90.3065 57.7338L92.7387 58.8899L92.4077 59.4547L88.0555 57.3859L88.4786 56.6639L92.7412 56.7842L92.7515 56.7667C92.5762 56.6933 92.401 56.62 92.2258 56.5466C92.0465 56.4713 91.8837 56.3989 91.7374 56.3293L89.3419 55.1906L89.6729 54.6258L94.0251 56.6946Z" fill="white"/>
<path d="M94.0251 56.6946L94.2057 56.7805L94.3068 56.6079L94.1262 56.5221L94.0251 56.6946ZM93.5985 57.4225L93.5813 57.6151L93.7141 57.6194L93.7792 57.5084L93.5985 57.4225ZM89.2932 57.2819L89.3105 57.0893L89.1777 57.0849L89.1126 57.196L89.2932 57.2819ZM89.2796 57.3052L89.099 57.2193L88.988 57.4087L89.1956 57.485L89.2796 57.3052ZM89.8148 57.5224L89.718 57.697L89.7224 57.6988L89.8148 57.5224ZM90.3065 57.7338L90.4077 57.5612L90.4027 57.559L90.3065 57.7338ZM92.7387 58.8899L92.9193 58.9758L93.0204 58.8032L92.8398 58.7173L92.7387 58.8899ZM92.4077 59.4547L92.3066 59.6273L92.4872 59.7132L92.5883 59.5406L92.4077 59.4547ZM88.0555 57.3859L87.8748 57.3001L87.7737 57.4726L87.9544 57.5585L88.0555 57.3859ZM88.4786 56.6639L88.4949 56.4712L88.3627 56.4675L88.298 56.578L88.4786 56.6639ZM92.7412 56.7842L92.7249 56.9768L92.8571 56.9806L92.9219 56.87L92.7412 56.7842ZM92.7515 56.7667L92.9321 56.8526L93.0381 56.6716L92.8439 56.5903L92.7515 56.7667ZM92.2258 56.5466L92.1332 56.723L92.1334 56.723L92.2258 56.5466ZM89.3419 55.1906L89.1612 55.1048L89.0601 55.2773L89.2408 55.3632L89.3419 55.1906ZM89.6729 54.6258L89.774 54.4532L89.5933 54.3674L89.4922 54.5399L89.6729 54.6258ZM93.8444 56.6087L93.4179 57.3366L93.7792 57.5084L94.2057 56.7805L93.8444 56.6087ZM93.6158 57.2299L89.3105 57.0893L89.276 57.4745L93.5813 57.6151L93.6158 57.2299ZM89.1126 57.196L89.099 57.2193L89.4602 57.3911L89.4739 57.3678L89.1126 57.196ZM89.1956 57.485C89.3752 57.5509 89.5493 57.6216 89.718 57.6969L89.9116 57.3478C89.7343 57.2686 89.5516 57.1945 89.3635 57.1254L89.1956 57.485ZM89.7224 57.6988C89.8965 57.7717 90.0591 57.8416 90.2104 57.9086L90.4027 57.559C90.2487 57.4908 90.0835 57.4197 89.9072 57.3459L89.7224 57.6988ZM90.2054 57.9064L92.6376 59.0625L92.8398 58.7173L90.4077 57.5612L90.2054 57.9064ZM92.558 58.804L92.2271 59.3689L92.5883 59.5406L92.9193 58.9758L92.558 58.804ZM92.5088 59.2822L88.1566 57.2134L87.9544 57.5585L92.3066 59.6273L92.5088 59.2822ZM88.2361 57.4718L88.6592 56.7497L88.298 56.578L87.8748 57.3001L88.2361 57.4718ZM88.4623 56.8565L92.7249 56.9768L92.7575 56.5915L88.4949 56.4712L88.4623 56.8565ZM92.9219 56.87L92.9321 56.8526L92.5708 56.6808L92.5606 56.6983L92.9219 56.87ZM92.8439 56.5903C92.6686 56.5169 92.4934 56.4435 92.3182 56.3702L92.1334 56.723C92.3086 56.7964 92.4838 56.8698 92.6591 56.9431L92.8439 56.5903ZM92.3184 56.3702C92.1415 56.2959 91.9816 56.2248 91.8385 56.1568L91.6363 56.5019C91.7859 56.573 91.9516 56.6467 92.1332 56.723L92.3184 56.3702ZM91.8385 56.1568L89.443 55.0181L89.2408 55.3632L91.6363 56.5019L91.8385 56.1568ZM89.5225 55.2765L89.8535 54.7117L89.4922 54.5399L89.1612 55.1048L89.5225 55.2765ZM89.5717 54.7983L93.924 56.8672L94.1262 56.5221L89.774 54.4532L89.5717 54.7983Z" fill="#F7F1E3"/>
<path d="M96.5581 51.2194L95.9841 52.7341L95.6099 52.6191L95.6371 52.1483L92.0566 51.0477L91.7521 51.4332L91.3779 51.3182L91.9519 49.8035L92.326 49.9185L92.3054 50.3913L95.8858 51.4919L96.1839 51.1044L96.5581 51.2194Z" fill="white"/>
<path d="M96.5581 51.2194L96.7492 51.2781L96.8201 51.0911L96.6289 51.0324L96.5581 51.2194ZM95.9841 52.7341L95.9132 52.9211L96.1044 52.9799L96.1753 52.7928L95.9841 52.7341ZM95.6099 52.6191L95.4064 52.6181L95.398 52.7627L95.5391 52.8061L95.6099 52.6191ZM95.6371 52.1483L95.8407 52.1492L95.849 52.0046L95.708 51.9612L95.6371 52.1483ZM92.0566 51.0477L92.1275 50.8606L91.9884 50.8179L91.8966 50.9342L92.0566 51.0477ZM91.7521 51.4332L91.6812 51.6202L91.8203 51.663L91.9122 51.5467L91.7521 51.4332ZM91.3779 51.3182L91.1867 51.2594L91.1159 51.4465L91.307 51.5052L91.3779 51.3182ZM91.9519 49.8035L92.0227 49.6165L91.8316 49.5577L91.7607 49.7447L91.9519 49.8035ZM92.326 49.9185L92.5298 49.9169L92.536 49.7742L92.3969 49.7315L92.326 49.9185ZM92.3054 50.3913L92.1016 50.393L92.0954 50.5356L92.2345 50.5783L92.3054 50.3913ZM95.8858 51.4919L95.8149 51.6789L95.956 51.7223L96.0475 51.6032L95.8858 51.4919ZM96.1839 51.1044L96.2548 50.9173L96.1137 50.874L96.0222 50.993L96.1839 51.1044ZM96.3669 51.1606L95.7929 52.6753L96.1753 52.7928L96.7492 51.2781L96.3669 51.1606ZM96.055 52.5471L95.6808 52.432L95.5391 52.8061L95.9132 52.9211L96.055 52.5471ZM95.8135 52.62L95.8407 52.1492L95.4335 52.1473L95.4064 52.6181L95.8135 52.62ZM95.708 51.9612L92.1275 50.8606L91.9858 51.2347L95.5662 52.3353L95.708 51.9612ZM91.8966 50.9342L91.592 51.3197L91.9122 51.5467L92.2167 51.1612L91.8966 50.9342ZM91.823 51.2462L91.4488 51.1312L91.307 51.5052L91.6812 51.6202L91.823 51.2462ZM91.5691 51.377L92.143 49.8623L91.7607 49.7447L91.1867 51.2594L91.5691 51.377ZM91.881 49.9905L92.2552 50.1055L92.3969 49.7315L92.0227 49.6165L91.881 49.9905ZM92.1223 49.9202L92.1016 50.393L92.5091 50.3896L92.5298 49.9169L92.1223 49.9202ZM92.2345 50.5783L95.8149 51.6789L95.9567 51.3049L92.3762 50.2043L92.2345 50.5783ZM96.0475 51.6032L96.3456 51.2157L96.0222 50.993L95.7241 51.3806L96.0475 51.6032ZM96.113 51.2914L96.4872 51.4064L96.6289 51.0324L96.2548 50.9173L96.113 51.2914Z" fill="#F7F1E3"/>
<path d="M93.7404 43.4779L96.9339 43.981C97.4628 44.0643 97.8436 44.2495 98.0765 44.5366C98.3093 44.8236 98.379 45.2079 98.2854 45.6893C98.1945 46.1575 97.9872 46.4936 97.6636 46.6975C97.34 46.9014 96.9116 46.9614 96.3782 46.8773L93.1781 46.3732L93.3119 45.6841L96.4987 46.1862C96.8587 46.2429 97.1334 46.2202 97.3227 46.118C97.5129 46.0114 97.6324 45.8322 97.6813 45.5805C97.7311 45.3243 97.6831 45.1233 97.5374 44.9774C97.3925 44.8271 97.1423 44.724 96.7867 44.6679L93.6066 44.1669L93.7404 43.4779Z" fill="white"/>
<path d="M93.7404 43.4779L93.7785 43.2815L93.581 43.2504L93.5428 43.4468L93.7404 43.4779ZM98.0765 44.5366L98.2351 44.4091L98.2351 44.4091L98.0765 44.5366ZM97.6636 46.6975L97.7678 46.864L97.7678 46.864L97.6636 46.6975ZM93.1781 46.3732L92.9805 46.342L92.9424 46.5384L93.14 46.5695L93.1781 46.3732ZM93.3119 45.6841L93.35 45.4878L93.1525 45.4567L93.1143 45.653L93.3119 45.6841ZM97.3227 46.118L97.4146 46.2918L97.4175 46.2901L97.3227 46.118ZM97.5374 44.9774L97.3895 45.117L97.3919 45.1194L97.5374 44.9774ZM93.6066 44.1669L93.409 44.1358L93.3709 44.3321L93.5684 44.3632L93.6066 44.1669ZM93.7023 43.6742L96.8957 44.1773L96.972 43.7847L93.7785 43.2815L93.7023 43.6742ZM96.8957 44.1773C97.3968 44.2563 97.7254 44.4268 97.9178 44.664L98.2351 44.4091C97.9618 44.0722 97.5287 43.8724 96.972 43.7847L96.8957 44.1773ZM97.9178 44.664C98.1048 44.8945 98.1739 45.2151 98.0879 45.6582L98.483 45.7204C98.584 45.2006 98.5138 44.7527 98.2351 44.4091L97.9178 44.664ZM98.0879 45.6582C98.0046 46.0868 97.822 46.3655 97.5595 46.5309L97.7678 46.864C98.1525 46.6216 98.3844 46.2282 98.483 45.7204L98.0879 45.6582ZM97.5595 46.5309C97.2939 46.6983 96.9219 46.7607 96.4163 46.681L96.3401 47.0737C96.9012 47.1621 97.3861 47.1046 97.7678 46.864L97.5595 46.5309ZM96.4163 46.681L93.2162 46.1768L93.14 46.5695L96.3401 47.0737L96.4163 46.681ZM93.3756 46.4043L93.5095 45.7153L93.1143 45.653L92.9805 46.342L93.3756 46.4043ZM93.2738 45.8805L96.4606 46.3825L96.5368 45.9899L93.35 45.4878L93.2738 45.8805ZM96.4606 46.3825C96.836 46.4417 97.1652 46.4263 97.4146 46.2917L97.2308 45.9443C97.1016 46.0141 96.8815 46.0442 96.5368 45.9899L96.4606 46.3825ZM97.4175 46.2901C97.6719 46.1475 97.821 45.9096 97.8789 45.6116L97.4838 45.5493C97.4439 45.7548 97.3539 45.8753 97.2279 45.9459L97.4175 46.2901ZM97.8789 45.6116C97.9376 45.3093 97.8847 45.0374 97.6829 44.8354L97.3919 45.1194C97.4815 45.2092 97.5246 45.3393 97.4838 45.5493L97.8789 45.6116ZM97.6853 44.8378C97.4972 44.6427 97.1961 44.5301 96.8248 44.4716L96.7486 44.8643C97.0884 44.9178 97.2878 45.0115 97.3895 45.117L97.6853 44.8378ZM96.8248 44.4716L93.6447 43.9706L93.5684 44.3632L96.7486 44.8643L96.8248 44.4716ZM93.8041 44.198L93.938 43.509L93.5428 43.4468L93.409 44.1358L93.8041 44.198Z" fill="#F7F1E3"/>
<path d="M97.7957 37.4187C98.2186 37.4216 98.5573 37.55 98.8116 37.8037C99.0659 38.0574 99.1912 38.3958 99.1876 38.8187C99.1839 39.2506 99.1042 39.6168 98.9487 39.9172L98.2535 39.9123C98.3449 39.751 98.4184 39.5738 98.4741 39.3807C98.5297 39.1876 98.5583 39.0033 98.5598 38.8278C98.5617 38.6029 98.4957 38.4292 98.3618 38.3068C98.2233 38.1843 98.0529 38.1224 97.8504 38.121C97.7109 38.12 97.5915 38.1439 97.4921 38.1927C97.3882 38.2415 97.293 38.3218 97.2065 38.4337C97.1201 38.5456 97.0265 38.7002 96.9258 38.8975C96.8207 39.0947 96.709 39.2649 96.5907 39.4081C96.468 39.5512 96.3231 39.6627 96.1559 39.7425C95.9843 39.8178 95.7702 39.8546 95.5138 39.8528C95.1223 39.8501 94.8107 39.7264 94.5788 39.4818C94.3469 39.2373 94.2327 38.917 94.2361 38.5211C94.2378 38.3186 94.2642 38.1253 94.3153 37.9412C94.3664 37.757 94.4308 37.5888 94.5086 37.4363L95.1141 37.6565C95.0364 37.8044 94.9766 37.9503 94.9349 38.094C94.8887 38.2376 94.865 38.3792 94.8638 38.5187C94.862 38.7211 94.9215 38.8768 95.042 38.9856C95.1581 39.0944 95.3083 39.1494 95.4928 39.1507C95.6413 39.1518 95.7652 39.1301 95.8646 39.0858C95.964 39.037 96.0569 38.9567 96.1434 38.8448C96.2253 38.7329 96.3166 38.5805 96.4173 38.3877C96.5865 38.0649 96.7753 37.8233 96.9837 37.6627C97.1921 37.4977 97.4627 37.4164 97.7957 37.4187Z" fill="white"/>
<path d="M98.8116 37.8037L98.6702 37.9454L98.6702 37.9454L98.8116 37.8037ZM98.9487 39.9172L98.947 40.1172L99.0697 40.118L99.1262 40.0089L98.9487 39.9172ZM98.2535 39.9123L98.0795 39.814L97.9119 40.11L98.2518 40.1123L98.2535 39.9123ZM98.3618 38.3068L98.4969 38.159L98.4944 38.1569L98.3618 38.3068ZM97.4921 38.1927L97.5768 38.3738L97.58 38.3722L97.4921 38.1927ZM97.2065 38.4337L97.0484 38.3116L97.2065 38.4337ZM96.9258 38.8975L97.1023 38.9914L97.104 38.9882L96.9258 38.8975ZM96.5907 39.4081L96.7425 39.5381L96.7449 39.5353L96.5907 39.4081ZM96.1559 39.7425L96.2361 39.9257L96.2419 39.923L96.1559 39.7425ZM94.5788 39.4818L94.4335 39.6196L94.4335 39.6196L94.5788 39.4818ZM94.3153 37.9412L94.1226 37.888L94.1226 37.888L94.3153 37.9412ZM94.5086 37.4363L94.5772 37.2483L94.411 37.1879L94.3305 37.3456L94.5086 37.4363ZM95.1141 37.6565L95.2912 37.7493L95.3977 37.5467L95.1828 37.4685L95.1141 37.6565ZM94.9349 38.094L95.1254 38.155L95.127 38.1494L94.9349 38.094ZM95.042 38.9856L95.1789 38.8396L95.1762 38.8371L95.042 38.9856ZM95.8646 39.0858L95.9458 39.2686L95.9525 39.2653L95.8646 39.0858ZM96.1434 38.8448L96.3016 38.9669L96.3047 38.9628L96.1434 38.8448ZM96.4173 38.3877L96.2402 38.2951L96.24 38.2954L96.4173 38.3877ZM96.9837 37.6627L97.1056 37.8211L97.1077 37.8195L96.9837 37.6627ZM97.794 37.6187C98.1744 37.6213 98.4594 37.7351 98.6702 37.9454L98.9529 37.662C98.6551 37.3648 98.2628 37.2219 97.7974 37.2187L97.794 37.6187ZM98.6702 37.9454C98.8799 38.1546 98.9908 38.4378 98.9876 38.8173L99.3876 38.8201C99.3916 38.3537 99.2519 37.9603 98.9529 37.662L98.6702 37.9454ZM98.9876 38.8173C98.9841 39.2263 98.9087 39.5597 98.7711 39.8254L99.1262 40.0089C99.2997 39.6739 99.3837 39.275 99.3876 38.8201L98.9876 38.8173ZM98.9504 39.7172L98.2552 39.7124L98.2518 40.1123L98.947 40.1172L98.9504 39.7172ZM98.4275 40.0107C98.5272 39.8346 98.6066 39.6427 98.6662 39.4358L98.2819 39.3256C98.2302 39.5049 98.1626 39.6674 98.0795 39.814L98.4275 40.0107ZM98.6662 39.4358C98.7262 39.2277 98.7581 39.0253 98.7598 38.8292L98.3598 38.8264C98.3585 38.9813 98.3332 39.1475 98.2819 39.3256L98.6662 39.4358ZM98.7598 38.8292C98.7621 38.5622 98.6823 38.3285 98.4968 38.159L98.2267 38.4545C98.3092 38.5298 98.3614 38.6436 98.3598 38.8264L98.7598 38.8292ZM98.4944 38.1569C98.3163 37.9993 98.098 37.9227 97.8521 37.921L97.8487 38.321C98.0078 38.3221 98.1304 38.3693 98.2291 38.4567L98.4944 38.1569ZM97.8521 37.921C97.6895 37.9199 97.5378 37.9476 97.4042 38.0132L97.58 38.3722C97.6452 38.3402 97.7324 38.3202 97.8487 38.321L97.8521 37.921ZM97.4073 38.0117C97.2687 38.0768 97.1498 38.1803 97.0484 38.3116L97.3647 38.5558C97.4362 38.4634 97.5076 38.4062 97.5768 38.3737L97.4073 38.0117ZM97.0484 38.3116C96.9513 38.4372 96.8513 38.6039 96.7477 38.8068L97.104 38.9882C97.2018 38.7965 97.2889 38.654 97.3647 38.5558L97.0484 38.3116ZM96.7494 38.8036C96.6493 38.9913 96.5448 39.1499 96.4366 39.2809L96.7449 39.5353C96.8732 39.3799 96.992 39.1981 97.1023 38.9913L96.7494 38.8036ZM96.439 39.2781C96.3341 39.4004 96.2115 39.4945 96.07 39.5621L96.2419 39.923C96.4347 39.8309 96.6019 39.7021 96.7425 39.5381L96.439 39.2781ZM96.0758 39.5594C95.9376 39.62 95.7536 39.6545 95.5155 39.6528L95.5121 40.0528C95.7869 40.0547 96.0309 40.0156 96.236 39.9257L96.0758 39.5594ZM95.5155 39.6528C95.1689 39.6504 94.9125 39.5429 94.724 39.3441L94.4335 39.6196C94.7088 39.9099 95.0758 40.0498 95.5121 40.0528L95.5155 39.6528ZM94.724 39.3441C94.5338 39.1435 94.433 38.8763 94.4361 38.5224L94.0361 38.5197C94.0323 38.9577 94.16 39.331 94.4335 39.6196L94.724 39.3441ZM94.4361 38.5224C94.4377 38.3364 94.4619 38.1606 94.508 37.9943L94.1226 37.888C94.0665 38.09 94.0379 38.3007 94.0361 38.5197L94.4361 38.5224ZM94.508 37.9943C94.5559 37.8217 94.6157 37.6662 94.6867 37.527L94.3305 37.3456C94.2459 37.5113 94.1768 37.6924 94.1226 37.888L94.508 37.9943ZM94.44 37.6243L95.0455 37.8445L95.1828 37.4685L94.5772 37.2483L94.44 37.6243ZM94.9371 37.5637C94.8538 37.7222 94.7887 37.8805 94.7428 38.0385L95.127 38.1494C95.1645 38.0201 95.2189 37.8867 95.2912 37.7493L94.9371 37.5637ZM94.7445 38.033C94.6926 38.1943 94.6652 38.356 94.6638 38.5173L95.0638 38.5201C95.0648 38.4024 95.0848 38.2809 95.1253 38.1549L94.7445 38.033ZM94.6638 38.5173C94.6617 38.7617 94.7349 38.978 94.9079 39.1342L95.1762 38.8371C95.108 38.7756 95.0624 38.6805 95.0638 38.5201L94.6638 38.5173ZM94.9051 39.1316C95.0636 39.2802 95.2649 39.3491 95.4911 39.3507L95.4945 38.9507C95.3518 38.9497 95.2525 38.9086 95.1789 38.8396L94.9051 39.1316ZM95.4911 39.3507C95.6583 39.3519 95.8126 39.3278 95.9458 39.2685L95.7834 38.9032C95.7178 38.9324 95.6243 38.9516 95.4945 38.9507L95.4911 39.3507ZM95.9525 39.2653C96.0859 39.1998 96.2014 39.0965 96.3016 38.9669L95.9852 38.7227C95.9124 38.8168 95.842 38.8742 95.7767 38.9063L95.9525 39.2653ZM96.3047 38.9628C96.3949 38.8395 96.4915 38.6774 96.5945 38.4801L96.24 38.2954C96.1417 38.4837 96.0557 38.6262 95.9821 38.7268L96.3047 38.9628ZM96.5944 38.4804C96.755 38.1739 96.9272 37.9585 97.1056 37.8211L96.8618 37.5044C96.6234 37.688 96.418 37.9559 96.2402 38.2951L96.5944 38.4804ZM97.1077 37.8195C97.272 37.6893 97.4948 37.6166 97.794 37.6187L97.7974 37.2187C97.4307 37.2161 97.1121 37.3061 96.8597 37.506L97.1077 37.8195Z" fill="#F7F1E3"/>
</svg>
