<svg width="35" height="30" viewBox="0 0 35 30" fill="none" xmlns="http://www.w3.org/2000/svg">
<path fill-rule="evenodd" clip-rule="evenodd" d="M19.7248 8.60317V4.32765C19.7248 3.61809 20.2261 2.9774 20.9937 2.70482C21.7614 2.43363 22.644 2.58399 23.2325 3.08556L34.3983 12.6299C35.2005 13.3156 35.2005 14.4283 34.3983 15.114L23.2325 24.6584C22.644 25.16 21.7613 25.3103 20.9937 25.0391C20.2261 24.7666 19.7248 24.1259 19.7248 23.4163V19.1409H16.1086C11.7888 19.1409 7.72064 20.8788 5.12844 23.8336L2.21904 27.1495C1.90015 27.512 1.34618 27.6609 0.843266 27.5176C0.340285 27.3729 0 26.971 0 26.5172V25.1122C0 15.995 8.6477 8.60317 19.3138 8.60317H19.7248Z" fill="#F7F1E3"/>
</svg>
