<svg width="24" height="24" viewBox="0 0 24 24" fill="none" xmlns="http://www.w3.org/2000/svg">
<path d="M3.01284 3.00431C7.25305 -1.08239 13.5627 -0.919657 17.4867 3.00431C21.2397 6.75633 21.4679 12.6986 18.1755 16.7187L24 22.5443L22.5528 23.9915L16.7273 18.1669C12.7071 21.4604 6.76486 21.2312 3.01284 17.4781C-0.911123 13.5542 -1.09637 6.96511 3.01284 3.00431ZM16.0395 4.45148C14.504 2.91581 12.4213 2.05303 10.2496 2.05293C8.07794 2.05284 5.99518 2.91544 4.45951 4.45097C2.92384 5.98651 2.06105 8.06919 2.06096 10.2409C2.06086 12.4125 2.92346 14.4953 4.45899 16.031C5.99466 17.5666 8.07748 18.4294 10.2492 18.4294C12.421 18.4294 14.5038 17.5666 16.0395 16.031C17.5752 14.4953 18.4379 12.4125 18.4379 10.2407C18.4379 8.06895 17.5752 5.98613 16.0395 4.45046V4.45148Z" fill="#F7F1E3"/>
</svg>
