<svg width="32" height="32" viewBox="0 0 32 32" fill="none" xmlns="http://www.w3.org/2000/svg">
<path d="M23.8208 32C21.3835 32 18.3935 30.8778 15.0993 28.6664C8.43899 24.1971 0.644692 15.0246 0.0405917 8.82675C-0.152608 6.84455 0.344492 5.2451 1.51829 4.07125L5.58959 0L13.8796 8.29L13.2167 8.95295C12.1593 10.0106 10.4265 11.7397 9.18764 12.9701C10.3273 14.6438 12.5273 17.117 14.1505 18.7402C15.687 20.2754 17.465 21.6729 19.0673 22.7432C20.2216 21.5813 21.7753 20.0229 23.046 18.7494L23.7099 18.0859L31.9999 26.3778L27.978 30.3996C26.9078 31.4699 25.4951 32 23.8208 32Z" fill="black"/>
</svg>
